<?xml version="1.0" standalone="no"?>
<!DOCTYPE svg PUBLIC "-//W3C//DTD SVG 1.1//EN" "http://www.w3.org/Graphics/SVG/1.1/DTD/svg11.dtd" >
<svg xmlns="http://www.w3.org/2000/svg" xmlns:xlink="http://www.w3.org/1999/xlink" version="1.1">
<metadata>
Created by FontForge 20170731 at Sat Sep 25 11:09:29 2021
 By Aleksey,,,
Copyright (c) 2004-2009, Joshua Darden &#38; Phil's Fonts, Inc. All rights reserved. Published by Garagefonts USA 301-879-9222 www.garagefonts.com
</metadata>
<defs>
<font id="FreightTextProMedium-Regular" horiz-adv-x="1024" >
  <font-face 
    font-family="FreightTextProMedium-Regular"
    font-weight="400"
    font-stretch="normal"
    units-per-em="2048"
    panose-1="2 0 6 3 7 0 0 2 0 4"
    ascent="1491"
    descent="-557"
    x-height="918"
    cap-height="1280"
    bbox="-401 -553 2826 2015"
    underline-thickness="40"
    underline-position="-312"
    unicode-range="U+0020-FB04"
  />
<missing-glyph 
 />
    <glyph glyph-name="ff" unicode="ff" horiz-adv-x="1255" 
d="M1403 1298q0 -48 -28 -74t-70 -26q-45 0 -83 35q-39 36 -55 100l-2 8l-59 5q-148 -85 -148 -353v-75h281l-14 -103h-267v-700q0 -33 78 -37l111 -6l6 -72h-496l7 72l57 6q70 11 70 39v702h-431v-676q0 -43 48 -49l151 -22l6 -72h-506l7 72l79 22q48 8 48 49v666l-168 10
l12 99h145l2 22q21 210 145 338q124 129 289 129q80 0 133 -37q54 -37 54 -92q0 -49 -28 -75q-26 -25 -70 -25q-46 0 -83 34q-39 36 -55 101l-2 8l-59 4q-148 -85 -148 -352v-55h420l2 43q10 207 139 337q127 129 296 129q80 0 132 -36q54 -37 54 -93z" />
    <glyph glyph-name="fi" unicode="fi" horiz-adv-x="1153" 
d="M1102 0h-445l7 72l57 6q70 6 70 39v698h-431v-700q0 -33 78 -37l111 -6l6 -72h-496l7 72l57 6q70 6 70 39v692l-168 10l12 99h145l2 43q10 211 140 339q128 127 333 127q74 0 138 -38q65 -38 65 -109q0 -45 -29 -74q-28 -28 -71 -28q-105 0 -135 125l-2 8l-117 24
q-146 -83 -146 -342v-75h336l262 26v-829q0 -33 78 -37l60 -6z" />
    <glyph glyph-name="fl" unicode="fl" horiz-adv-x="1153" 
d="M791 815h-431v-700q0 -33 78 -37l111 -6l6 -72h-496l7 72l57 6q70 6 70 39v692l-168 10l12 99h145l2 43q10 211 140 339q128 127 333 127q84 0 144 -45l157 45v-1312q0 -33 78 -37l60 -6l6 -72h-445l7 72l57 6q70 6 70 39v698zM791 1182q-19 -4 -31 -4q-105 0 -135 125
l-2 8l-117 24q-146 -83 -146 -342v-75h431v264z" />
    <glyph glyph-name="ffi" unicode="ffi" horiz-adv-x="1751" 
d="M1294 918l262 26v-829q0 -33 78 -37l60 -6l6 -72h-445l7 72l57 6q70 6 70 39v698h-431v-700q0 -33 78 -37l111 -6l6 -72h-496l7 72l57 6q70 11 70 39v702h-431v-676q0 -43 48 -49l151 -22l6 -72h-506l7 72l79 22q48 8 48 49v666l-168 10l12 99h145l2 22q21 210 145 338
q124 129 289 129q80 0 133 -37q54 -37 54 -92q0 -49 -28 -75q-26 -25 -70 -25q-46 0 -83 34q-39 36 -55 101l-2 8l-59 4q-148 -85 -148 -352v-55h420l2 43q10 211 140 339q128 127 333 127q74 0 138 -38q65 -38 65 -109q0 -46 -28 -74t-72 -28q-105 0 -135 125l-2 8l-117 24
q-146 -83 -146 -342v-75h336z" />
    <glyph glyph-name="ffl" unicode="ffl" horiz-adv-x="1751" 
d="M1389 815h-431v-700q0 -33 78 -37l111 -6l6 -72h-496l7 72l57 6q70 11 70 39v702h-431v-676q0 -43 48 -49l151 -22l6 -72h-506l7 72l79 22q48 8 48 49v666l-168 10l12 99h145l2 22q21 210 145 338q124 129 289 129q80 0 133 -37q54 -37 54 -92q0 -49 -28 -75
q-26 -25 -70 -25q-46 0 -83 34q-39 36 -55 101l-2 8l-59 4q-148 -85 -148 -352v-55h420l2 43q10 211 140 339q128 127 333 127q84 0 144 -45l157 45v-1312q0 -33 78 -37l60 -6l6 -72h-445l7 72l57 6q70 6 70 39v698zM1389 1182q-19 -4 -31 -4q-105 0 -135 125l-2 8l-117 24
q-146 -83 -146 -342v-75h431v264z" />
    <glyph glyph-name=".notdef" 
 />
    <glyph glyph-name=".null" horiz-adv-x="0" 
 />
    <glyph glyph-name="nonmarkingreturn" horiz-adv-x="681" 
 />
    <glyph glyph-name="space" unicode=" " horiz-adv-x="466" 
 />
    <glyph glyph-name="exclam" unicode="!" horiz-adv-x="581" 
d="M399 1221l-86 -820q-1 -12 -20 -12t-21 12l-86 820q-4 41 18 65q21 23 87 23h4q66 0 87 -23t17 -65zM414 92q0 -52 -34 -87q-34 -36 -87 -36t-89 37t-36 86q0 50 36 84q37 35 89 35t87 -35q34 -34 34 -84z" />
    <glyph glyph-name="quotedbl" unicode="&#x22;" horiz-adv-x="757" 
d="M745 1266l-309 -441h-76l220 498h2zM414 1266l-310 -441h-77l219 498h4z" />
    <glyph glyph-name="numbersign" unicode="#" horiz-adv-x="1159" 
d="M1180 827h-285l-102 -381h264v-77h-285l-102 -381h-80l102 381h-350l-102 -381h-80l102 381h-262v77h283l102 381h-262v78h283l106 387h80l-105 -387h349l104 387h80l-105 -387h265v-78zM713 446l102 381h-348l-105 -381h351z" />
    <glyph glyph-name="dollar" unicode="$" horiz-adv-x="1044" 
d="M375 -25l-84 -315h-80l88 326q-72 12 -162 45l-28 364h75l92 -280q24 -12 52 -21l135 500q-71 28 -124 56q-47 25 -100 69t-78 102q-26 61 -26 137q0 141 106 245q106 105 312 106q62 0 100 -2l56 204h79l-57 -213l62 -12l106 29v-408h-80l-59 254q-36 16 -60 23
l-116 -434q27 -10 112 -48q42 -18 100 -53q63 -37 92 -74q31 -39 54 -95q25 -61 25 -130q0 -151 -129 -265q-130 -115 -344 -116q-59 0 -119 6zM535 565q-37 -137 -72.5 -266.5t-48.5 -178.5l-13 -48q76 -16 131 -15q124 1 197 70q72 68 72 158q0 58 -20 104t-61 78
q-40 32 -81 52q-38 19 -104 46zM512 778q2 8 8.5 31.5t10.5 39.5q4 15 16.5 61.5t20.5 76.5q26 95 42 156l17 61q-66 15 -105 15q-107 0 -167 -58q-58 -57 -58 -139q0 -92 55 -146q57 -55 160 -98z" />
    <glyph glyph-name="percent" unicode="%" horiz-adv-x="1527" 
d="M715 987q0 -140 -93 -239t-247 -99q-151 0 -246 99q-94 98 -94 239q0 144 93 243t247 99q155 0 247 -98q93 -99 93 -244zM1339 1309l-1038 -1340h-111l1039 1340h110zM1493 291q0 -144 -93 -243t-247 -99q-155 0 -247 98q-93 99 -93 244q0 140 93 239t247 99
q151 0 246 -99q94 -98 94 -239zM614 987q0 107 -65 178q-66 72 -174 72t-174 -72t-66 -178q0 -101 66 -173q67 -73 174 -73t174 73q65 71 65 173zM1393 291q0 101 -66 173q-67 73 -174 73t-174 -73q-66 -72 -66 -173q0 -106 66 -178t174 -72t174 72t66 178z" />
    <glyph glyph-name="ampersand" unicode="&#x26;" horiz-adv-x="1423" 
d="M1425 111q-137 -144 -274 -144q-108 0 -174 60t-127 184q-80 -102 -195 -172q-116 -70 -239 -70q-170 0 -269 99q-98 98 -98 235q0 122 80 223q79 100 211 156q-95 44 -144 118q-51 77 -51 169q0 140 112 240t275 100q152 0 244 -81t92 -188q0 -214 -260 -327
q211 -100 316 -279q119 162 120 211q2 23 -13 35q-14 11 -46 16l-41 6l-4 70h444l-8 -70l-43 -10q-139 -34 -219 -141l-145 -193q68 -144 124 -198t136 -54q62 0 164 60zM698 1012q0 84 -51 148q-51 65 -141 65q-94 0 -152 -56q-57 -55 -57 -139q0 -100 58 -165t184 -117
q159 80 159 264zM811 295q-62 132 -159 207q-92 72 -251 139q-182 -114 -184 -272q-2 -107 84 -184q85 -76 203 -76q177 0 307 186z" />
    <glyph glyph-name="quotesingle" unicode="'" horiz-adv-x="425" 
d="M414 1266l-310 -441h-77l221 498h2z" />
    <glyph glyph-name="parenleft" unicode="(" horiz-adv-x="808" 
d="M733 -520q-87 43 -178 126q-90 82 -175 199t-138 281q-54 168 -54 342t54 342q53 164 138 281t175 199q91 83 178 126l53 -71q-181 -98 -336 -337t-155 -540t155 -540t336 -334z" />
    <glyph glyph-name="parenright" unicode=")" horiz-adv-x="808" 
d="M78 -520l-55 71q181 98 336 337t155 540t-155 540t-336 337l55 71q91 -45 177 -125q93 -87 174 -199q85 -118 138 -282q54 -168 54 -342t-54 -342q-53 -164 -138 -282q-81 -112 -174 -199q-86 -80 -177 -125z" />
    <glyph glyph-name="asterisk" unicode="*" horiz-adv-x="714" 
d="M705 948l-109 -61l-188 69l-21 -26l123 -156l-23 -125l-43 -12l-92 88l8 199l-30 8l-107 -160l-127 -20l-28 36l57 119l186 49v37l-186 54l-59 114l26 37l131 -18l107 -166l32 10l-4 199l88 86l46 -15l22 -125l-127 -155l21 -27l188 68l109 -62v-45z" />
    <glyph glyph-name="plus" unicode="+" horiz-adv-x="983" 
d="M920 426h-373v-379h-109v379h-375l7 109h368v376h109v-376h366z" />
    <glyph glyph-name="comma" unicode="," horiz-adv-x="475" 
d="M416 47q0 -117 -81 -213q-78 -92 -212 -194l-53 32q72 53 123 123q53 73 53 146q0 33 -17 64t-40 48q-27 20 -48 32q-13 7 -41 20q-16 7 -16 10q0 53 39 89t104 36q69 0 129 -57t60 -136z" />
    <glyph glyph-name="hyphen" unicode="-" horiz-adv-x="671" 
d="M608 426h-540l6 109h528z" />
    <glyph glyph-name="period" unicode="." horiz-adv-x="479" 
d="M377 106q0 -56 -39 -96q-39 -41 -96 -41q-59 0 -100 41q-40 40 -40 96t40 95t100 39t97 -39q38 -40 38 -95z" />
    <glyph glyph-name="slash" unicode="/" horiz-adv-x="571" 
d="M14 -434l441 1796h98l-440 -1796h-99z" />
    <glyph glyph-name="zero" unicode="0" horiz-adv-x="1142" 
d="M1067 481q0 -227 -139 -369q-140 -143 -359 -143t-356 141q-137 142 -137 367q0 228 139 370t358 142q221 0 357 -140q137 -142 137 -368zM938 477q0 172 -103 279q-103 108 -266 108q-161 0 -263 -106q-101 -105 -101 -277q0 -171 103 -278q104 -109 265 -109
q162 0 264 107q101 105 101 276z" />
    <glyph glyph-name="one" unicode="1" horiz-adv-x="776" 
d="M674 0h-543l6 72l131 22q47 15 47 47v695l-225 18l6 61l385 66v-840q0 -39 47 -47l140 -22z" />
    <glyph glyph-name="two" unicode="2" horiz-adv-x="958" 
d="M907 330l-22 -330h-811l-11 119q295 219 386 313q118 122 118 215q0 86 -58 140q-60 55 -157 55q-64 0 -123 -40q-58 -39 -96 -91l-41 22q44 122 140 189q97 67 223 67q124 0 215 -77q90 -76 90 -193q0 -143 -156 -283q-80 -71 -387 -286v-11h90q288 0 375 19
q81 18 119 92l39 80h67z" />
    <glyph glyph-name="three" unicode="3" horiz-adv-x="866" 
d="M453 383v-4q151 -4 249 -88q99 -84 99 -228q0 -185 -160 -330t-367 -145q-107 0 -180 44q-71 43 -71 106q0 44 29 72t71 28q56 0 103 -47q46 -47 57 -108q20 -5 53 -5q109 0 195 82q87 83 87 211q0 130 -74 207q-75 78 -194 78q-85 0 -164 -35l-22 55q42 28 90 58
q76 47 102 67q33 25 79 65q48 42 69 84q20 40 20 87q0 85 -57 145t-150 60q-132 0 -227 -131q-20 5 -41 22q43 121 146 189q101 67 235 67q128 0 211 -75q82 -75 82 -185q0 -97 -64 -181t-206 -165z" />
    <glyph glyph-name="four" unicode="4" horiz-adv-x="980" 
d="M973 41h-221v-418h-166v418h-570l-6 70l666 868h76v-799h235zM586 180v557h-6l-428 -557h434z" />
    <glyph glyph-name="five" unicode="5" horiz-adv-x="870" 
d="M227 520q545 -150 545 -469q0 -189 -150 -326q-151 -137 -352 -137q-109 0 -179 40q-71 41 -71 102q0 42 30 71q31 29 71 29q56 0 102 -44t56 -103q20 -5 53 -5q124 0 207 84q82 83 82 211q0 269 -525 408l148 577h555l-6 -170h-496z" />
    <glyph glyph-name="six" unicode="6" horiz-adv-x="1046" 
d="M958 408q0 -201 -128 -324t-322 -123q-199 0 -314 151q-114 150 -114 357q0 230 127 426q128 197 330 311q203 114 430 129l6 -65q-280 -38 -449 -198q-170 -161 -233 -392l2 -2q134 119 295 119q169 0 270 -112q100 -110 100 -277zM786 350q0 147 -77 242
q-78 96 -195 96q-133 0 -231 -98q-19 -19 -19 -121q0 -167 80 -295q79 -127 211 -127q108 0 170 89q61 88 61 214z" />
    <glyph glyph-name="seven" unicode="7" horiz-adv-x="956" 
d="M913 864l-639 -1241h-112l614 1170v10h-307q-231 0 -260 -12q-17 -7 -33 -39l-57 -123h-68l41 329h811z" />
    <glyph glyph-name="eight" unicode="8" horiz-adv-x="1019" 
d="M938 324q0 -150 -123 -252q-124 -103 -326 -103q-168 0 -287 94q-120 95 -120 240q0 112 77 198q76 85 203 134v2q-116 62 -181 138q-64 74 -64 188q0 131 108 239q109 109 295 109q151 0 258 -92t107 -234q0 -190 -242 -297v-2q143 -73 218 -151q77 -80 77 -211z
M721 985q0 98 -67 182q-66 82 -173 82q-93 0 -152 -63q-59 -64 -59 -152q0 -46 20 -89q20 -42 42 -69q23 -28 75 -62q53 -35 80 -49q15 -8 97 -48q137 95 137 268zM786 254q0 31 -6 58q-7 29 -21 54q-6 10 -16 26t-12 19q-12 19 -42 42q-7 5 -17 12.5t-16.5 12t-10.5 8.5
q-14 11 -55 34l-54 30q-11 6 -62 30q-50 23 -58 28q-168 -129 -168 -305q0 -113 81 -189q82 -77 203 -77q118 0 186 62t68 155z" />
    <glyph glyph-name="nine" unicode="9" horiz-adv-x="1046" 
d="M965 492q0 -230 -127 -426q-129 -199 -330 -312q-203 -114 -430 -129l-6 66q280 38 448 197q171 162 234 393l-2 2q-134 -119 -295 -119q-171 0 -271 111q-100 110 -100 278q0 201 128 324q126 122 323 122q200 0 314 -150t114 -357zM780 492q0 166 -80 294
q-79 127 -211 127q-108 0 -170 -89q-61 -88 -61 -214q0 -145 78 -241q79 -97 194 -97q133 0 232 99q18 18 18 121z" />
    <glyph glyph-name="colon" unicode=":" horiz-adv-x="475" 
d="M377 733q0 -55 -39 -96t-96 -41q-59 0 -100 41q-40 40 -40 96q0 55 40 94q41 39 100 39q60 0 97 -39q38 -40 38 -94zM377 106q0 -56 -39 -96q-39 -41 -96 -41q-59 0 -100 41q-40 40 -40 96t40 95t100 39t97 -39q38 -40 38 -95z" />
    <glyph glyph-name="semicolon" unicode=";" horiz-adv-x="475" 
d="M377 733q0 -55 -39 -96t-96 -41q-59 0 -100 41q-40 40 -40 96q0 55 40 94q41 39 100 39q60 0 97 -39q38 -40 38 -94zM416 47q0 -117 -81 -213q-78 -92 -212 -194l-53 32q72 53 123 123q53 73 53 146q0 33 -17 64t-40 48q-27 20 -48 32q-13 7 -41 20q-16 7 -16 10
q0 53 39 89t104 36q69 0 129 -57t60 -136z" />
    <glyph glyph-name="less" unicode="&#x3c;" horiz-adv-x="983" 
d="M881 68l-824 387v53l824 387l26 -100l-663 -310v-6l663 -311z" />
    <glyph glyph-name="equal" unicode="=" horiz-adv-x="983" 
d="M893 604h-803l-6 109h815zM899 248h-815l6 108h803z" />
    <glyph glyph-name="greater" unicode="&#x3e;" horiz-adv-x="983" 
d="M926 455l-824 -387l-26 100l663 311v6l-663 310l26 100l824 -387v-53z" />
    <glyph glyph-name="question" unicode="?" horiz-adv-x="743" 
d="M666 963q0 -115 -52 -169t-170 -100q-113 -45 -143 -76q-27 -28 -27 -69q0 -73 95 -168h-62q-139 114 -139 229q0 98 56 144q58 47 179 96q86 35 92 38q27 13 55 38q30 27 30 57q0 67 -91 113q-90 45 -225 45q-54 0 -137 -15q-23 29 -23 68q0 48 46 82q45 33 118 33
q160 0 280 -106q118 -105 118 -240zM438 92q0 -52 -34 -87q-34 -36 -87 -36t-89 37q-35 36 -35 86t35 84q37 35 89 35t87 -35q34 -34 34 -84z" />
    <glyph glyph-name="at" unicode="@" horiz-adv-x="1708" 
d="M1008 272l55 234h-29q-212 -402 -348 -402q-82 0 -146 63q-65 63 -65 128q0 121 72 294t162 263q106 106 221 106q67 0 118 -38t72 -111h23l45 121h108l-118 -334l-37 -334q-21 -106 106 -106q132 0 224 116q93 117 108 308q21 271 -165 454t-474 193q-282 7 -497 -191
q-214 -198 -232 -483q-21 -315 171 -522t476 -207q117 0 252 39l23 -74q-143 -47 -279 -47q-322 0 -539 230t-194 583q21 322 261 542q240 221 562 210q327 -11 536 -217q210 -207 189 -515q-16 -230 -150 -364q-133 -133 -305 -133q-87 0 -137 19t-65 54t-15 61q0 25 11 60
zM1073 723q-20 42 -81 89q-59 46 -122 46q-49 0 -73 -24q-55 -55 -107 -225q-53 -173 -53 -283q0 -53 35 -83q34 -30 69 -30q37 0 124 126q83 120 175 284q33 60 33 100z" />
    <glyph glyph-name="A" unicode="A" horiz-adv-x="1228" 
d="M1262 0h-557l6 72l100 16q27 6 42 14q13 7 13 35q0 27 -9 60q-3 13 -32 104l-51 160h-422l-49 -158q-33 -90 -40 -123q-9 -40 0 -63t44 -29l82 -16l6 -72h-428l6 72l58 14q47 11 74 39q29 31 64 108q30 65 101 265l238 665v74l184 86l387 -1180q15 -42 66 -49l110 -22z
M748 547l-170 551h-13l-184 -551h367z" />
    <glyph glyph-name="B" unicode="B" horiz-adv-x="1191" 
d="M1124 346q0 -166 -137 -256t-377 -90h-526l6 72l84 10q72 8 72 37v1046q0 15 -14 21t-58 12l-84 10l-6 72h537q240 0 345 -78t105 -205q0 -122 -89 -214q-87 -90 -232 -113v-11q192 -17 282 -104q92 -89 92 -209zM915 330q0 140 -102 213q-101 73 -272 73h-101v-507
l142 -31l49 2q117 4 200 70q84 66 84 180zM858 942q0 122 -77 191q-76 69 -232 69h-109v-506l138 2q142 1 212 76q68 72 68 168z" />
    <glyph glyph-name="C" unicode="C" horiz-adv-x="1396" 
d="M1270 395l-45 -395l-105 18q-138 -49 -311 -49q-313 0 -513 175q-202 176 -202 483q0 313 205 497q206 185 516 185q158 0 283 -41l164 30v-419h-95l-55 262q-136 82 -307 82q-219 0 -356 -161q-138 -162 -138 -409q0 -270 138 -437q137 -165 382 -165q140 0 252 62
l88 282h99z" />
    <glyph glyph-name="D" unicode="D" horiz-adv-x="1406" 
d="M1315 672q0 -289 -201 -481q-200 -191 -569 -191h-461l6 72l84 10q72 8 72 37v1046q0 15 -14 21t-58 12l-84 10l-6 72l469 6q339 4 551 -170q211 -174 211 -444zM1104 618q0 265 -157 425q-156 159 -445 159h-62v-1091l148 -31q243 0 379 151q137 152 137 387z" />
    <glyph glyph-name="E" unicode="E" horiz-adv-x="1216" 
d="M1126 371l-39 -371h-1003l6 72l84 10q72 8 72 37v1046q0 15 -14 21t-58 12l-84 10l-6 72h1006v-381h-99l-49 199q-15 51 -43 69q-29 19 -105 26q-71 7 -280 7h-74v-510h56q123 0 155 7q34 7 45 38l47 137h80l-43 -440h-78l-16 131q-5 31 -37 40q-33 9 -160 9h-49v-532h58
q207 0 301 8q86 7 119 27q32 19 49 67l49 189h110z" />
    <glyph glyph-name="F" unicode="F" horiz-adv-x="1155" 
d="M1067 899h-98l-45 199q-11 34 -22 48q-14 17 -32 29q-19 12 -72 17q-52 4 -116 6q-84 2 -190 2h-52v-522h78q124 0 156 7q35 8 47 38l47 137h80l-45 -440h-76l-16 131q-5 31 -38 40q-35 9 -159 9h-74v-485q0 -25 72 -33l125 -10l6 -72h-559l6 72l84 10q72 8 72 37v1046
q0 15 -14 21t-58 12l-84 10l-6 72h983v-381z" />
    <glyph glyph-name="G" unicode="G" horiz-adv-x="1466" 
d="M1421 567l-6 -71l-88 -11q-72 -7 -72 -36v-308l123 -12l4 -55q-296 -105 -573 -105q-311 0 -513 176t-202 482q0 312 215 497t527 185q158 0 278 -41l164 30v-419h-96l-56 262q-128 82 -307 82q-217 0 -362 -162q-146 -163 -146 -408q0 -273 133 -437q134 -165 371 -165
q139 0 250 51v351q0 14 -14 21q-13 6 -58 11l-104 11l-6 71h538z" />
    <glyph glyph-name="H" unicode="H" horiz-adv-x="1509" 
d="M1425 0h-518l6 72l84 10q72 8 72 37v493h-629v-497q0 -25 72 -33l84 -10l6 -72h-518l6 72l84 10q72 8 72 37v1046q0 15 -14 21t-58 12l-84 10l-6 72h518l-6 -72l-84 -10q-72 -8 -72 -37v-463h629v467q0 15 -14 22q-13 6 -58 11l-84 10l-6 72h518l-6 -72l-84 -10
q-71 -7 -71 -37v-1046q0 -15 13 -21q14 -6 58 -12l84 -10z" />
    <glyph glyph-name="I" unicode="I" horiz-adv-x="737" 
d="M649 0h-559l6 72l105 10q71 7 71 37v1046q0 15 -13 21q-14 6 -58 12l-105 10l-6 72h559l-6 -72l-104 -10q-72 -8 -72 -37v-1046q0 -25 72 -33l104 -10z" />
    <glyph glyph-name="J" unicode="J" horiz-adv-x="831" 
d="M786 1280l-6 -72l-102 -10q-72 -8 -72 -37v-626q0 -278 -100 -421q-101 -145 -287 -145q-89 0 -148 38t-59 93q0 43 28 69t75 26q54 0 100 -43q35 -34 57 -111h2q49 16 76 49q26 32 44 130t18 276v669q0 15 -15 22q-13 6 -57 11l-125 10l-6 72h577z" />
    <glyph glyph-name="K" unicode="K" horiz-adv-x="1308" 
d="M1300 0h-479l6 72l70 14q30 6 -4 57l-330 482l-123 -117v-393q0 -25 72 -33l84 -10l6 -72h-518l6 72l84 10q72 8 72 37v1046q0 15 -14 21t-58 12l-84 10l-6 72h518l-6 -72l-84 -10q-72 -8 -72 -37v-538l377 366q181 176 84 205q-2 0 -10 1.5t-14 2.5l-84 10l-7 72h519
l-7 -72l-69 -10q-46 -7 -93 -36q-45 -28 -116 -99l-326 -320l416 -571q41 -56 61 -70q21 -16 64 -22l59 -8z" />
    <glyph glyph-name="L" unicode="L" horiz-adv-x="1175" 
d="M1102 410l-45 -410h-973l6 72l84 10q72 8 72 37v1046q0 15 -14 21t-58 12l-84 10l-6 72h537l-7 -72l-102 -10q-72 -8 -72 -37v-1081h64q187 0 273 8q79 7 112 27q31 19 47 67l59 228h107z" />
    <glyph glyph-name="M" unicode="M" horiz-adv-x="1751" 
d="M1688 0h-543l6 72l115 14q31 5 40 88q9 80 1 315l-25 662h-14l-398 -1110h-98l-387 1065h-25l-26 -608q-12 -278 -9 -344q3 -67 33 -68l117 -14l6 -72h-444l6 72l115 14q22 4 36 27q13 22 25 113q13 98 23 272l26 503q8 163 -82 185l-123 22l-6 72h467l346 -958h11
l336 958h452l-6 -72l-139 -12q-49 -6 -49 -59l24 -648q7 -236 22 -321q13 -78 46 -82l114 -14z" />
    <glyph glyph-name="N" unicode="N" horiz-adv-x="1540" 
d="M1473 1280l-7 -72l-96 -16q-36 -6 -50 -16q-15 -10 -27 -57q-11 -44 -13 -115q-2 -92 -2 -222v-800h-105l-808 1103h-11v-587q0 -130 2 -222q1 -66 14 -115q12 -48 25 -57q14 -10 49 -16l99 -16l6 -72h-469l6 72l96 16q36 6 50 16q15 10 27 57q11 44 13 115q2 92 2 222
v503q0 87 -19 129q-19 43 -69 64l-96 14l-6 72h371l731 -1001h10v503q0 317 -22 365q-16 37 -68 45l-98 16l-7 72h472z" />
    <glyph glyph-name="O" unicode="O" horiz-adv-x="1525" 
d="M1432 645q0 -277 -196 -478q-195 -200 -476 -200q-287 0 -476 186q-190 187 -190 474q0 277 196 479q195 201 476 201q287 0 476 -186q190 -187 190 -476zM1214 623q0 273 -133 439q-134 167 -323 167q-191 0 -319 -155t-128 -423q0 -275 132 -441q132 -167 323 -167
q190 0 319 156t129 424z" />
    <glyph glyph-name="P" unicode="P" horiz-adv-x="1173" 
d="M1110 938q0 -203 -142 -312q-143 -110 -360 -110q-50 0 -168 8v-409q0 -25 72 -33l123 -10l6 -72h-557l6 72l84 10q72 8 72 37v1046q0 15 -14 21t-58 12l-84 10l-6 72h526q240 0 370 -97t130 -245zM901 897q0 138 -80 221q-79 82 -215 82h-166v-588q74 -18 156 -18
q135 0 220 82t85 221z" />
    <glyph glyph-name="Q" unicode="Q" horiz-adv-x="1525" 
d="M1544 -328q-115 -41 -266 -41q-207 0 -330 78q-124 78 -215 258q-277 7 -459 192q-180 183 -180 468q0 277 196 479q195 201 476 201q287 0 476 -186q190 -187 190 -476q0 -226 -133 -406t-341 -243q100 -173 239 -226q138 -53 341 -30zM1214 623q0 273 -133 439
q-134 167 -323 167q-191 0 -319 -155t-128 -423q0 -275 132 -441q132 -167 323 -167q190 0 319 156t129 424z" />
    <glyph glyph-name="R" unicode="R" horiz-adv-x="1239" 
d="M791 610l262 -405q53 -73 74 -91q27 -22 59 -28l63 -14l8 -72h-329l-78 141l-246 430l-164 -6v-450q0 -25 72 -33l100 -10l6 -72h-534l6 72l84 10q72 8 72 37v1046q0 15 -14 21t-58 12l-84 10l-6 72h530q236 0 353 -84q116 -83 116 -231q0 -129 -78 -217
q-82 -92 -214 -138zM870 926q0 141 -75 209q-76 69 -224 61l-131 -4v-537l146 -12q132 10 209 81q75 69 75 202z" />
    <glyph glyph-name="S" unicode="S" horiz-adv-x="1058" 
d="M967 350q0 -151 -131 -265t-349 -116q-172 -1 -362 62l-29 364h86l92 -280q132 -64 250 -60q124 1 196 70q71 68 71 160q0 50 -19 96q-18 43 -42 69q-23 25 -74 54q-49 28 -81 41q-11 4 -45.5 17.5t-54.5 21.5q-67 27 -108 45q-46 20 -94 52q-51 34 -82 69q-28 32 -50 89
q-20 51 -20 119q0 142 108 245q109 104 318 106q113 1 246 -23l106 29v-408h-86l-63 262q-114 50 -232 50q-107 0 -168 -58q-59 -56 -59 -139q0 -37 8 -71q7 -31 35 -60q30 -31 39 -43q12 -15 63 -39q58 -27 62 -29q3 -1 12 -4.5t26.5 -10.5t36.5 -15q17 -6 25 -11
q82 -32 113 -46q40 -18 98 -54q54 -33 85 -71q31 -37 51 -92q22 -60 22 -126z" />
    <glyph glyph-name="T" unicode="T" horiz-adv-x="1267" 
d="M1196 879h-98l-47 198q-16 53 -34 73q-20 22 -84 35q-65 13 -198 15h-4v-1085q0 -25 72 -33l123 -10l6 -72h-596l6 72l123 10q72 8 72 37v1081h-5q-195 0 -247 -17q-55 -18 -76 -85l-57 -219h-103l35 401h1112v-401z" />
    <glyph glyph-name="U" unicode="U" horiz-adv-x="1462" 
d="M1413 1280l-6 -72l-96 -16q-36 -6 -50 -16q-15 -10 -27 -57q-11 -44 -13 -115q-2 -92 -2 -222v-364q0 -206 -133 -328q-131 -121 -361 -121q-233 0 -361 116t-128 343v737q0 15 -14 21t-58 12l-84 10l-6 72h518l-6 -72l-84 -10q-72 -8 -72 -37v-688q0 -389 367 -389
q160 0 250 94t90 260v344q0 314 -23 365q-17 38 -67 45l-99 16l-6 72h471z" />
    <glyph glyph-name="V" unicode="V" horiz-adv-x="1282" 
d="M1317 1280l-6 -72l-58 -14q-71 -16 -109 -81q-37 -63 -132 -331l-277 -784h-192l-396 1139q-15 42 -63 49l-113 22l-6 72h557l-6 -72l-100 -16q-47 -8 -49 -39q0 -28 49 -174l270 -819h23l213 622q81 254 75 333q-6 75 -90 87l-49 6l-6 72h465z" />
    <glyph glyph-name="W" unicode="W" horiz-adv-x="1894" 
d="M1921 1280l-6 -72l-45 -14q-50 -16 -73 -40q-23 -22 -57 -102q-37 -84 -98 -270l-256 -784h-122l-289 862h-6l-310 -862h-124l-385 1139q-15 42 -64 49l-113 22l-6 72h559l-6 -72l-102 -16q-47 -8 -47 -41q0 -25 47 -172l229 -721h10l267 727l-52 152q-15 42 -65 49
l-107 22l-6 72h551l-6 -72l-106 -16q-24 -5 -33 -14q-10 -10 -9 -37q2 -30 10 -62q7 -26 32 -100l231 -723l10 2l164 524q56 184 72 267q15 78 -1 105q-15 26 -71 38l-82 16l-6 72h471z" />
    <glyph glyph-name="X" unicode="X" horiz-adv-x="1284" 
d="M1286 0h-536l6 72l84 12q60 8 45 53q-10 31 -97 164l-178 270h-10l-219 -335q-101 -134 4 -152l68 -12l6 -72h-453l6 72l74 16q46 10 81 41q35 30 87 102l297 408l-348 498q-31 41 -72 49l-98 22l-6 72h536l-6 -72l-80 -12q-61 -10 -51 -51q8 -32 96 -168l146 -219h10
l188 286q90 134 -4 152l-69 12l-7 72h449l-6 -72l-72 -16q-48 -11 -85 -42t-87 -101l-256 -359l383 -547q28 -38 72 -49l96 -22z" />
    <glyph glyph-name="Y" unicode="Y" horiz-adv-x="1232" 
d="M1241 1280l-6 -72l-29 -8q-59 -17 -102 -49q-42 -31 -88 -102l-289 -488v-446q0 -25 72 -33l123 -10l6 -72h-598l6 72l125 10q71 7 71 37v413l-368 586q-43 59 -109 74l-65 16l-6 72h524l-6 -72l-82 -12q-26 -5 -34 -17q-9 -14 -5 -39q5 -28 22 -65q13 -29 54 -96
l205 -338h10l229 403q45 73 40 109q-4 34 -58 45l-49 10l-7 72h414z" />
    <glyph glyph-name="Z" unicode="Z" horiz-adv-x="1169" 
d="M1126 385l-43 -385h-1003v74l799 1116v10h-238q-170 0 -248 -15q-76 -15 -101 -40q-23 -23 -46 -88l-41 -170h-88v393h987v-76l-797 -1116l-2 -10l248 2q181 0 263 13q85 13 111 35q24 20 46 77l49 180h104z" />
    <glyph glyph-name="bracketleft" unicode="[" horiz-adv-x="753" 
d="M713 -455h-520v1788h520v-90h-416v-1608h416v-90z" />
    <glyph glyph-name="backslash" unicode="\" horiz-adv-x="571" 
d="M555 -434h-98l-441 1796h99z" />
    <glyph glyph-name="bracketright" unicode="]" horiz-adv-x="753" 
d="M41 -455v90h416v1608h-416v90h520v-1788h-520z" />
    <glyph glyph-name="asciicircum" unicode="^" horiz-adv-x="819" 
d="M670 1044h-56l-202 222h-4l-203 -222h-55l217 383h86z" />
    <glyph glyph-name="underscore" unicode="_" horiz-adv-x="962" 
d="M981 -109h-999l6 109h987z" />
    <glyph glyph-name="grave" unicode="`" horiz-adv-x="819" 
d="M508 1044h-45l-346 383h200z" />
    <glyph glyph-name="a" unicode="a" horiz-adv-x="917" 
d="M918 104q-107 -137 -201 -137q-129 0 -137 150h-11q-134 -148 -254 -148q-97 0 -172 70q-73 69 -73 170q0 126 121 205q122 80 391 143v18q0 158 -51 220q-49 59 -148 59q-51 0 -100 -16q-52 -17 -52 -31q0 -2 12 -17q8 -10 23 -38q13 -24 13 -47q0 -41 -30 -70
q-31 -29 -79 -29q-46 0 -77 28q-30 27 -30 68q0 76 135 162q134 86 255 86q181 0 244 -90q63 -91 53 -332l-15 -348q-5 -80 47 -80q37 0 101 50zM567 184l11 305q-190 -47 -263 -105t-73 -132q0 -68 43 -111t104 -43q81 0 178 86z" />
    <glyph glyph-name="b" unicode="b" horiz-adv-x="1054" 
d="M989 494q0 -213 -130 -368q-131 -157 -349 -157q-40 0 -116 15q-82 16 -115 30h-3l-98 -57h-24v1227q0 39 -23 47l-137 57l6 51l322 88v-645h10q135 152 293 152q167 0 266 -126q98 -125 98 -314zM807 418q0 168 -71 271q-70 102 -183 102q-132 0 -231 -121v-492
q113 -125 233 -125q101 0 177 103q75 102 75 262z" />
    <glyph glyph-name="c" unicode="c" horiz-adv-x="901" 
d="M850 203q-57 -113 -155 -173q-99 -61 -218 -61q-181 0 -296 132q-115 131 -115 327q0 225 143 372q144 148 342 148q133 0 212 -58t79 -138q0 -59 -35 -85t-80 -26q-59 0 -92 57t-17 133v5q-44 32 -112 32q-115 0 -190 -94q-74 -93 -74 -252q0 -174 90 -290
q90 -115 227 -115q154 0 250 108z" />
    <glyph glyph-name="d" unicode="d" horiz-adv-x="1075" 
d="M1061 57l-6 -51l-322 -37v142h-6q-122 -140 -281 -140q-164 0 -272 130q-108 131 -108 329q0 207 137 358q137 150 360 150q75 0 168 -29h2v328q0 40 -22 47l-146 43l8 51l328 49v-1282q0 -39 23 -47zM733 195v524q-114 131 -233 131q-112 0 -182 -97t-70 -255
q0 -175 77 -281q76 -104 205 -104q112 0 203 82z" />
    <glyph glyph-name="e" unicode="e" horiz-adv-x="944" 
d="M850 203q-57 -113 -155 -173q-99 -61 -218 -61q-181 0 -296 132q-115 131 -115 327q0 226 138 373t339 147q145 0 232 -84t87 -223q0 -61 -12 -111l-608 9v-23q0 -177 90 -288t227 -111q154 0 250 108zM674 604q8 125 -41 196q-49 72 -135 72q-88 0 -160 -72t-90 -196
h426z" />
    <glyph glyph-name="f" unicode="f" horiz-adv-x="657" 
d="M805 1298q0 -48 -28 -74t-70 -26q-45 0 -83 35q-39 36 -55 100l-2 8l-59 5q-148 -85 -148 -353v-75h281l-14 -103h-267v-700q0 -33 78 -37l111 -6l6 -72h-496l7 72l57 6q70 6 70 39v692l-168 10l12 99h145l2 43q10 207 139 337q127 129 295 129q81 0 133 -36
q54 -37 54 -93z" />
    <glyph glyph-name="g" unicode="g" horiz-adv-x="962" 
d="M973 764l-223 39v-12q57 -76 57 -170q0 -136 -107 -232q-106 -96 -256 -96q-69 0 -122 14q-33 -17 -60 -42q-29 -27 -29 -54q0 -42 38 -69q37 -27 94 -27q49 0 131 3t110 3q124 0 212 -80q87 -80 87 -195q0 -162 -148 -265t-380 -103q-163 0 -259 65q-98 66 -98 174
q0 157 199 240v8q-58 10 -99 57q-40 46 -40 97q0 58 47 113q46 53 121 87q0 9 8 11q-174 82 -174 282q0 144 105 240t262 96q123 0 245 -57h279v-127zM637 614q0 143 -70 213q-52 52 -118 52q-85 0 -139 -66t-54 -168q0 -153 84 -237q46 -46 104 -46q83 0 129 46
q64 62 64 206zM750 -231q0 176 -215 184q-50 2 -119 -1q-76 -3 -115 -3q-39 -15 -81 -63t-42 -113q0 -98 81 -158q80 -59 212 -59q125 0 202 60t77 153z" />
    <glyph glyph-name="h" unicode="h" horiz-adv-x="1087" 
d="M1065 0h-440l6 72l53 6q70 5 70 39v428q0 146 -46 204t-143 58q-109 0 -227 -86v-606q0 -33 78 -37l69 -6l7 -72h-455l6 72l57 6q70 6 70 39v1067q0 39 -23 47l-137 57l6 51l322 88v-624h10q175 145 328 145q105 0 168 -63q78 -78 78 -230v-538q0 -18 16 -25
q18 -8 68 -14l53 -6z" />
    <glyph glyph-name="i" unicode="i" horiz-adv-x="557" 
d="M369 1245q0 -51 -29 -86t-82 -35t-82 35t-29 86t29 86t82 35t82 -35t29 -86zM506 0h-445l7 72l57 6q70 6 70 39v518q0 93 -16 123q-15 28 -73 43l-49 12l2 55l303 80v-833q0 -33 78 -37l60 -6z" />
    <glyph glyph-name="j" unicode="j" horiz-adv-x="526" 
d="M362 1245q0 -52 -28 -86q-29 -35 -82 -35t-82 35t-29 86t29 86t82 35t82 -35q28 -34 28 -86zM356 -49q-15 -217 -123 -351q-109 -135 -221 -135q-64 0 -107 32q-42 31 -42 91q0 43 34 73q35 30 74 30q95 0 146 -115q71 30 71 246v813q0 95 -15 123t-73 43l-49 12l2 55
l303 80v-997z" />
    <glyph glyph-name="k" unicode="k" horiz-adv-x="1007" 
d="M993 0h-293l-110 184l-170 256l-82 -75v-250q0 -17 15 -24q13 -7 63 -13l49 -6l6 -72h-434l6 72l57 6q70 8 70 39v1067q0 39 -23 47l-137 57l6 51l322 88v-958l141 131q133 122 154 162q8 18 8 29q0 42 -80 53l-31 4l-6 70h443l-6 -70l-31 -6q-54 -8 -111 -48
q-57 -41 -178 -151l-100 -92l274 -381q63 -85 105 -90l67 -8z" />
    <glyph glyph-name="l" unicode="l" horiz-adv-x="557" 
d="M506 0h-445l7 72l57 6q70 6 70 39v1067q0 39 -23 47l-137 57l6 51l321 88v-1312q0 -33 78 -37l60 -6z" />
    <glyph glyph-name="m" unicode="m" horiz-adv-x="1662" 
d="M1632 0h-440l6 72l53 6q70 5 70 39v428q0 262 -188 262q-99 0 -209 -94q2 -24 2 -58v-538q0 -18 16 -25q18 -8 68 -14l53 -6l6 -72h-440l6 72l53 6q70 5 70 39v428q0 262 -189 262q-89 0 -207 -86v-606q0 -33 78 -37l70 -6l6 -72h-455l7 72l57 6q70 6 70 39v518
q0 93 -16 123q-15 28 -73 43l-49 12l2 55l303 80v-145h7q166 145 311 145q105 0 168 -63q41 -41 59 -97h8q175 160 328 160q105 0 168 -63q78 -78 78 -230v-538q0 -18 16 -25q18 -8 68 -14l53 -6z" />
    <glyph glyph-name="n" unicode="n" horiz-adv-x="1120" 
d="M1090 0h-441l6 72l54 6q69 4 69 39v428q0 146 -46 204t-142 58q-110 0 -228 -86v-606q0 -33 78 -37l70 -6l6 -72h-455l7 72l57 6q70 6 70 39v518q0 93 -16 123q-15 28 -73 43l-49 12l2 55l303 80v-145h11q175 145 327 145q105 0 168 -63q78 -78 78 -230v-538
q0 -17 17 -25q18 -8 67 -14l53 -6z" />
    <glyph glyph-name="o" unicode="o" horiz-adv-x="1060" 
d="M995 485q0 -216 -139 -365q-140 -151 -344 -151q-201 0 -324 140q-122 138 -122 346q0 206 141 350q140 143 344 143q195 0 320 -132q124 -131 124 -331zM809 399q0 272 -109 387q-72 78 -178 78q-116 0 -193 -93q-77 -94 -77 -253q0 -271 110 -387q72 -78 179 -78
q112 0 190 93t78 253z" />
    <glyph glyph-name="p" unicode="p" horiz-adv-x="1075" 
d="M1010 494q0 -212 -129 -368q-130 -157 -349 -157q-92 0 -188 29h-2v-387q0 -33 78 -37l80 -6l6 -72h-465l6 72l57 6q70 6 70 39v1022q0 95 -15 123t-73 43l-49 12l2 55l303 80v-166h10q135 152 293 152q167 0 266 -126t99 -314zM827 418q0 170 -70 271q-71 102 -184 102
q-132 0 -231 -121v-492q113 -125 233 -125q102 0 178 103q74 101 74 262z" />
    <glyph glyph-name="q" unicode="q" horiz-adv-x="1052" 
d="M1044 -504h-464l6 72l78 6q69 4 69 39v498h-6q-122 -140 -281 -140q-164 0 -272 130q-108 131 -108 329q0 207 137 358q137 150 360 150q102 0 213 -45h2l99 57h24v-1337q0 -17 17 -25q18 -8 67 -14l53 -6zM733 195v524q-114 131 -233 131q-112 0 -182 -97t-70 -255
q0 -175 77 -281q76 -104 205 -104q112 0 203 82z" />
    <glyph glyph-name="r" unicode="r" horiz-adv-x="788" 
d="M774 834q0 -50 -28 -83q-27 -32 -78 -32q-62 0 -105 67q-127 -74 -201 -219v-452q0 -33 78 -37l80 -6l6 -72h-465l7 72l57 6q70 6 70 39v518q0 93 -16 123q-15 28 -73 43l-49 12l2 55l303 80v-262h11q88 143 148 203q59 59 130 59q56 0 90 -32q33 -32 33 -82z" />
    <glyph glyph-name="s" unicode="s" horiz-adv-x="831" 
d="M748 266q0 -123 -98 -210t-261 -87q-165 0 -276 43l-13 271h103l47 -181q80 -57 164 -57q68 0 127 46t59 118q0 30 -14 52q-15 24 -30 39q-16 16 -53 35q-27 14 -58 26l-70 28q-65 25 -102 44q-44 23 -82 53q-44 35 -65 81q-22 49 -22 111q0 108 89 191t239 83
q115 0 205 -34l63 26l13 -291h-101l-41 170q-67 51 -155 51q-69 0 -115 -37q-47 -38 -47 -98q0 -63 48 -98t171 -84q61 -23 101 -44q38 -19 84 -54q47 -35 68 -83q22 -50 22 -110z" />
    <glyph glyph-name="t" unicode="t" horiz-adv-x="729" 
d="M692 102q-55 -61 -132 -97t-148 -36q-112 0 -178 71q-66 70 -64 218l14 551l-166 10l2 62l134 110l133 113l65 -12l-2 -174h336l-14 -103h-320l-16 -512q-6 -201 176 -201q77 0 170 52z" />
    <glyph glyph-name="u" unicode="u" horiz-adv-x="1083" 
d="M1069 57l-6 -51l-322 -37v146h-10q-176 -146 -328 -146q-103 0 -167 64q-78 78 -78 229l6 539q0 8 -2 16q-1 5 -5 9q-3 3 -12 5l-15 3q-1 0 -25 2q-7 1 -17 2.5t-14 1.5l-49 6l-7 72h324l-16 -545q0 -146 46 -204t142 -58q109 0 227 86v606q0 17 -15 24q-17 9 -62 13
l-80 6l-9 72h334v-773q0 -39 23 -47z" />
    <glyph glyph-name="v" unicode="v" horiz-adv-x="958" 
d="M993 918l-6 -70l-51 -14q-44 -6 -69 -34q-22 -25 -58 -118l-270 -700h-105l-315 772q-17 42 -38 56q-19 14 -69 21l-47 13l-8 74h461l-6 -72l-58 -8q-71 -10 -47 -74l228 -580l186 512q29 70 21 101t-60 37l-57 14l-7 70h375z" />
    <glyph glyph-name="w" unicode="w" horiz-adv-x="1425" 
d="M1458 918l-6 -70l-43 -10q-53 -8 -77 -35t-54 -121l-227 -700h-99l-227 593l-238 -593h-98l-274 772q-16 41 -35 59q-18 17 -60 23l-45 8l-6 74h434l-6 -72l-47 -8q-75 -10 -51 -78l195 -563l186 487l-25 70q-16 42 -35 57q-20 16 -69 23l-47 12l-6 72h442l-6 -70
l-47 -10q-75 -6 -51 -78l202 -570l150 492q24 78 13 113q-12 37 -75 45l-41 8l-6 70h379z" />
    <glyph glyph-name="x" unicode="x" horiz-adv-x="985" 
d="M987 0h-442l6 70l41 12q48 11 49 34q2 24 -43 85l-135 188h-2l-142 -188q-35 -45 -45 -69t0 -36q10 -11 48 -16l53 -10l6 -70h-393l6 70l59 12q43 6 74 31q30 24 98 104l189 229l-193 254q-56 76 -88 101q-32 26 -78 33l-45 12l-6 72h447l-7 -70l-41 -12q-48 -8 -46 -32
q1 -23 49 -87l110 -156h2l117 156q33 44 43 66q10 24 0 37q-10 14 -45 18l-53 10l-7 70h400l-6 -70l-60 -12q-49 -6 -80 -31q-28 -22 -98 -105l-162 -196l213 -287q56 -73 87 -99q33 -27 73 -34l41 -12z" />
    <glyph glyph-name="y" unicode="y" horiz-adv-x="940" 
d="M991 918l-6 -70l-53 -14q-44 -6 -69 -34q-22 -25 -58 -118l-240 -631l-102 -313q-46 -143 -99 -208t-137 -65q-64 0 -101 31q-36 30 -36 82q0 47 26 78t74 31q78 0 121 -66q36 17 80 135l86 240v4l-364 754q-21 43 -38 56q-18 14 -67 21l-43 13l-8 74h451l-7 -72l-51 -8
q-75 -7 -45 -74l246 -543l168 475q24 73 14 102q-11 30 -65 36l-56 14l-6 70h385z" />
    <glyph glyph-name="z" unicode="z" horiz-adv-x="950" 
d="M850 850l-578 -774h82q212 0 280 23q70 24 109 104l72 147h98l-84 -350h-768v68l582 774h-51q-211 0 -275 -23q-63 -22 -79 -104l-39 -148h-103v351h754v-68z" />
    <glyph glyph-name="braceleft" unicode="{" horiz-adv-x="688" 
d="M618 -481q-189 10 -293 91q-106 82 -106 218q0 88 61 210q60 120 60 185q0 146 -268 158l-23 59l23 58q268 7 268 157q0 66 -60 186q-61 122 -61 212q0 137 105 218q104 81 294 91v-72q-116 -10 -184 -63q-67 -52 -67 -127q0 -66 60 -187t60 -213q0 -98 -86 -173
q-85 -74 -176 -76v-25q91 -5 176 -78q86 -74 86 -172q0 -91 -60 -209q-60 -119 -60 -184q0 -73 67 -130q67 -56 184 -67v-67z" />
    <glyph glyph-name="bar" unicode="|" horiz-adv-x="565" 
d="M236 -383v1796h94v-1796h-94z" />
    <glyph glyph-name="braceright" unicode="}" horiz-adv-x="688" 
d="M639 440l-23 -59q-268 -12 -268 -158q0 -63 61 -185q60 -120 60 -210q0 -137 -105 -218q-104 -80 -294 -91v67q117 11 184 67q68 57 68 130q0 64 -61 184q-60 119 -60 209q0 98 86 172q85 73 176 78v25q-91 2 -176 76q-86 75 -86 173q0 92 60 213q61 124 61 187
q0 74 -68 127t-184 63v72q191 -11 295 -91t104 -218q0 -92 -60 -212q-61 -122 -61 -186q0 -150 268 -157z" />
    <glyph glyph-name="asciitilde" unicode="~" horiz-adv-x="819" 
d="M745 592q-41 -252 -200 -252q-73 0 -177 75q-102 74 -137 74q-29 0 -51 -28q-23 -30 -53 -105h-53q40 252 200 252q57 0 119 -38q73 -45 112 -74q49 -37 83 -37q29 0 51 28q23 30 53 105h53z" />
    <glyph glyph-name="nbspace" unicode="&#xa0;" horiz-adv-x="466" 
 />
    <glyph glyph-name="exclamdown" unicode="&#xa1;" horiz-adv-x="581" 
d="M414 1186q0 -50 -34 -84q-35 -35 -87 -35t-89 35q-36 34 -36 84q0 48 36 86q36 37 89 37t87 -36q34 -35 34 -87zM399 57q4 -42 -17 -65t-87 -23h-4q-66 0 -87 23q-22 24 -18 65l86 820q2 12 21 12t20 -12z" />
    <glyph glyph-name="cent" unicode="&#xa2;" horiz-adv-x="909" 
d="M457 -29l-84 -311h-80l88 326q-141 39 -228 168t-87 295q0 221 142 360t343 139q49 0 86 -8l96 360h80l-102 -380q62 -27 97 -72q34 -44 34 -96q0 -45 -28 -73t-60 -28q-70 0 -103 49l-39 -143q-7 -25 -75 -287l-39 -143q36 -10 73 -10q144 0 240 108l41 -22
q-56 -109 -153 -172q-95 -62 -210 -62q-18 0 -32 2zM426 154l182 682q-43 26 -102 26q-115 0 -190 -91q-74 -90 -74 -249q0 -125 49 -223t135 -145z" />
    <glyph glyph-name="sterling" unicode="&#xa3;" horiz-adv-x="976" 
d="M279 612q0 6 -4 100q-3 70 -3 99q0 220 115 350q114 129 303 129q105 0 162 -42t57 -115q0 -46 -30 -76q-31 -31 -74 -31q-58 0 -88 44q-31 45 -21 112q-40 24 -90 24q-166 0 -166 -315q0 -29 3 -124q1 -31 3 -83t3 -72h327l6 -84h-331q2 -38 2 -90q0 -143 -74 -262v-10
q23 -6 131 -36q114 -32 168 -32q74 0 113 39q43 43 94 156l45 -12q6 -131 -59 -231q-65 -99 -197 -99q-54 0 -109 21q-53 20 -80 37q-18 11 -84 64q-62 50 -63 50q-113 -138 -303 -178l-25 80q154 50 214 135q61 87 61 227q0 39 -1 70t-1 71h-220l7 84h209z" />
    <glyph glyph-name="currency" unicode="&#xa4;" horiz-adv-x="890" 
d="M813 1026l-115 -115q50 -85 50 -176q0 -92 -52 -176l127 -127l-73 -74l-125 125q-83 -53 -179 -53t-178 51l-114 -114l-72 71l115 115q-54 82 -54 182q0 98 52 178l-119 119l74 74l118 -119q83 53 178 53q100 0 183 -55l112 113zM651 735q0 90 -56 150q-57 61 -149 61
q-93 0 -150 -61q-56 -60 -56 -150q0 -86 56 -148q57 -63 150 -63q92 0 149 63q56 62 56 148z" />
    <glyph glyph-name="yen" unicode="&#xa5;" horiz-adv-x="1253" 
d="M1227 1280l-6 -72l-27 -8q-64 -22 -102 -50q-42 -31 -84 -101l-242 -424h332l6 -84h-373v-166h367l6 -84h-373v-148q0 -41 47 -49l152 -22l6 -72h-592l6 72l152 22q47 8 47 49v148h-359l7 84h352v166h-359l7 84h315l-313 493q-38 59 -109 74l-67 16l-7 72h514l-6 -72
l-84 -12q-24 -4 -34 -16t-6 -39q4 -22 24 -66q19 -42 55 -96l193 -322h10l213 387q39 73 34 109q-4 34 -57 45l-47 10l-6 72h408z" />
    <glyph glyph-name="brokenbar" unicode="&#xa6;" horiz-adv-x="565" 
d="M236 629v686h94v-686h-94zM236 -285v686h94v-686h-94z" />
    <glyph glyph-name="section" unicode="&#xa7;" horiz-adv-x="862" 
d="M809 532q0 -81 -49 -146q-49 -66 -121 -103q49 -68 49 -148q0 -104 -97 -186t-233 -82q-84 0 -154 41q-69 41 -69 110q0 45 29 74t72 29q102 0 137 -158q33 -12 71 -12q119 0 119 137q0 46 -39 96q-37 47 -80 79q-40 30 -120 81q-156 101 -203 152q-70 78 -70 166
q0 79 48 145q47 65 120 100q-49 73 -49 150q0 93 94 172q95 80 219 80q85 0 155 -41q69 -40 69 -111q0 -45 -29 -74q-28 -28 -72 -28q-103 0 -137 157q-33 13 -57 13q-50 0 -84 -32q-33 -31 -33 -91q0 -46 40 -93q41 -48 81 -78q34 -25 121 -81q154 -99 202 -152
q70 -78 70 -166zM690 457q0 47 -30 90q-28 41 -60 68q-28 24 -94 71q-45 30 -83 53q-37 22 -98 66q-43 31 -71 63q-35 -21 -60 -58q-26 -38 -26 -75q0 -46 29 -90q28 -42 61 -68q38 -30 94 -69q12 -9 82 -53q62 -39 102 -69q42 -31 70 -62q84 51 84 133z" />
    <glyph glyph-name="dieresis" unicode="&#xa8;" horiz-adv-x="819" 
d="M735 1243q0 -53 -33 -91t-88 -38t-88 38q-32 36 -32 91t32 91q33 38 88 38t88 -38t33 -91zM326 1243q0 -53 -33 -91t-88 -38t-88 38t-33 91t33 91t88 38t88 -38t33 -91z" />
    <glyph glyph-name="copyright" unicode="&#xa9;" horiz-adv-x="1503" 
d="M1421 639q0 -279 -195 -474q-196 -196 -474 -196t-474 196t-196 474q0 277 196 475q195 197 474 197t474 -197q195 -196 195 -475zM1343 639q0 245 -173 424q-172 178 -418 178q-247 0 -419 -178q-173 -179 -173 -424t173 -423q173 -177 419 -177q245 0 418 177
q173 178 173 423zM1040 528l-24 -247l-62 12q-85 -31 -176 -31q-180 0 -283 103q-102 102 -102 264q0 169 106 278t271 109q83 0 164 -25l94 25v-268h-55l-47 149q-57 45 -166 45q-103 0 -170 -76q-68 -77 -68 -198q0 -150 73 -243q72 -91 204 -91q73 0 114 33l70 161h57z
" />
    <glyph glyph-name="ordfeminine" unicode="&#xaa;" horiz-adv-x="710" 
d="M709 668q-60 -82 -160 -82q-98 0 -113 110h-4q-120 -110 -211 -110q-69 0 -121 44q-51 44 -51 118q0 180 391 256l2 55q6 76 -45 125q-50 49 -121 49q-33 0 -61 -16q-29 -17 -29 -27q0 -1 8 -12q6 -9 13 -27q6 -17 6 -31q0 -30 -22 -50q-20 -19 -58 -19q-37 0 -60 22
q-24 23 -24 57q0 64 108 121q110 58 218 58q105 0 162 -60t53 -145l-12 -334q-2 -44 11 -62q14 -20 46 -20q34 0 67 21zM432 756l6 196q-241 -49 -241 -151q0 -48 28 -77q29 -30 74 -30q26 0 68 20t65 42z" />
    <glyph glyph-name="guillemotleft" unicode="&#xab;" horiz-adv-x="1003" 
d="M932 135l-21 -41l-444 312v94l444 311l21 -41l-314 -317zM543 156l-21 -41l-444 291v94l444 291l21 -41l-293 -297z" />
    <glyph glyph-name="logicalnot" unicode="&#xac;" horiz-adv-x="983" 
d="M911 633v-434h-108v325h-731l6 109h833z" />
    <glyph glyph-name="uni00AD" unicode="&#xad;" horiz-adv-x="671" 
d="M608 426h-540l6 109h528z" />
    <glyph glyph-name="registered" unicode="&#xae;" horiz-adv-x="1503" 
d="M1421 639q0 -279 -195 -474q-196 -196 -474 -196t-474 196t-196 474q0 277 196 475q195 197 474 197t474 -197q195 -196 195 -475zM1343 639q0 245 -173 424q-172 178 -418 178q-247 0 -419 -178q-173 -179 -173 -424t173 -423q173 -177 419 -177q245 0 418 177
q173 178 173 423zM1120 285h-202l-44 80l-137 219l-80 4v-201q0 -21 29 -27l68 -12l2 -63h-310l5 63l59 12q27 6 27 27v512q0 23 -27 29l-59 12l-5 64h312q131 0 200 -55q68 -54 68 -130q0 -156 -172 -207l133 -200q38 -50 66 -56l63 -8zM895 801q0 140 -190 133l-48 -2
v-273l78 -10q160 11 160 152z" />
    <glyph glyph-name="macron" unicode="&#xaf;" horiz-adv-x="819" 
d="M670 1108h-516l6 84h504z" />
    <glyph glyph-name="degree" unicode="&#xb0;" horiz-adv-x="839" 
d="M760 987q0 -140 -93 -239t-247 -99q-152 0 -246 99q-94 98 -94 239q0 144 93 243t247 99q155 0 247 -98q93 -99 93 -244zM420 1237q-108 0 -174 -72t-66 -178q0 -101 66 -173q67 -73 174 -73t174 73q65 71 65 173q0 107 -65 178q-66 72 -174 72z" />
    <glyph glyph-name="plusminus" unicode="&#xb1;" horiz-adv-x="983" 
d="M918 12h-852l6 109h839zM920 487h-373v-337h-109v337h-375l7 109h368v334h109v-334h366z" />
    <glyph glyph-name="twosuperior" unicode="&#xb2;" horiz-adv-x="675" 
d="M47 559l-8 72q22 21 86 78q13 12 32 28.5t31 27t20 18.5q36 34 68 66q48 48 62 66q17 22 43 60q24 35 32 62q9 30 9 61q0 64 -42 102q-41 37 -110 37q-96 0 -196 -86l-21 29q124 172 295 172q110 0 178 -60t68 -149q0 -33 -9 -63q-8 -26 -35 -63q-21 -29 -45 -58
q-15 -19 -69 -66q-40 -36 -75 -64q-7 -6 -20.5 -16t-35 -27t-39.5 -31q-57 -45 -100 -79v-8h96q183 0 225 7q46 8 64 42l29 51h59l-47 -209h-545z" />
    <glyph glyph-name="threesuperior" unicode="&#xb3;" horiz-adv-x="675" 
d="M242 528q-91 0 -145 30t-54 79q0 29 23 50q24 22 53 22q47 0 77 -36q29 -34 35 -83q8 -2 39 -2q72 0 122 48t50 120q0 71 -47 109t-114 38q-53 0 -103 -24l-22 39q6 3 40 23q6 4 20 12.5t20 11.5t36 21q24 14 35 24q4 4 14 11.5t15 11.5q16 13 25 25q2 3 9 11t10 13
q8 12 13 27q4 12 4 28q0 46 -38 75t-99 29q-88 0 -188 -76l-27 33q137 154 305 154q89 0 156 -44q65 -43 65 -110q0 -41 -17 -71t-65 -64q-38 -27 -72 -47q-8 -4 -20.5 -11t-36 -19t-41.5 -21v-4q99 38 194 -12q93 -49 93 -154q0 -107 -108 -187q-109 -80 -256 -80z" />
    <glyph glyph-name="acute" unicode="&#xb4;" horiz-adv-x="819" 
d="M702 1427l-346 -383h-49l187 383h208z" />
    <glyph glyph-name="mu" unicode="&#xb5;" horiz-adv-x="1083" 
d="M158 262l6 539q0 8 -2 16q-1 5 -5 9q-3 3 -12 5l-15 3q-1 0 -25 2q-7 1 -17 2.5t-14 1.5l-49 6l-7 72h324l-16 -594q0 -118 46 -165q46 -48 142 -48q109 0 227 86v606q0 17 -15 24q-17 9 -62 13l-80 6l-9 72h334v-773q0 -39 23 -47l137 -41l-6 -51l-322 -37v146h-10
q-1 -1 -3.5 -4t-7 -8.5t-8.5 -10.5q-10 -12 -22 -24q-1 -1 -7.5 -8.5t-12.5 -13.5q-13 -13 -23 -21q-2 -2 -9 -7.5t-13 -10.5q-14 -11 -27 -16q-8 -3 -28 -11t-31 -9q-22 -2 -35 -2q-117 0 -174 113q-4 4 -4 6h-11l21 -573l-205 -19z" />
    <glyph glyph-name="mu" unicode="&#x3bc;" horiz-adv-x="1083" 
d="M158 262l6 539q0 8 -2 16q-1 5 -5 9q-3 3 -12 5l-15 3q-1 0 -25 2q-7 1 -17 2.5t-14 1.5l-49 6l-7 72h324l-16 -594q0 -118 46 -165q46 -48 142 -48q109 0 227 86v606q0 17 -15 24q-17 9 -62 13l-80 6l-9 72h334v-773q0 -39 23 -47l137 -41l-6 -51l-322 -37v146h-10
q-1 -1 -3.5 -4t-7 -8.5t-8.5 -10.5q-10 -12 -22 -24q-1 -1 -7.5 -8.5t-12.5 -13.5q-13 -13 -23 -21q-2 -2 -9 -7.5t-13 -10.5q-14 -11 -27 -16q-8 -3 -28 -11t-31 -9q-22 -2 -35 -2q-117 0 -174 113q-4 4 -4 6h-11l21 -573l-205 -19z" />
    <glyph glyph-name="paragraph" unicode="&#xb6;" horiz-adv-x="1026" 
d="M842 -66h-105v613q-99 -27 -180 -27q-231 0 -354 106q-121 105 -121 273q0 187 123 284q122 97 319 97h318v-1346z" />
    <glyph glyph-name="periodcentered" unicode="&#xb7;" horiz-adv-x="475" 
d="M377 467q0 -55 -39 -96t-96 -41q-59 0 -100 41q-40 40 -40 96q0 55 40 94q41 39 100 39q60 0 97 -39q38 -40 38 -94z" />
    <glyph glyph-name="cedilla" unicode="&#xb8;" horiz-adv-x="819" 
d="M649 -303q0 -103 -114 -169t-316 -81l-18 49q321 39 321 176q0 49 -45 79t-129 30q-61 0 -127 -12v41l223 233h91l-154 -160q126 0 197 -49t71 -137z" />
    <glyph glyph-name="onesuperior" unicode="&#xb9;" horiz-adv-x="675" 
d="M111 559l4 57l131 17q30 6 30 29v561l-174 12l4 41l326 78v-692q0 -23 31 -29l108 -17l4 -57h-464z" />
    <glyph glyph-name="ordmasculine" unicode="&#xba;" horiz-adv-x="800" 
d="M750 948q0 -152 -100 -258q-98 -104 -253 -104q-156 0 -252 103t-96 255q0 153 101 259t253 106q156 0 251 -104q96 -105 96 -257zM590 903q0 205 -84 285q-49 49 -121 49q-77 0 -127 -68q-49 -67 -49 -180q0 -196 86 -287q45 -45 121 -45q74 0 124 67t50 179z" />
    <glyph glyph-name="guillemotright" unicode="&#xbb;" horiz-adv-x="1003" 
d="M932 406l-445 -291l-20 41l293 297l-293 297l20 41l445 -291v-94zM543 406l-445 -312l-20 41l313 318l-313 317l20 41l445 -311v-94z" />
    <glyph glyph-name="onequarter" unicode="&#xbc;" horiz-adv-x="1464" 
d="M1165 -293v221h-348l-8 56l399 508h103v-496h137l-8 -68h-129v-221h-146zM887 -4h278v344h-6zM172 -238l1092 1518h112l-1091 -1518h-113zM111 559l4 57l131 17q30 6 30 29v561l-174 12l4 41l326 78v-692q0 -23 31 -29l108 -17l4 -57h-464z" />
    <glyph glyph-name="onehalf" unicode="&#xbd;" horiz-adv-x="1464" 
d="M141 -238l1092 1518h113l-1092 -1518h-113zM111 559l4 57l131 17q30 6 30 29v561l-174 12l4 41l326 78v-692q0 -23 31 -29l108 -17l4 -57h-464zM836 -293l-9 72q22 21 86 78q13 12 32 28.5t31 27t20 18.5q54 51 69 66q43 43 61 66q17 22 43 60q24 35 32 62q9 30 9 61
q0 64 -42 102q-41 37 -109 37q-97 0 -197 -86l-20 29q124 172 295 172q111 0 178 -60t67 -149q0 -33 -9 -63q-8 -26 -35 -63q-13 -18 -45 -57q-21 -25 -68 -67q-40 -36 -75 -64q-7 -6 -20.5 -16t-35 -27t-39.5 -31q-17 -13 -40.5 -31.5t-37.5 -29.5t-23 -18v-8h97
q183 0 225 7q45 7 63 42l29 51h59l-47 -209h-544z" />
    <glyph glyph-name="threequarters" unicode="&#xbe;" horiz-adv-x="1464" 
d="M1165 -293v221h-348l-8 56l399 508h103v-496h137l-8 -68h-129v-221h-146zM887 -4h278v344h-6zM172 -238l1092 1518h112l-1091 -1518h-113zM242 528q-91 0 -145 30t-54 79q0 29 23 50q24 22 53 22q47 0 77 -36q29 -34 35 -83q8 -2 39 -2q72 0 122 48t50 120q0 71 -47 109
t-114 38q-53 0 -103 -24l-22 39q6 3 40 23q6 4 20 12.5t20 11.5t36 21q24 14 35 24q4 4 14 11.5t15 11.5q16 13 25 25q2 3 9 11t10 13q8 12 13 27q4 12 4 28q0 46 -38 75t-99 29q-88 0 -188 -76l-27 33q137 154 305 154q89 0 156 -44q65 -43 65 -110q0 -41 -17 -71t-65 -64
q-38 -27 -72 -47q-8 -4 -20.5 -11t-36 -19t-41.5 -21v-4q99 38 194 -12q93 -49 93 -154q0 -107 -108 -187q-109 -80 -256 -80z" />
    <glyph glyph-name="questiondown" unicode="&#xbf;" horiz-adv-x="743" 
d="M555 1186q0 -50 -36 -84q-37 -35 -89 -35t-87 35q-34 34 -34 84q0 52 34 87q35 36 87 36q53 0 89 -37q36 -38 36 -86zM643 84q0 -49 -45 -82t-119 -33q-159 0 -279 106q-118 105 -118 240q0 117 51 169q52 54 170 100q115 45 143 75q27 29 27 70q0 74 -94 168h61
q140 -114 140 -229q0 -98 -57 -144q-58 -47 -179 -96q-78 -32 -91 -38q-27 -13 -55 -38q-30 -27 -30 -57q0 -68 90 -113t225 -45q55 0 138 15q22 -28 22 -68z" />
    <glyph glyph-name="Agrave" unicode="&#xc0;" horiz-adv-x="1228" 
d="M1262 0h-557l6 72l100 16q27 6 42 14q13 7 13 35q0 27 -9 60q-3 13 -32 104l-51 160h-422l-49 -158q-33 -90 -40 -123q-9 -40 0 -63t44 -29l82 -16l6 -72h-428l6 72l58 14q47 11 74 39q29 31 64 108q30 65 101 265l238 665v74l184 86l387 -1180q15 -42 66 -49l110 -22z
M748 547l-170 551h-13l-184 -551h367zM672 1386h-45l-346 383h200z" />
    <glyph glyph-name="Aacute" unicode="&#xc1;" horiz-adv-x="1228" 
d="M1262 0h-557l6 72l100 16q27 6 42 14q13 7 13 35q0 27 -9 60q-3 13 -32 104l-51 160h-422l-49 -158q-33 -90 -40 -123q-9 -40 0 -63t44 -29l82 -16l6 -72h-428l6 72l58 14q47 11 74 39q29 31 64 108q30 65 101 265l238 665v74l184 86l387 -1180q15 -42 66 -49l110 -22z
M748 547l-170 551h-13l-184 -551h367zM928 1769l-346 -383h-50l187 383h209z" />
    <glyph glyph-name="Acircumflex" unicode="&#xc2;" horiz-adv-x="1228" 
d="M1262 0h-557l6 72l100 16q27 6 42 14q13 7 13 35q0 27 -9 60q-3 13 -32 104l-51 160h-422l-49 -158q-33 -90 -40 -123q-9 -40 0 -63t44 -29l82 -16l6 -72h-428l6 72l58 14q47 11 74 39q29 31 64 108q30 65 101 265l238 665v74l184 86l387 -1180q15 -42 66 -49l110 -22z
M748 547l-170 551h-13l-184 -551h367zM874 1386h-55l-203 222h-4l-202 -222h-56l217 383h86z" />
    <glyph glyph-name="Atilde" unicode="&#xc3;" horiz-adv-x="1228" 
d="M1262 0h-557l6 72l100 16q27 6 42 14q13 7 13 35q0 27 -9 60q-3 13 -32 104l-51 160h-422l-49 -158q-33 -90 -40 -123q-9 -40 0 -63t44 -29l82 -16l6 -72h-428l6 72l58 14q47 11 74 39q29 31 64 108q30 65 101 265l238 665v74l184 86l387 -1180q15 -42 66 -49l110 -22z
M748 547l-170 551h-13l-184 -551h367zM950 1659q-40 -252 -200 -252q-74 0 -178 75q-102 74 -136 74q-29 0 -51 -28q-23 -30 -53 -105h-53q41 252 200 252q58 0 119 -37q73 -45 112 -74q50 -38 83 -38q29 0 51 28q23 30 53 105h53z" />
    <glyph glyph-name="Adieresis" unicode="&#xc4;" horiz-adv-x="1228" 
d="M1262 0h-557l6 72l100 16q27 6 42 14q13 7 13 35q0 27 -9 60q-3 13 -32 104l-51 160h-422l-49 -158q-33 -90 -40 -123q-9 -40 0 -63t44 -29l82 -16l6 -72h-428l6 72l58 14q47 11 74 39q29 31 64 108q30 65 101 265l238 665v74l184 86l387 -1180q15 -42 66 -49l110 -22z
M748 547l-170 551h-13l-184 -551h367zM940 1585q0 -53 -33 -91t-88 -38t-88 38t-33 91q0 54 33 91q33 38 88 38t88 -38q33 -37 33 -91zM530 1585q0 -55 -32 -91q-33 -38 -88 -38t-88 38t-33 91q0 54 33 91q33 38 88 38t88 -38q32 -36 32 -91z" />
    <glyph glyph-name="Aring" unicode="&#xc5;" horiz-adv-x="1228" 
d="M537 1241q-51 21 -77 67q-28 48 -28 101q0 78 50 131t132 53t132 -53q51 -54 51 -131q0 -107 -82 -158l364 -1108q15 -42 66 -49l110 -22l7 -72h-557l6 72l100 16q27 6 42 14q13 7 13 35q0 27 -9 60q-3 13 -32 104l-51 160h-422l-49 -158q-33 -90 -40 -123q-9 -40 0 -63
t44 -29l82 -16l6 -72h-428l6 72l58 14q47 11 74 39q29 31 64 108q30 65 101 265zM748 547l-170 555h-13l-184 -555h367zM735 1409q0 53 -33 91t-88 38t-88 -38q-32 -36 -32 -91t32 -91q33 -38 88 -38t88 38t33 91z" />
    <glyph glyph-name="AE" unicode="&#xc6;" horiz-adv-x="1644" 
d="M1579 371l-39 -371h-956l6 72l110 22q48 8 48 49v318h-386l-63 -127q-46 -94 -59 -125q-19 -45 -23 -71q-5 -27 5 -37q8 -8 32 -13l80 -16l6 -72h-442l6 72l59 14q56 17 83 36q29 21 83 104q54 84 150 272l286 569q57 110 -55 131l-55 10l-6 72h1093v-381h-90l-49 199
q-7 29 -19 47q-10 15 -29 29q-17 13 -72 18q-53 5 -118 6q-88 2 -194 2h-43v-510h28q128 0 160 7q34 7 45 38l47 137h74l-43 -440h-72l-16 131q-5 31 -37 40q-33 9 -162 9h-24v-532h22q217 0 311 8q85 7 118 27q30 18 46 67l52 189h102zM748 547v643h-21l-321 -643h342z" />
    <glyph glyph-name="Ccedilla" unicode="&#xc7;" horiz-adv-x="1396" 
d="M754 -29q-287 16 -474 190q-186 173 -186 466q0 313 205 497q206 185 516 185q158 0 283 -41l164 30v-419h-95l-55 262q-136 82 -307 82q-219 0 -356 -161q-138 -162 -138 -409q0 -270 138 -437q137 -165 382 -165q140 0 252 62l88 282h99l-45 -395l-105 18
q-116 -43 -276 -49l-84 -86q125 0 196 -49q72 -50 72 -137q0 -102 -115 -169q-114 -66 -315 -81l-18 49q321 39 321 176q0 49 -45 79t-129 30q-64 0 -127 -12v41z" />
    <glyph glyph-name="Egrave" unicode="&#xc8;" horiz-adv-x="1216" 
d="M1126 371l-39 -371h-1003l6 72l84 10q72 8 72 37v1046q0 15 -14 21t-58 12l-84 10l-6 72h1006v-381h-99l-49 199q-15 51 -43 69q-29 19 -105 26q-71 7 -280 7h-74v-510h56q123 0 155 7q34 7 45 38l47 137h80l-43 -440h-78l-16 131q-5 31 -37 40q-33 9 -160 9h-49v-532h58
q207 0 301 8q86 7 119 27q32 19 49 67l49 189h110zM686 1386h-45l-346 383h201z" />
    <glyph glyph-name="Eacute" unicode="&#xc9;" horiz-adv-x="1216" 
d="M1126 371l-39 -371h-1003l6 72l84 10q72 8 72 37v1046q0 15 -14 21t-58 12l-84 10l-6 72h1006v-381h-99l-49 199q-15 51 -43 69q-29 19 -105 26q-71 7 -280 7h-74v-510h56q123 0 155 7q34 7 45 38l47 137h80l-43 -440h-78l-16 131q-5 31 -37 40q-33 9 -160 9h-49v-532h58
q207 0 301 8q86 7 119 27q32 19 49 67l49 189h110zM963 1769l-347 -383h-49l187 383h209z" />
    <glyph glyph-name="Ecircumflex" unicode="&#xca;" horiz-adv-x="1216" 
d="M1126 371l-39 -371h-1003l6 72l84 10q72 8 72 37v1046q0 15 -14 21t-58 12l-84 10l-6 72h1006v-381h-99l-49 199q-15 51 -43 69q-29 19 -105 26q-71 7 -280 7h-74v-510h56q123 0 155 7q34 7 45 38l47 137h80l-43 -440h-78l-16 131q-5 31 -37 40q-33 9 -160 9h-49v-532h58
q207 0 301 8q86 7 119 27q32 19 49 67l49 189h110zM868 1386h-55l-203 222h-4l-203 -222h-55l217 383h86z" />
    <glyph glyph-name="Edieresis" unicode="&#xcb;" horiz-adv-x="1216" 
d="M1126 371l-39 -371h-1003l6 72l84 10q72 8 72 37v1046q0 15 -14 21t-58 12l-84 10l-6 72h1006v-381h-99l-49 199q-15 51 -43 69q-29 19 -105 26q-71 7 -280 7h-74v-510h56q123 0 155 7q34 7 45 38l47 137h80l-43 -440h-78l-16 131q-5 31 -37 40q-33 9 -160 9h-49v-532h58
q207 0 301 8q86 7 119 27q32 19 49 67l49 189h110zM934 1585q0 -53 -33 -91t-88 -38t-88 38t-33 91q0 54 33 91q33 38 88 38t88 -38q33 -37 33 -91zM524 1585q0 -55 -32 -91q-33 -38 -89 -38q-55 0 -88 38q-32 36 -32 91t32 91q33 38 88 38q56 0 89 -38q32 -36 32 -91z" />
    <glyph glyph-name="Igrave" unicode="&#xcc;" horiz-adv-x="737" 
d="M649 0h-559l6 72l105 10q71 7 71 37v1046q0 15 -13 21q-14 6 -58 12l-105 10l-6 72h559l-6 -72l-104 -10q-72 -8 -72 -37v-1046q0 -25 72 -33l104 -10zM406 1386h-46l-346 383h201z" />
    <glyph glyph-name="Iacute" unicode="&#xcd;" horiz-adv-x="737" 
d="M649 0h-559l6 72l105 10q71 7 71 37v1046q0 15 -13 21q-14 6 -58 12l-105 10l-6 72h559l-6 -72l-104 -10q-72 -8 -72 -37v-1046q0 -25 72 -33l104 -10zM725 1769l-346 -383h-49l186 383h209z" />
    <glyph glyph-name="Icircumflex" unicode="&#xce;" horiz-adv-x="737" 
d="M649 0h-559l6 72l105 10q71 7 71 37v1046q0 15 -13 21q-14 6 -58 12l-105 10l-6 72h559l-6 -72l-104 -10q-72 -8 -72 -37v-1046q0 -25 72 -33l104 -10zM629 1386h-56l-202 222h-4l-203 -222h-55l217 383h86z" />
    <glyph glyph-name="Idieresis" unicode="&#xcf;" horiz-adv-x="737" 
d="M649 0h-559l6 72l105 10q71 7 71 37v1046q0 15 -13 21q-14 6 -58 12l-105 10l-6 72h559l-6 -72l-104 -10q-72 -8 -72 -37v-1046q0 -25 72 -33l104 -10zM694 1585q0 -55 -32 -91q-33 -38 -89 -38q-55 0 -88 38q-32 36 -32 91t32 91q33 38 88 38q56 0 89 -38q32 -36 32 -91
zM285 1585q0 -53 -33 -91t-88 -38t-88 38t-33 91q0 54 33 91q33 38 88 38t88 -38q33 -37 33 -91z" />
    <glyph glyph-name="Eth" unicode="&#xd0;" horiz-adv-x="1380" 
d="M246 610h-178l6 84h172v443q0 41 -47 49l-111 22l-6 72l455 6q331 4 546 -170t215 -444q0 -310 -197 -491t-573 -181h-446l6 72l111 22q47 8 47 49v467zM426 694h238l6 -84h-244v-499l147 -31q242 -12 386 139q145 153 145 389q0 275 -161 434q-162 160 -456 160h-61
v-508z" />
    <glyph glyph-name="Ntilde" unicode="&#xd1;" horiz-adv-x="1540" 
d="M1473 1280l-7 -72l-96 -16q-36 -6 -50 -16q-15 -10 -27 -57q-11 -44 -13 -115q-2 -92 -2 -222v-800h-105l-808 1103h-11v-587q0 -130 2 -222q1 -66 14 -115q12 -48 25 -57q14 -10 49 -16l99 -16l6 -72h-469l6 72l96 16q36 6 50 16q15 10 27 57q11 44 13 115q2 92 2 222
v503q0 87 -19 129q-19 43 -69 64l-96 14l-6 72h371l731 -1001h10v503q0 317 -22 365q-16 37 -68 45l-98 16l-7 72h472zM1106 1659q-40 -252 -201 -252q-73 0 -177 75q-102 74 -136 74q-29 0 -51 -28q-25 -32 -54 -105h-53q40 252 201 252q58 0 119 -37q68 -42 111 -74
q50 -38 83 -38q29 0 51 28q25 32 54 105h53z" />
    <glyph glyph-name="Ograve" unicode="&#xd2;" horiz-adv-x="1525" 
d="M1432 645q0 -277 -196 -478q-195 -200 -476 -200q-287 0 -476 186q-190 187 -190 474q0 277 196 479q195 201 476 201q287 0 476 -186q190 -187 190 -476zM1214 623q0 273 -133 439q-134 167 -323 167q-191 0 -319 -155t-128 -423q0 -275 132 -441q132 -167 323 -167
q190 0 319 156t129 424zM860 1386h-45l-346 383h201z" />
    <glyph glyph-name="Oacute" unicode="&#xd3;" horiz-adv-x="1525" 
d="M1432 645q0 -277 -196 -478q-195 -200 -476 -200q-287 0 -476 186q-190 187 -190 474q0 277 196 479q195 201 476 201q287 0 476 -186q190 -187 190 -476zM1214 623q0 273 -133 439q-134 167 -323 167q-191 0 -319 -155t-128 -423q0 -275 132 -441q132 -167 323 -167
q190 0 319 156t129 424zM1055 1769l-346 -383h-50l187 383h209z" />
    <glyph glyph-name="Ocircumflex" unicode="&#xd4;" horiz-adv-x="1525" 
d="M1432 645q0 -277 -196 -478q-195 -200 -476 -200q-287 0 -476 186q-190 187 -190 474q0 277 196 479q195 201 476 201q287 0 476 -186q190 -187 190 -476zM1214 623q0 273 -133 439q-134 167 -323 167q-191 0 -319 -155t-128 -423q0 -275 132 -441q132 -167 323 -167
q190 0 319 156t129 424zM1022 1386h-55l-203 222h-4l-203 -222h-55l217 383h86z" />
    <glyph glyph-name="Otilde" unicode="&#xd5;" horiz-adv-x="1525" 
d="M1432 645q0 -277 -196 -478q-195 -200 -476 -200q-287 0 -476 186q-190 187 -190 474q0 277 196 479q195 201 476 201q287 0 476 -186q190 -187 190 -476zM1214 623q0 273 -133 439q-134 167 -323 167q-191 0 -319 -155t-128 -423q0 -275 132 -441q132 -167 323 -167
q190 0 319 156t129 424zM1098 1659q-40 -252 -201 -252q-73 0 -177 75q-102 74 -136 74q-30 0 -52 -28q-23 -30 -53 -105h-53q40 252 201 252q57 0 118 -37q73 -45 112 -74q50 -38 83 -38q29 0 51 28q23 30 53 105h54z" />
    <glyph glyph-name="Odieresis" unicode="&#xd6;" horiz-adv-x="1525" 
d="M1432 645q0 -277 -196 -478q-195 -200 -476 -200q-287 0 -476 186q-190 187 -190 474q0 277 196 479q195 201 476 201q287 0 476 -186q190 -187 190 -476zM1214 623q0 273 -133 439q-134 167 -323 167q-191 0 -319 -155t-128 -423q0 -275 132 -441q132 -167 323 -167
q190 0 319 156t129 424zM1087 1585q0 -55 -32 -91q-33 -38 -88 -38t-88 38t-33 91q0 54 33 91q33 38 88 38t88 -38q32 -36 32 -91zM678 1585q0 -53 -33 -91t-88 -38t-88 38t-33 91q0 54 33 91q33 38 88 38t88 -38q33 -37 33 -91z" />
    <glyph glyph-name="multiply" unicode="&#xd7;" horiz-adv-x="983" 
d="M913 825l-346 -344l346 -346l-77 -76l-344 344l-345 -344l-77 76l346 346l-346 344l77 76l345 -344l344 344z" />
    <glyph glyph-name="Oslash" unicode="&#xd8;" horiz-adv-x="1525" 
d="M1380 651q0 -280 -177 -481t-472 -201q-164 0 -299 66l-108 -187h-95l131 228q-131 86 -204 229q-74 145 -74 322q0 280 177 481t472 201q163 0 305 -70l99 170h96l-123 -211q129 -89 201 -229q71 -139 71 -318zM973 1128q-118 95 -262 95q-197 0 -320 -150t-123 -401
q0 -290 166 -469zM1194 608q0 282 -160 463q-537 -924 -538 -924q116 -88 256 -88q196 0 319 149q123 148 123 400z" />
    <glyph glyph-name="Ugrave" unicode="&#xd9;" horiz-adv-x="1462" 
d="M1413 1280l-6 -72l-96 -16q-36 -6 -50 -16q-15 -10 -27 -57q-11 -44 -13 -115q-2 -92 -2 -222v-364q0 -206 -133 -328q-131 -121 -361 -121q-233 0 -361 116t-128 343v737q0 15 -14 21t-58 12l-84 10l-6 72h518l-6 -72l-84 -10q-72 -8 -72 -37v-688q0 -389 367 -389
q160 0 250 94t90 260v344q0 314 -23 365q-17 38 -67 45l-99 16l-6 72h471zM829 1386h-45l-346 383h201z" />
    <glyph glyph-name="Uacute" unicode="&#xda;" horiz-adv-x="1462" 
d="M1413 1280l-6 -72l-96 -16q-36 -6 -50 -16q-15 -10 -27 -57q-11 -44 -13 -115q-2 -92 -2 -222v-364q0 -206 -133 -328q-131 -121 -361 -121q-233 0 -361 116t-128 343v737q0 15 -14 21t-58 12l-84 10l-6 72h518l-6 -72l-84 -10q-72 -8 -72 -37v-688q0 -389 367 -389
q160 0 250 94t90 260v344q0 314 -23 365q-17 38 -67 45l-99 16l-6 72h471zM1106 1769l-346 -383h-49l186 383h209z" />
    <glyph glyph-name="Ucircumflex" unicode="&#xdb;" horiz-adv-x="1462" 
d="M1413 1280l-6 -72l-96 -16q-36 -6 -50 -16q-15 -10 -27 -57q-11 -44 -13 -115q-2 -92 -2 -222v-364q0 -206 -133 -328q-131 -121 -361 -121q-233 0 -361 116t-128 343v737q0 15 -14 21t-58 12l-84 10l-6 72h518l-6 -72l-84 -10q-72 -8 -72 -37v-688q0 -389 367 -389
q160 0 250 94t90 260v344q0 314 -23 365q-17 38 -67 45l-99 16l-6 72h471zM1032 1386h-55l-203 222h-4l-203 -222h-55l217 383h86z" />
    <glyph glyph-name="Udieresis" unicode="&#xdc;" horiz-adv-x="1462" 
d="M1413 1280l-6 -72l-96 -16q-36 -6 -50 -16q-15 -10 -27 -57q-11 -44 -13 -115q-2 -92 -2 -222v-364q0 -206 -133 -328q-131 -121 -361 -121q-233 0 -361 116t-128 343v737q0 15 -14 21t-58 12l-84 10l-6 72h518l-6 -72l-84 -10q-72 -8 -72 -37v-688q0 -389 367 -389
q160 0 250 94t90 260v344q0 314 -23 365q-17 38 -67 45l-99 16l-6 72h471zM1057 1585q0 -53 -33 -91t-88 -38t-88 38t-33 91q0 54 33 91q33 38 88 38t88 -38q33 -37 33 -91zM647 1585q0 -53 -33 -91t-88 -38t-88 38q-32 36 -32 91t32 91q33 38 88 38t88 -38q33 -37 33 -91z
" />
    <glyph glyph-name="Yacute" unicode="&#xdd;" horiz-adv-x="1232" 
d="M1241 1280l-6 -72l-29 -8q-59 -17 -102 -49q-42 -31 -88 -102l-289 -488v-446q0 -25 72 -33l123 -10l6 -72h-598l6 72l125 10q71 7 71 37v413l-368 586q-43 59 -109 74l-65 16l-6 72h524l-6 -72l-82 -12q-26 -5 -34 -17q-9 -14 -5 -39q5 -28 22 -65q13 -29 54 -96
l205 -338h10l229 403q45 73 40 109q-4 34 -58 45l-49 10l-7 72h414zM909 1769l-346 -383h-49l186 383h209z" />
    <glyph glyph-name="Thorn" unicode="&#xde;" horiz-adv-x="1204" 
d="M1110 678q0 -195 -142 -303q-144 -109 -360 -109q-67 0 -168 10v-161q0 -25 72 -33l123 -10l6 -72h-557l6 72l84 10q72 8 72 37v1046q0 15 -14 21t-58 12l-84 10l-6 72h518l-6 -72l-84 -10q-72 -10 -72 -37v-131h170q243 0 371 -98q129 -99 129 -254zM901 637
q0 147 -96 230q-97 83 -268 83h-97v-583q82 -21 176 -21q132 0 209 78q76 77 76 213z" />
    <glyph glyph-name="germandbls" unicode="&#xdf;" horiz-adv-x="1064" 
d="M674 866q142 -81 251 -219q107 -135 107 -297q0 -150 -101 -266q-102 -117 -237 -117q-97 0 -165 52t-68 128q0 59 37 96q38 38 90 38q69 0 99 -46t14 -100q-15 -53 -64 -74q32 -16 63 -16q76 0 130 66q55 67 55 161q0 138 -105 289q-106 153 -295 260v53q137 22 202 88
q65 65 65 183q0 79 -56 137q-55 57 -131 57q-205 0 -205 -303v-1036h-301l7 72l69 6q58 2 58 39v692l-168 10l12 99l145 6l2 24q21 238 126 356q104 117 282 117q149 0 237 -76q89 -77 89 -206q0 -199 -244 -273z" />
    <glyph glyph-name="agrave" unicode="&#xe0;" horiz-adv-x="917" 
d="M918 104q-107 -137 -201 -137q-129 0 -137 150h-11q-134 -148 -254 -148q-97 0 -172 70q-73 69 -73 170q0 126 121 205q122 80 391 143v18q0 158 -51 220q-49 59 -148 59q-51 0 -100 -16q-52 -17 -52 -31q0 -2 12 -17q8 -10 23 -38q13 -24 13 -47q0 -41 -30 -70
q-31 -29 -79 -29q-46 0 -77 28q-30 27 -30 68q0 76 135 162q134 86 255 86q181 0 244 -90q63 -91 53 -332l-15 -348q-5 -80 47 -80q37 0 101 50zM567 184l11 305q-190 -47 -263 -105t-73 -132q0 -68 43 -111t104 -43q81 0 178 86zM512 1044h-45l-346 383h201z" />
    <glyph glyph-name="aacute" unicode="&#xe1;" horiz-adv-x="917" 
d="M918 104q-107 -137 -201 -137q-129 0 -137 150h-11q-134 -148 -254 -148q-97 0 -172 70q-73 69 -73 170q0 126 121 205q122 80 391 143v18q0 158 -51 220q-49 59 -148 59q-51 0 -100 -16q-52 -17 -52 -31q0 -2 12 -17q8 -10 23 -38q13 -24 13 -47q0 -41 -30 -70
q-31 -29 -79 -29q-46 0 -77 28q-30 27 -30 68q0 76 135 162q134 86 255 86q181 0 244 -90q63 -91 53 -332l-15 -348q-5 -80 47 -80q37 0 101 50zM567 184l11 305q-190 -47 -263 -105t-73 -132q0 -68 43 -111t104 -43q81 0 178 86zM748 1427l-347 -383h-49l187 383h209z" />
    <glyph glyph-name="acircumflex" unicode="&#xe2;" horiz-adv-x="917" 
d="M918 104q-107 -137 -201 -137q-129 0 -137 150h-11q-134 -148 -254 -148q-97 0 -172 70q-73 69 -73 170q0 126 121 205q122 80 391 143v18q0 158 -51 220q-49 59 -148 59q-51 0 -100 -16q-52 -17 -52 -31q0 -2 12 -17q8 -10 23 -38q13 -24 13 -47q0 -41 -30 -70
q-31 -29 -79 -29q-46 0 -77 28q-30 27 -30 68q0 76 135 162q134 86 255 86q181 0 244 -90q63 -91 53 -332l-15 -348q-5 -80 47 -80q37 0 101 50zM567 184l11 305q-190 -47 -263 -105t-73 -132q0 -68 43 -111t104 -43q81 0 178 86zM674 1044h-56l-202 222h-4l-203 -222h-55
l217 383h86z" />
    <glyph glyph-name="atilde" unicode="&#xe3;" horiz-adv-x="917" 
d="M918 104q-107 -137 -201 -137q-129 0 -137 150h-11q-134 -148 -254 -148q-97 0 -172 70q-73 69 -73 170q0 126 121 205q122 80 391 143v18q0 158 -51 220q-49 59 -148 59q-51 0 -100 -16q-52 -17 -52 -31q0 -2 12 -17q8 -10 23 -38q13 -24 13 -47q0 -41 -30 -70
q-31 -29 -79 -29q-46 0 -77 28q-30 27 -30 68q0 76 135 162q134 86 255 86q181 0 244 -90q63 -91 53 -332l-15 -348q-5 -80 47 -80q37 0 101 50zM567 184l11 305q-190 -47 -263 -105t-73 -132q0 -68 43 -111t104 -43q81 0 178 86zM750 1317q-40 -252 -201 -252
q-73 0 -177 75q-102 74 -136 74q-30 0 -52 -28q-23 -30 -53 -105h-53q40 252 201 252q56 0 118 -38q73 -45 112 -74q49 -37 83 -37q29 0 51 28q23 30 53 105h54z" />
    <glyph glyph-name="adieresis" unicode="&#xe4;" horiz-adv-x="917" 
d="M918 104q-107 -137 -201 -137q-129 0 -137 150h-11q-134 -148 -254 -148q-97 0 -172 70q-73 69 -73 170q0 126 121 205q122 80 391 143v18q0 158 -51 220q-49 59 -148 59q-51 0 -100 -16q-52 -17 -52 -31q0 -2 12 -17q8 -10 23 -38q13 -24 13 -47q0 -41 -30 -70
q-31 -29 -79 -29q-46 0 -77 28q-30 27 -30 68q0 76 135 162q134 86 255 86q181 0 244 -90q63 -91 53 -332l-15 -348q-5 -80 47 -80q37 0 101 50zM567 184l11 305q-190 -47 -263 -105t-73 -132q0 -68 43 -111t104 -43q81 0 178 86zM760 1243q0 -53 -33 -91t-88 -38t-88 38
t-33 91t33 91t88 38t88 -38t33 -91zM350 1243q0 -53 -33 -91t-88 -38t-88 38q-32 36 -32 91t32 91q33 38 88 38t88 -38t33 -91z" />
    <glyph glyph-name="aring" unicode="&#xe5;" horiz-adv-x="917" 
d="M627 1243q0 -78 -50 -131t-133 -53q-82 0 -132 53t-50 131t50 131t132 53q83 0 133 -53t50 -131zM918 104q-107 -137 -201 -137q-129 0 -137 150h-11q-134 -148 -254 -148q-97 0 -172 70q-73 69 -73 170q0 126 121 205q122 80 391 143v18q0 158 -51 220q-49 59 -148 59
q-51 0 -100 -16q-52 -17 -52 -31q0 -2 12 -17q8 -10 23 -38q13 -24 13 -47q0 -41 -30 -70q-31 -29 -79 -29q-46 0 -77 28q-30 27 -30 68q0 76 135 162q134 86 255 86q181 0 244 -90q63 -91 53 -332l-15 -348q-5 -80 47 -80q37 0 101 50zM565 1243q0 53 -33 91t-88 38
t-88 -38q-32 -36 -32 -91t32 -91q33 -38 88 -38t88 38t33 91zM567 184l11 305q-190 -47 -263 -105t-73 -132q0 -68 43 -111t104 -43q81 0 178 86z" />
    <glyph glyph-name="ae" unicode="&#xe6;" horiz-adv-x="1452" 
d="M639 170q-145 -201 -324 -201q-97 0 -172 70q-73 69 -73 170q0 126 121 205q122 80 391 143l2 27q12 141 -45 206q-57 64 -156 64q-51 0 -100 -16q-52 -17 -52 -31q0 -2 12 -17q8 -10 23 -38q13 -24 13 -47q0 -41 -30 -70q-31 -29 -79 -29q-46 0 -77 28q-30 27 -30 68
q0 76 135 162q134 86 255 86q225 0 272 -137q139 135 326 135q145 0 232 -84t87 -223q0 -61 -12 -111l-608 9v-23q0 -177 90 -288t227 -111q154 0 250 108l41 -22q-57 -113 -155 -173q-99 -61 -218 -61q-109 0 -201 55q-89 53 -145 146zM578 487q-189 -46 -263 -104
q-73 -57 -73 -131q0 -70 43 -112t110 -42q116 0 217 119q-39 101 -39 211q0 27 5 59zM1182 604q8 125 -41 196q-49 72 -135 72q-88 0 -160 -72t-90 -196h426z" />
    <glyph glyph-name="ccedilla" unicode="&#xe7;" horiz-adv-x="901" 
d="M442 -29q-166 15 -271 143t-105 314q0 225 143 372q144 148 342 148q133 0 212 -58t79 -138q0 -59 -35 -85t-80 -26q-59 0 -92 57t-17 133v5q-44 32 -112 32q-115 0 -190 -94q-74 -93 -74 -252q0 -174 90 -290q90 -115 227 -115q154 0 250 108l41 -22
q-102 -206 -315 -230l-86 -90q125 0 196 -49q72 -50 72 -137q0 -102 -115 -169q-114 -66 -315 -81l-19 49q322 39 322 176q0 49 -45 79t-129 30q-64 0 -127 -12v41z" />
    <glyph glyph-name="egrave" unicode="&#xe8;" horiz-adv-x="944" 
d="M850 203q-57 -113 -155 -173q-99 -61 -218 -61q-181 0 -296 132q-115 131 -115 327q0 226 138 373t339 147q145 0 232 -84t87 -223q0 -61 -12 -111l-608 9v-23q0 -177 90 -288t227 -111q154 0 250 108zM674 604q8 125 -41 196q-49 72 -135 72q-88 0 -160 -72t-90 -196
h426zM569 1044h-45l-346 383h201z" />
    <glyph glyph-name="eacute" unicode="&#xe9;" horiz-adv-x="944" 
d="M850 203q-57 -113 -155 -173q-99 -61 -218 -61q-181 0 -296 132q-115 131 -115 327q0 226 138 373t339 147q145 0 232 -84t87 -223q0 -61 -12 -111l-608 9v-23q0 -177 90 -288t227 -111q154 0 250 108zM674 604q8 125 -41 196q-49 72 -135 72q-88 0 -160 -72t-90 -196
h426zM764 1427l-346 -383h-49l186 383h209z" />
    <glyph glyph-name="ecircumflex" unicode="&#xea;" horiz-adv-x="944" 
d="M850 203q-57 -113 -155 -173q-99 -61 -218 -61q-181 0 -296 132q-115 131 -115 327q0 226 138 373t339 147q145 0 232 -84t87 -223q0 -61 -12 -111l-608 9v-23q0 -177 90 -288t227 -111q154 0 250 108zM674 604q8 125 -41 196q-49 72 -135 72q-88 0 -160 -72t-90 -196
h426zM731 1044h-55l-203 222h-4l-203 -222h-55l217 383h86z" />
    <glyph glyph-name="edieresis" unicode="&#xeb;" horiz-adv-x="944" 
d="M850 203q-57 -113 -155 -173q-99 -61 -218 -61q-181 0 -296 132q-115 131 -115 327q0 226 138 373t339 147q145 0 232 -84t87 -223q0 -61 -12 -111l-608 9v-23q0 -177 90 -288t227 -111q154 0 250 108zM674 604q8 125 -41 196q-49 72 -135 72q-88 0 -160 -72t-90 -196
h426zM797 1243q0 -53 -33 -91t-88 -38t-88 38t-33 91t33 91t88 38t88 -38t33 -91zM387 1243q0 -53 -33 -91t-88 -38t-88 38t-33 91t33 91t88 38t88 -38t33 -91z" />
    <glyph glyph-name="igrave" unicode="&#xec;" horiz-adv-x="557" 
d="M506 0h-445l7 72l57 6q70 6 70 39v518q0 93 -16 123q-15 28 -73 43l-49 12l2 55l303 80v-833q0 -33 78 -37l60 -6zM367 1044h-45l-347 383h201z" />
    <glyph glyph-name="iacute" unicode="&#xed;" horiz-adv-x="557" 
d="M506 0h-445l7 72l57 6q70 6 70 39v518q0 93 -16 123q-15 28 -73 43l-49 12l2 55l303 80v-833q0 -33 78 -37l60 -6zM571 1427l-346 -383h-49l186 383h209z" />
    <glyph glyph-name="icircumflex" unicode="&#xee;" horiz-adv-x="557" 
d="M506 0h-445l7 72l57 6q70 6 70 39v518q0 93 -16 123q-15 28 -73 43l-49 12l2 55l303 80v-833q0 -33 78 -37l60 -6zM539 1044h-56l-202 222h-5l-202 -222h-56l218 383h86z" />
    <glyph glyph-name="idieresis" unicode="&#xef;" horiz-adv-x="557" 
d="M506 0h-445l7 72l57 6q70 6 70 39v518q0 93 -16 123q-15 28 -73 43l-49 12l2 55l303 80v-833q0 -33 78 -37l60 -6zM604 1243q0 -53 -33 -91t-88 -38t-88 38t-33 91t33 91t88 38t88 -38t33 -91zM195 1243q0 -53 -33 -91t-88 -38t-88 38t-33 91t33 91t88 38t88 -38t33 -91z
" />
    <glyph glyph-name="eth" unicode="&#xf0;" horiz-adv-x="1046" 
d="M573 1157l-305 -102v88l221 74q-99 62 -223 96l25 61q167 -34 309 -121l264 88v-88q-176 -59 -180 -59q309 -247 313 -655q0 -252 -129 -411t-340 -159q-201 0 -332 142q-130 140 -130 348q0 215 129 348t297 133q207 0 313 -190q-52 254 -232 407zM248 524
q0 -121 34 -224q35 -107 93 -165q78 -78 178 -78q113 0 186 88q74 89 74 248q0 120 -33 225t-92 164q-78 78 -178 78q-117 0 -189 -88q-73 -90 -73 -248z" />
    <glyph glyph-name="ntilde" unicode="&#xf1;" horiz-adv-x="1120" 
d="M1090 0h-441l6 72l54 6q69 4 69 39v428q0 146 -46 204t-142 58q-110 0 -228 -86v-606q0 -33 78 -37l70 -6l6 -72h-455l7 72l57 6q70 6 70 39v518q0 93 -16 123q-15 28 -73 43l-49 12l2 55l303 80v-145h11q175 145 327 145q105 0 168 -63q78 -78 78 -230v-538
q0 -17 17 -25q18 -8 67 -14l53 -6zM895 1317q-41 -252 -201 -252q-74 0 -177 75q-102 74 -136 74q-29 0 -51 -28q-25 -32 -54 -105h-53q41 252 201 252q57 0 119 -38q68 -42 111 -74q49 -37 83 -37q29 0 51 28q25 32 54 105h53z" />
    <glyph glyph-name="ograve" unicode="&#xf2;" horiz-adv-x="1060" 
d="M995 485q0 -216 -139 -365q-140 -151 -344 -151q-201 0 -324 140q-122 138 -122 346q0 206 141 350q140 143 344 143q195 0 320 -132q124 -131 124 -331zM809 399q0 272 -109 387q-72 78 -178 78q-116 0 -193 -93q-77 -94 -77 -253q0 -271 110 -387q72 -78 179 -78
q112 0 190 93t78 253zM608 1044h-45l-346 383h201z" />
    <glyph glyph-name="oacute" unicode="&#xf3;" horiz-adv-x="1060" 
d="M995 485q0 -216 -139 -365q-140 -151 -344 -151q-201 0 -324 140q-122 138 -122 346q0 206 141 350q140 143 344 143q195 0 320 -132q124 -131 124 -331zM809 399q0 272 -109 387q-72 78 -178 78q-116 0 -193 -93q-77 -94 -77 -253q0 -271 110 -387q72 -78 179 -78
q112 0 190 93t78 253zM844 1427l-346 -383h-49l186 383h209z" />
    <glyph glyph-name="ocircumflex" unicode="&#xf4;" horiz-adv-x="1060" 
d="M995 485q0 -216 -139 -365q-140 -151 -344 -151q-201 0 -324 140q-122 138 -122 346q0 206 141 350q140 143 344 143q195 0 320 -132q124 -131 124 -331zM809 399q0 272 -109 387q-72 78 -178 78q-116 0 -193 -93q-77 -94 -77 -253q0 -271 110 -387q72 -78 179 -78
q112 0 190 93t78 253zM791 1044h-56l-203 222h-4l-202 -222h-56l217 383h86z" />
    <glyph glyph-name="otilde" unicode="&#xf5;" horiz-adv-x="1060" 
d="M995 485q0 -216 -139 -365q-140 -151 -344 -151q-201 0 -324 140q-122 138 -122 346q0 206 141 350q140 143 344 143q195 0 320 -132q124 -131 124 -331zM809 399q0 272 -109 387q-72 78 -178 78q-116 0 -193 -93q-77 -94 -77 -253q0 -271 110 -387q72 -78 179 -78
q112 0 190 93t78 253zM866 1317q-40 -252 -200 -252q-74 0 -178 75q-102 74 -136 74q-29 0 -51 -28q-23 -30 -53 -105h-53q40 252 200 252q57 0 119 -38q73 -45 112 -74q49 -37 83 -37q29 0 51 28q23 30 53 105h53z" />
    <glyph glyph-name="odieresis" unicode="&#xf6;" horiz-adv-x="1060" 
d="M995 485q0 -216 -139 -365q-140 -151 -344 -151q-201 0 -324 140q-122 138 -122 346q0 206 141 350q140 143 344 143q195 0 320 -132q124 -131 124 -331zM809 399q0 272 -109 387q-72 78 -178 78q-116 0 -193 -93q-77 -94 -77 -253q0 -271 110 -387q72 -78 179 -78
q112 0 190 93t78 253zM856 1243q0 -53 -33 -91t-88 -38t-88 38t-33 91t33 91t88 38t88 -38t33 -91zM446 1243q0 -55 -32 -91q-33 -38 -88 -38t-88 38t-33 91t33 91t88 38t88 -38q32 -36 32 -91z" />
    <glyph glyph-name="divide" unicode="&#xf7;" horiz-adv-x="995" 
d="M913 426h-829l6 109h817zM606 193q0 -45 -29 -75q-30 -32 -75 -32q-46 0 -76 32q-31 33 -31 75t31 73t76 31q44 0 75 -31q29 -29 29 -73zM606 766q0 -42 -31 -75q-30 -32 -75 -32t-75 32q-30 31 -30 75t30 75t75 31t75 -31q31 -33 31 -75z" />
    <glyph glyph-name="oslash" unicode="&#xf8;" horiz-adv-x="1060" 
d="M1012 1225l-211 -365q86 -67 134 -171q48 -105 48 -230q0 -207 -132 -348q-133 -142 -329 -142q-109 0 -207 49l-161 -282h-82l184 319q-184 139 -184 404q0 207 132 348t328 141q111 0 209 -49l189 326h82zM676 786q-79 74 -187 74q-111 0 -181 -88t-70 -250
q0 -207 92 -338zM815 395q0 203 -90 332l-346 -600q81 -70 184 -70q108 0 180 90t72 248z" />
    <glyph glyph-name="ugrave" unicode="&#xf9;" horiz-adv-x="1083" 
d="M1069 57l-6 -51l-322 -37v146h-10q-176 -146 -328 -146q-103 0 -167 64q-78 78 -78 229l6 539q0 8 -2 16q-1 5 -5 9q-3 3 -12 5l-15 3q-1 0 -25 2q-7 1 -17 2.5t-14 1.5l-49 6l-7 72h324l-16 -545q0 -146 46 -204t142 -58q109 0 227 86v606q0 17 -15 24q-17 9 -62 13
l-80 6l-9 72h334v-773q0 -39 23 -47zM598 1044h-45l-346 383h201z" />
    <glyph glyph-name="uacute" unicode="&#xfa;" horiz-adv-x="1083" 
d="M1069 57l-6 -51l-322 -37v146h-10q-176 -146 -328 -146q-103 0 -167 64q-78 78 -78 229l6 539q0 8 -2 16q-1 5 -5 9q-3 3 -12 5l-15 3q-1 0 -25 2q-7 1 -17 2.5t-14 1.5l-49 6l-7 72h324l-16 -545q0 -146 46 -204t142 -58q109 0 227 86v606q0 17 -15 24q-17 9 -62 13
l-80 6l-9 72h334v-773q0 -39 23 -47zM834 1427l-347 -383h-49l187 383h209z" />
    <glyph glyph-name="ucircumflex" unicode="&#xfb;" horiz-adv-x="1083" 
d="M1069 57l-6 -51l-322 -37v146h-10q-176 -146 -328 -146q-103 0 -167 64q-78 78 -78 229l6 539q0 8 -2 16q-1 5 -5 9q-3 3 -12 5l-15 3q-1 0 -25 2q-7 1 -17 2.5t-14 1.5l-49 6l-7 72h324l-16 -545q0 -146 46 -204t142 -58q109 0 227 86v606q0 17 -15 24q-17 9 -62 13
l-80 6l-9 72h334v-773q0 -39 23 -47zM780 1044h-55l-203 222h-4l-203 -222h-55l217 383h86z" />
    <glyph glyph-name="udieresis" unicode="&#xfc;" horiz-adv-x="1083" 
d="M1069 57l-6 -51l-322 -37v146h-10q-176 -146 -328 -146q-103 0 -167 64q-78 78 -78 229l6 539q0 8 -2 16q-1 5 -5 9q-3 3 -12 5l-15 3q-1 0 -25 2q-7 1 -17 2.5t-14 1.5l-49 6l-7 72h324l-16 -545q0 -146 46 -204t142 -58q109 0 227 86v606q0 17 -15 24q-17 9 -62 13
l-80 6l-9 72h334v-773q0 -39 23 -47zM428 1243q0 -53 -33 -91t-88 -38t-88 38t-33 91t33 91t88 38t88 -38t33 -91zM838 1243q0 -53 -33 -91t-88 -38t-88 38t-33 91t33 91t88 38t88 -38t33 -91z" />
    <glyph glyph-name="yacute" unicode="&#xfd;" horiz-adv-x="940" 
d="M991 918l-6 -70l-53 -14q-44 -6 -69 -34q-22 -25 -58 -118l-240 -631l-102 -313q-46 -143 -99 -208t-137 -65q-64 0 -101 31q-36 30 -36 82q0 47 26 78t74 31q78 0 121 -66q36 17 80 135l86 240v4l-364 754q-21 43 -38 56q-18 14 -67 21l-43 13l-8 74h451l-7 -72l-51 -8
q-75 -7 -45 -74l246 -543l168 475q24 73 14 102q-11 30 -65 36l-56 14l-6 70h385zM762 1427l-346 -383h-49l186 383h209z" />
    <glyph glyph-name="thorn" unicode="&#xfe;" horiz-adv-x="1054" 
d="M989 494q0 -212 -129 -368q-130 -157 -348 -157q-92 0 -188 29h-2v-387q0 -33 77 -37l80 -6l6 -72h-465l7 72l57 6q70 6 70 39v1571q0 39 -23 47l-137 57l6 51l322 88v-645h10q135 152 293 152q167 0 266 -126q98 -125 98 -314zM807 418q0 168 -71 271q-70 102 -183 102
q-132 0 -231 -121v-492q113 -125 233 -125q101 0 177 103q75 102 75 262z" />
    <glyph glyph-name="ydieresis" unicode="&#xff;" horiz-adv-x="940" 
d="M991 918l-6 -70l-53 -14q-44 -6 -69 -34q-22 -25 -58 -118l-240 -631l-102 -313q-46 -143 -99 -208t-137 -65q-64 0 -101 31q-36 30 -36 82q0 47 26 78t74 31q78 0 121 -66q36 17 80 135l86 240v4l-364 754q-21 43 -38 56q-18 14 -67 21l-43 13l-8 74h451l-7 -72l-51 -8
q-75 -7 -45 -74l246 -543l168 475q24 73 14 102q-11 30 -65 36l-56 14l-6 70h385zM815 1243q0 -53 -33 -91t-88 -38t-88 38t-33 91t33 91t88 38t88 -38t33 -91zM406 1243q0 -53 -33 -91t-88 -38t-88 38t-33 91t33 91t88 38t88 -38t33 -91z" />
    <glyph glyph-name="Amacron" unicode="&#x100;" horiz-adv-x="1228" 
d="M1262 0h-557l6 72l100 16q27 6 42 14q13 7 13 35q0 27 -9 60q-3 13 -32 104l-51 160h-422l-49 -158q-33 -90 -40 -123q-9 -40 0 -63t44 -29l82 -16l6 -72h-428l6 72l58 14q47 11 74 39q29 31 64 108q30 65 101 265l238 665v74l184 86l387 -1180q15 -42 66 -49l110 -22z
M748 547l-170 551h-13l-184 -551h367zM887 1470h-516l6 84h504z" />
    <glyph glyph-name="amacron" unicode="&#x101;" horiz-adv-x="917" 
d="M918 104q-107 -137 -201 -137q-129 0 -137 150h-11q-134 -148 -254 -148q-97 0 -172 70q-73 69 -73 170q0 126 121 205q122 80 391 143v18q0 158 -51 220q-49 59 -148 59q-51 0 -100 -16q-52 -17 -52 -31q0 -2 12 -17q8 -10 23 -38q13 -24 13 -47q0 -41 -30 -70
q-31 -29 -79 -29q-46 0 -77 28q-30 27 -30 68q0 76 135 162q134 86 255 86q181 0 244 -90q63 -91 53 -332l-15 -348q-5 -80 47 -80q37 0 101 50zM567 184l11 305q-190 -47 -263 -105t-73 -132q0 -68 43 -111t104 -43q81 0 178 86zM700 1108h-516l6 84h504z" />
    <glyph glyph-name="Abreve" unicode="&#x102;" horiz-adv-x="1228" 
d="M1262 0h-557l6 72l100 16q27 6 42 14q13 7 13 35q0 27 -9 60q-3 13 -32 104l-51 160h-422l-49 -158q-33 -90 -40 -123q-9 -40 0 -63t44 -29l82 -16l6 -72h-428l6 72l58 14q47 11 74 39q29 31 64 108q30 65 101 265l238 665v74l184 86l387 -1180q15 -42 66 -49l110 -22z
M748 547l-170 551h-13l-184 -551h367zM897 1790q-18 -85 -26 -115q-16 -57 -33 -103q-22 -59 -50 -93q-29 -36 -71 -58q-45 -24 -101 -24q-55 0 -100 24q-44 23 -72 58q-26 32 -49 93q-21 56 -34 103q-4 15 -25 115h45q79 -174 125 -225q52 -58 110 -58q39 0 72 21
q35 22 63 66q27 42 46 78q15 28 45 95q2 8 3 9l3 6l4 8h45z" />
    <glyph glyph-name="abreve" unicode="&#x103;" horiz-adv-x="917" 
d="M918 104q-107 -137 -201 -137q-129 0 -137 150h-11q-134 -148 -254 -148q-97 0 -172 70q-73 69 -73 170q0 126 121 205q122 80 391 143v18q0 158 -51 220q-49 59 -148 59q-51 0 -100 -16q-52 -17 -52 -31q0 -2 12 -17q8 -10 23 -38q13 -24 13 -47q0 -41 -30 -70
q-31 -29 -79 -29q-46 0 -77 28q-30 27 -30 68q0 76 135 162q134 86 255 86q181 0 244 -90q63 -91 53 -332l-15 -348q-5 -80 47 -80q37 0 101 50zM567 184l11 305q-190 -47 -263 -105t-73 -132q0 -68 43 -111t104 -43q81 0 178 86zM723 1427q-17 -81 -26 -114
q-17 -61 -33 -104q-22 -59 -50 -93t-71 -57q-47 -25 -101 -25q-53 0 -100 25q-45 24 -72 57q-26 32 -49 93q-20 54 -34 104q-5 19 -25 114h45q79 -174 125 -225q51 -57 110 -57q41 0 72 20q34 21 63 67q27 42 46 78q15 28 45 95q2 7 3 8l3 6l4 8h45z" />
    <glyph glyph-name="Aogonek" unicode="&#x104;" horiz-adv-x="1228" 
d="M1077 -444q-82 0 -135 50t-53 138q0 135 178 256h-362l6 72l100 16q27 6 42 14q13 7 13 35q0 27 -9 60q-3 13 -32 104l-51 160h-422l-49 -158q-33 -90 -40 -123q-9 -40 0 -63t44 -29l82 -16l6 -72h-428l6 72l58 14q47 11 74 39q29 31 64 108q30 65 101 265l238 665v74
l184 86l387 -1180q15 -42 66 -49l110 -22l7 -72q-102 -18 -165 -75t-63 -136q0 -49 27 -81t76 -32q63 0 104 41l21 -24q-6 -53 -59 -95t-126 -42zM748 547l-170 551h-13l-184 -551h367z" />
    <glyph glyph-name="aogonek" unicode="&#x105;" horiz-adv-x="917" 
d="M731 -444q-92 0 -145 50q-54 51 -54 142q0 78 46 142q47 65 110 94q-107 5 -108 133h-11q-134 -148 -254 -148q-97 0 -172 70q-73 69 -73 170q0 126 121 205q122 80 391 143v18q0 158 -51 220q-49 59 -148 59q-51 0 -100 -16q-52 -17 -52 -31q0 -2 12 -17q8 -10 23 -38
q13 -24 13 -47q0 -41 -30 -70q-31 -29 -79 -29q-46 0 -77 28q-30 27 -30 68q0 76 135 162q134 86 255 86q181 0 244 -90q63 -91 53 -332l-15 -348q-5 -80 47 -80q37 0 101 50l35 -46q-21 -45 -121 -112q-55 -39 -89 -93q-36 -57 -36 -112q0 -47 33 -79q34 -32 86 -32
q63 0 104 41l20 -24q-6 -53 -58 -95q-53 -42 -126 -42zM567 184l11 305q-190 -47 -263 -105t-73 -132q0 -68 43 -111t104 -43q81 0 178 86z" />
    <glyph glyph-name="Cacute" unicode="&#x106;" horiz-adv-x="1396" 
d="M1270 395l-45 -395l-105 18q-138 -49 -311 -49q-313 0 -513 175q-202 176 -202 483q0 313 205 497q206 185 516 185q158 0 283 -41l164 30v-419h-95l-55 262q-136 82 -307 82q-219 0 -356 -161q-138 -162 -138 -409q0 -270 138 -437q137 -165 382 -165q140 0 252 62
l88 282h99zM1073 1790l-346 -383h-49l186 383h209z" />
    <glyph glyph-name="cacute" unicode="&#x107;" horiz-adv-x="901" 
d="M850 203q-57 -113 -155 -173q-99 -61 -218 -61q-181 0 -296 132q-115 131 -115 327q0 225 143 372q144 148 342 148q133 0 212 -58t79 -138q0 -59 -35 -85t-80 -26q-59 0 -92 57t-17 133v5q-44 32 -112 32q-115 0 -190 -94q-74 -93 -74 -252q0 -174 90 -290
q90 -115 227 -115q154 0 250 108zM805 1427l-346 -383h-49l186 383h209z" />
    <glyph glyph-name="Ccircumflex" unicode="&#x108;" horiz-adv-x="1396" 
d="M1270 395l-45 -395l-105 18q-138 -49 -311 -49q-313 0 -513 175q-202 176 -202 483q0 313 205 497q206 185 516 185q158 0 283 -41l164 30v-419h-95l-55 262q-136 82 -307 82q-219 0 -356 -161q-138 -162 -138 -409q0 -270 138 -437q137 -165 382 -165q140 0 252 62
l88 282h99zM1020 1407h-55l-203 221h-4l-203 -221h-55l217 383h86z" />
    <glyph glyph-name="ccircumflex" unicode="&#x109;" horiz-adv-x="901" 
d="M850 203q-57 -113 -155 -173q-99 -61 -218 -61q-181 0 -296 132q-115 131 -115 327q0 225 143 372q144 148 342 148q133 0 212 -58t79 -138q0 -59 -35 -85t-80 -26q-59 0 -92 57t-17 133v5q-44 32 -112 32q-115 0 -190 -94q-74 -93 -74 -252q0 -174 90 -290
q90 -115 227 -115q154 0 250 108zM772 1044h-55l-203 222h-4l-203 -222h-55l217 383h86z" />
    <glyph glyph-name="Cdotaccent" unicode="&#x10a;" horiz-adv-x="1396" 
d="M1270 395l-45 -395l-105 18q-138 -49 -311 -49q-313 0 -513 175q-202 176 -202 483q0 313 205 497q206 185 516 185q158 0 283 -41l164 30v-419h-95l-55 262q-136 82 -307 82q-219 0 -356 -161q-138 -162 -138 -409q0 -270 138 -437q137 -165 382 -165q140 0 252 62
l88 282h99zM920 1606q0 -54 -33 -92q-33 -37 -88 -37t-88 37q-33 38 -33 92q0 53 33 91t88 38t88 -38t33 -91z" />
    <glyph glyph-name="cdotaccent" unicode="&#x10b;" horiz-adv-x="901" 
d="M850 203q-57 -113 -155 -173q-99 -61 -218 -61q-181 0 -296 132q-115 131 -115 327q0 225 143 372q144 148 342 148q133 0 212 -58t79 -138q0 -59 -35 -85t-80 -26q-59 0 -92 57t-17 133v5q-44 32 -112 32q-115 0 -190 -94q-74 -93 -74 -252q0 -174 90 -290
q90 -115 227 -115q154 0 250 108zM633 1243q0 -53 -33 -91t-88 -38t-88 38t-33 91t33 91t88 38t88 -38t33 -91z" />
    <glyph glyph-name="Ccaron" unicode="&#x10c;" horiz-adv-x="1396" 
d="M1270 395l-45 -395l-105 18q-138 -49 -311 -49q-313 0 -513 175q-202 176 -202 483q0 313 205 497q206 185 516 185q158 0 283 -41l164 30v-419h-95l-55 262q-136 82 -307 82q-219 0 -356 -161q-138 -162 -138 -409q0 -270 138 -437q137 -165 382 -165q140 0 252 62
l88 282h99zM999 1790l-217 -383h-86l-217 383h56l202 -221h4l203 221h55z" />
    <glyph glyph-name="ccaron" unicode="&#x10d;" horiz-adv-x="901" 
d="M850 203q-57 -113 -155 -173q-99 -61 -218 -61q-181 0 -296 132q-115 131 -115 327q0 225 143 372q144 148 342 148q133 0 212 -58t79 -138q0 -59 -35 -85t-80 -26q-59 0 -92 57t-17 133v5q-44 32 -112 32q-115 0 -190 -94q-74 -93 -74 -252q0 -174 90 -290
q90 -115 227 -115q154 0 250 108zM772 1427l-217 -383h-86l-217 383h55l203 -221h4l203 221h55z" />
    <glyph glyph-name="Dcaron" unicode="&#x10e;" horiz-adv-x="1406" 
d="M1315 672q0 -289 -201 -481q-200 -191 -569 -191h-461l6 72l84 10q72 8 72 37v1046q0 15 -14 21t-58 12l-84 10l-6 72l469 6q339 4 551 -170q211 -174 211 -444zM1104 618q0 265 -157 425q-156 159 -445 159h-62v-1091l148 -31q243 0 379 151q137 152 137 387zM885 1790
l-217 -383h-86l-217 383h55l203 -221h4l202 221h56z" />
    <glyph glyph-name="dcaron" unicode="&#x10f;" horiz-adv-x="1531" 
d="M1061 57l-6 -51l-322 -37v142h-6q-122 -140 -281 -140q-164 0 -272 130q-108 131 -108 329q0 207 137 358q137 150 360 150q75 0 168 -29h2v328q0 40 -22 47l-146 43l8 51l328 49v-1282q0 -39 23 -47zM733 195v524q-114 131 -233 131q-112 0 -182 -97t-70 -255
q0 -175 77 -281q76 -104 205 -104q112 0 203 82zM1430 1241q0 -117 -81 -213q-78 -92 -212 -194l-54 32q72 53 123 123q54 74 54 146q0 33 -17 64t-40 48q-27 20 -48 32q-13 7 -41 20q-16 7 -16 10q0 53 39 89t104 36q69 0 129 -57t60 -136z" />
    <glyph glyph-name="Dcroat" unicode="&#x110;" horiz-adv-x="1380" 
d="M246 610h-178l6 84h172v443q0 41 -47 49l-111 22l-6 72l455 6q331 4 546 -170t215 -444q0 -310 -197 -491t-573 -181h-446l6 72l111 22q47 8 47 49v467zM426 694h238l6 -84h-244v-499l147 -31q242 -12 386 139q145 153 145 389q0 275 -161 434q-162 160 -456 160h-61
v-508z" />
    <glyph glyph-name="dcroat" unicode="&#x111;" horiz-adv-x="1075" 
d="M1061 57l-6 -51l-322 -37v142h-6q-122 -140 -281 -140q-164 0 -272 130q-108 131 -108 329q0 207 137 358q137 150 360 150q75 0 168 -29h2v162h-229l6 84h223v82q0 40 -22 47l-146 43l8 51l328 49v-272h172l6 -84l-178 -4v-922q0 -39 23 -47zM733 195v524
q-114 131 -233 131q-112 0 -182 -97t-70 -255q0 -175 77 -281q76 -104 205 -104q112 0 203 82z" />
    <glyph glyph-name="Emacron" unicode="&#x112;" horiz-adv-x="1216" 
d="M1126 371l-39 -371h-1003l6 72l84 10q72 8 72 37v1046q0 15 -14 21t-58 12l-84 10l-6 72h1006v-381h-99l-49 199q-15 51 -43 69q-29 19 -105 26q-71 7 -280 7h-74v-510h56q123 0 155 7q34 7 45 38l47 137h80l-43 -440h-78l-16 131q-5 31 -37 40q-33 9 -160 9h-49v-532h58
q207 0 301 8q86 7 119 27q32 19 49 67l49 189h110zM889 1470h-516l6 84h504z" />
    <glyph glyph-name="emacron" unicode="&#x113;" horiz-adv-x="944" 
d="M850 203q-57 -113 -155 -173q-99 -61 -218 -61q-181 0 -296 132q-115 131 -115 327q0 226 138 373t339 147q145 0 232 -84t87 -223q0 -61 -12 -111l-608 9v-23q0 -177 90 -288t227 -111q154 0 250 108zM674 604q8 125 -41 196q-49 72 -135 72q-88 0 -160 -72t-90 -196
h426zM752 1108h-516l6 84h503z" />
    <glyph glyph-name="Ebreve" unicode="&#x114;" horiz-adv-x="1216" 
d="M1126 371l-39 -371h-1003l6 72l84 10q72 8 72 37v1046q0 15 -14 21t-58 12l-84 10l-6 72h1006v-381h-99l-49 199q-15 51 -43 69q-29 19 -105 26q-71 7 -280 7h-74v-510h56q123 0 155 7q34 7 45 38l47 137h80l-43 -440h-78l-16 131q-5 31 -37 40q-33 9 -160 9h-49v-532h58
q207 0 301 8q86 7 119 27q32 19 49 67l49 189h110zM918 1790q-18 -85 -26 -115q-13 -47 -34 -103q-23 -61 -49 -93q-28 -35 -72 -58q-45 -24 -100 -24t-100 24q-44 23 -72 58q-26 32 -49 93q-21 56 -34 103q-8 30 -26 115h45q79 -174 125 -225q52 -58 111 -58q39 0 72 21
t62 66q27 42 46 78q15 28 45 95q2 8 3 9l3 6l4 8h46z" />
    <glyph glyph-name="ebreve" unicode="&#x115;" horiz-adv-x="944" 
d="M850 203q-57 -113 -155 -173q-99 -61 -218 -61q-181 0 -296 132q-115 131 -115 327q0 226 138 373t339 147q145 0 232 -84t87 -223q0 -61 -12 -111l-608 9v-23q0 -177 90 -288t227 -111q154 0 250 108zM674 604q8 125 -41 196q-49 72 -135 72q-88 0 -160 -72t-90 -196
h426zM813 1427q-17 -81 -26 -114q-17 -61 -33 -104q-23 -61 -49 -93q-27 -33 -72 -57q-47 -25 -101 -25q-53 0 -100 25q-45 24 -72 57q-26 32 -49 93q-16 43 -33 104q-9 33 -26 114h45q79 -174 125 -225q51 -57 110 -57q41 0 72 20q34 21 63 67q27 42 46 78q15 28 45 95
q2 7 3 8l3 6l4 8h45z" />
    <glyph glyph-name="Edotaccent" unicode="&#x116;" horiz-adv-x="1216" 
d="M1126 371l-39 -371h-1003l6 72l84 10q72 8 72 37v1046q0 15 -14 21t-58 12l-84 10l-6 72h1006v-381h-99l-49 199q-15 51 -43 69q-29 19 -105 26q-71 7 -280 7h-74v-510h56q123 0 155 7q34 7 45 38l47 137h80l-43 -440h-78l-16 131q-5 31 -37 40q-33 9 -160 9h-49v-532h58
q207 0 301 8q86 7 119 27q32 19 49 67l49 189h110zM745 1606q0 -56 -32 -92q-33 -37 -88 -37t-88 37q-33 38 -33 92q0 53 33 91t88 38t88 -38q32 -36 32 -91z" />
    <glyph glyph-name="edotaccent" unicode="&#x117;" horiz-adv-x="944" 
d="M850 203q-57 -113 -155 -173q-99 -61 -218 -61q-181 0 -296 132q-115 131 -115 327q0 226 138 373t339 147q145 0 232 -84t87 -223q0 -61 -12 -111l-608 9v-23q0 -177 90 -288t227 -111q154 0 250 108zM674 604q8 125 -41 196q-49 72 -135 72q-88 0 -160 -72t-90 -196
h426zM633 1243q0 -53 -33 -91t-88 -38t-88 38t-33 91t33 91t88 38t88 -38t33 -91z" />
    <glyph glyph-name="Eogonek" unicode="&#x118;" horiz-adv-x="1216" 
d="M903 -444q-82 0 -135 50t-53 138q0 135 178 256h-809l6 72l84 10q72 8 72 37v1046q0 15 -14 21t-58 12l-84 10l-6 72h1006v-381h-99l-49 199q-15 51 -43 69q-29 19 -105 26q-71 7 -280 7h-74v-510h56q123 0 155 7q34 7 45 38l47 137h80l-43 -440h-78l-16 131
q-5 31 -37 40q-33 9 -160 9h-49v-532h58q207 0 301 8q86 7 119 27q32 19 49 67l49 189h110l-39 -371h-112q-115 -106 -115 -211q0 -49 27 -81t76 -32q63 0 104 41l20 -24q-6 -53 -58 -95q-53 -42 -126 -42z" />
    <glyph glyph-name="eogonek" unicode="&#x119;" horiz-adv-x="944" 
d="M580 -444q-83 0 -136 50t-53 138q0 66 43 128q42 62 107 103q-21 -6 -64 -6q-181 0 -296 132q-115 131 -115 327q0 226 138 373t339 147q145 0 232 -84t87 -223q0 -61 -12 -111l-608 9v-23q0 -177 90 -288t227 -111q154 0 250 108l41 -22q-60 -118 -168 -191
q-65 -47 -104 -107q-41 -64 -41 -116q0 -51 26 -81q27 -32 76 -32q63 0 104 41l21 -24q-6 -53 -58 -95t-126 -42zM674 604q8 125 -41 196q-49 72 -135 72q-88 0 -160 -72t-90 -196h426z" />
    <glyph glyph-name="Ecaron" unicode="&#x11a;" horiz-adv-x="1216" 
d="M1126 371l-39 -371h-1003l6 72l84 10q72 8 72 37v1046q0 15 -14 21t-58 12l-84 10l-6 72h1006v-381h-99l-49 199q-15 51 -43 69q-29 19 -105 26q-71 7 -280 7h-74v-510h56q123 0 155 7q34 7 45 38l47 137h80l-43 -440h-78l-16 131q-5 31 -37 40q-33 9 -160 9h-49v-532h58
q207 0 301 8q86 7 119 27q32 19 49 67l49 189h110zM913 1790l-217 -383h-86l-217 383h56l202 -221h4l203 221h55z" />
    <glyph glyph-name="ecaron" unicode="&#x11b;" horiz-adv-x="944" 
d="M850 203q-57 -113 -155 -173q-99 -61 -218 -61q-181 0 -296 132q-115 131 -115 327q0 226 138 373t339 147q145 0 232 -84t87 -223q0 -61 -12 -111l-608 9v-23q0 -177 90 -288t227 -111q154 0 250 108zM674 604q8 125 -41 196q-49 72 -135 72q-88 0 -160 -72t-90 -196
h426zM772 1427l-217 -383h-86l-217 383h55l203 -221h4l203 221h55z" />
    <glyph glyph-name="Gcircumflex" unicode="&#x11c;" horiz-adv-x="1466" 
d="M1421 567l-6 -71l-88 -11q-72 -7 -72 -36v-308l123 -12l4 -55q-296 -105 -573 -105q-311 0 -513 176t-202 482q0 312 215 497t527 185q158 0 278 -41l164 30v-419h-96l-56 262q-128 82 -307 82q-217 0 -362 -162q-146 -163 -146 -408q0 -273 133 -437q134 -165 371 -165
q139 0 250 51v351q0 14 -14 21q-13 6 -58 11l-104 11l-6 71h538zM1053 1407h-56l-202 221h-4l-203 -221h-56l218 383h86z" />
    <glyph glyph-name="gcircumflex" unicode="&#x11d;" horiz-adv-x="962" 
d="M973 764l-223 39v-12q57 -76 57 -170q0 -136 -107 -232q-106 -96 -256 -96q-69 0 -122 14q-33 -17 -60 -42q-29 -27 -29 -54q0 -42 38 -69q37 -27 94 -27q49 0 131 3t110 3q124 0 212 -80q87 -80 87 -195q0 -162 -148 -265t-380 -103q-163 0 -259 65q-98 66 -98 174
q0 157 199 240v8q-58 10 -99 57q-40 46 -40 97q0 58 47 113q46 53 121 87q0 9 8 11q-174 82 -174 282q0 144 105 240t262 96q123 0 245 -57h279v-127zM637 614q0 143 -70 213q-52 52 -118 52q-85 0 -139 -66t-54 -168q0 -153 84 -237q46 -46 104 -46q83 0 129 46
q64 62 64 206zM750 -231q0 176 -215 184q-50 2 -119 -1q-76 -3 -115 -3q-39 -15 -81 -63t-42 -113q0 -98 81 -158q80 -59 212 -59q125 0 202 60t77 153zM700 1044h-55l-203 222h-4l-202 -222h-56l217 383h86z" />
    <glyph glyph-name="Gbreve" unicode="&#x11e;" horiz-adv-x="1466" 
d="M1421 567l-6 -71l-88 -11q-72 -7 -72 -36v-308l123 -12l4 -55q-296 -105 -573 -105q-311 0 -513 176t-202 482q0 312 215 497t527 185q158 0 278 -41l164 30v-419h-96l-56 262q-128 82 -307 82q-217 0 -362 -162q-146 -163 -146 -408q0 -273 133 -437q134 -165 371 -165
q139 0 250 51v351q0 14 -14 21q-13 6 -58 11l-104 11l-6 71h538zM1096 1790q-18 -85 -26 -115q-13 -47 -34 -103q-23 -61 -49 -93q-28 -35 -72 -58q-45 -24 -100 -24t-100 24q-44 23 -72 58q-26 32 -49 93q-21 56 -34 103q-4 15 -25 115h45q79 -174 125 -225q52 -58 110 -58
q39 0 72 21t62 66q27 42 46 78q15 28 45 95q2 8 3 9l4 6l4 8h45z" />
    <glyph glyph-name="gbreve" unicode="&#x11f;" horiz-adv-x="962" 
d="M973 764l-223 39v-12q57 -76 57 -170q0 -136 -107 -232q-106 -96 -256 -96q-69 0 -122 14q-33 -17 -60 -42q-29 -27 -29 -54q0 -42 38 -69q37 -27 94 -27q49 0 131 3t110 3q124 0 212 -80q87 -80 87 -195q0 -162 -148 -265t-380 -103q-163 0 -259 65q-98 66 -98 174
q0 157 199 240v8q-58 10 -99 57q-40 46 -40 97q0 58 47 113q46 53 121 87q0 9 8 11q-174 82 -174 282q0 144 105 240t262 96q123 0 245 -57h279v-127zM637 614q0 143 -70 213q-52 52 -118 52q-85 0 -139 -66t-54 -168q0 -153 84 -237q46 -46 104 -46q83 0 129 46
q64 62 64 206zM750 -231q0 176 -215 184q-50 2 -119 -1q-76 -3 -115 -3q-39 -15 -81 -63t-42 -113q0 -98 81 -158q80 -59 212 -59q125 0 202 60t77 153zM725 1427q-17 -81 -26 -114q-17 -61 -33 -104q-22 -59 -50 -93t-71 -57q-47 -25 -101 -25q-53 0 -100 25q-45 24 -72 57
q-26 32 -49 93q-20 54 -34 104q-5 19 -25 114h45q79 -174 125 -225q51 -57 110 -57q41 0 72 20q34 21 63 67q27 42 46 78q15 28 45 95q2 7 3 8l3 6l4 8h45z" />
    <glyph glyph-name="Gdotaccent" unicode="&#x120;" horiz-adv-x="1466" 
d="M1421 567l-6 -71l-88 -11q-72 -7 -72 -36v-308l123 -12l4 -55q-296 -105 -573 -105q-311 0 -513 176t-202 482q0 312 215 497t527 185q158 0 278 -41l164 30v-419h-96l-56 262q-128 82 -307 82q-217 0 -362 -162q-146 -163 -146 -408q0 -273 133 -437q134 -165 371 -165
q139 0 250 51v351q0 14 -14 21q-13 6 -58 11l-104 11l-6 71h538zM936 1606q0 -54 -33 -91q-33 -38 -88 -38t-88 38q-33 37 -33 91q0 53 33 91t88 38t88 -38t33 -91z" />
    <glyph glyph-name="gdotaccent" unicode="&#x121;" horiz-adv-x="962" 
d="M973 764l-223 39v-12q57 -76 57 -170q0 -136 -107 -232q-106 -96 -256 -96q-69 0 -122 14q-33 -17 -60 -42q-29 -27 -29 -54q0 -42 38 -69q37 -27 94 -27q49 0 131 3t110 3q124 0 212 -80q87 -80 87 -195q0 -162 -148 -265t-380 -103q-163 0 -259 65q-98 66 -98 174
q0 157 199 240v8q-58 10 -99 57q-40 46 -40 97q0 58 47 113q46 53 121 87q0 9 8 11q-174 82 -174 282q0 144 105 240t262 96q123 0 245 -57h279v-127zM637 614q0 143 -70 213q-52 52 -118 52q-85 0 -139 -66t-54 -168q0 -153 84 -237q46 -46 104 -46q83 0 129 46
q64 62 64 206zM750 -231q0 176 -215 184q-50 2 -119 -1q-76 -3 -115 -3q-39 -15 -81 -63t-42 -113q0 -98 81 -158q80 -59 212 -59q125 0 202 60t77 153zM571 1243q0 -55 -32 -91q-33 -38 -88 -38t-88 38t-33 91t33 91t88 38t88 -38q32 -36 32 -91z" />
    <glyph glyph-name="Gcommaaccent" unicode="&#x122;" horiz-adv-x="1466" 
d="M1421 567l-6 -71l-88 -11q-72 -7 -72 -36v-308l123 -12l4 -55q-296 -105 -573 -105q-311 0 -513 176t-202 482q0 312 215 497t527 185q158 0 278 -41l164 30v-419h-96l-56 262q-128 82 -307 82q-217 0 -362 -162q-146 -163 -146 -408q0 -273 133 -437q134 -165 371 -165
q139 0 250 51v351q0 14 -14 21q-13 6 -58 11l-104 11l-6 71h538zM991 -266q0 -99 -69 -171q-71 -74 -164 -108l-39 33q57 21 98 65t41 103q0 33 -13 58t-33 40t-39 24q-12 5 -32 13l-14 4q0 45 31 73t86 28q60 0 104 -50q43 -49 43 -112z" />
    <glyph glyph-name="gcommaaccent" unicode="&#x123;" horiz-adv-x="962" 
d="M973 764l-223 39v-12q57 -76 57 -170q0 -136 -107 -232q-106 -96 -256 -96q-69 0 -122 14q-33 -17 -60 -42q-29 -27 -29 -54q0 -42 38 -69q37 -27 94 -27q49 0 131 3t110 3q124 0 212 -80q87 -80 87 -195q0 -162 -148 -265t-380 -103q-163 0 -259 65q-98 66 -98 174
q0 157 199 240v8q-58 10 -99 57q-40 46 -40 97q0 58 47 113q46 53 121 87q0 9 8 11q-174 82 -174 282q0 144 105 240t262 96q123 0 245 -57h279v-127zM637 614q0 143 -70 213q-52 52 -118 52q-85 0 -139 -66t-54 -168q0 -153 84 -237q46 -46 104 -46q83 0 129 46
q64 62 64 206zM750 -231q0 176 -215 184q-50 2 -119 -1q-76 -3 -115 -3q-39 -15 -81 -63t-42 -113q0 -98 81 -158q80 -59 212 -59q125 0 202 60t77 153zM328 1217q0 99 69 171t164 107l39 -33q-58 -22 -98 -64q-41 -44 -41 -104q0 -33 13 -58t33 -40q19 -15 39 -24
q12 -5 32 -13l14 -4q0 -45 -31 -73q-30 -27 -86 -27q-61 0 -104 49t-43 113z" />
    <glyph glyph-name="Hcircumflex" unicode="&#x124;" horiz-adv-x="1509" 
d="M1425 0h-518l6 72l84 10q72 8 72 37v493h-629v-497q0 -25 72 -33l84 -10l6 -72h-518l6 72l84 10q72 8 72 37v1046q0 15 -14 21t-58 12l-84 10l-6 72h518l-6 -72l-84 -10q-72 -8 -72 -37v-463h629v467q0 15 -14 22q-13 6 -58 11l-84 10l-6 72h518l-6 -72l-84 -10
q-71 -7 -71 -37v-1046q0 -15 13 -21q14 -6 58 -12l84 -10zM1014 1407h-56l-202 221h-4l-203 -221h-55l217 383h86z" />
    <glyph glyph-name="hcircumflex" unicode="&#x125;" horiz-adv-x="1087" 
d="M1065 0h-440l6 72l53 6q70 5 70 39v428q0 146 -46 204t-143 58q-109 0 -227 -86v-606q0 -33 78 -37l69 -6l7 -72h-455l6 72l57 6q70 6 70 39v1067q0 39 -23 47l-137 57l6 51l322 88v-624h10q175 145 328 145q105 0 168 -63q78 -78 78 -230v-538q0 -18 16 -25
q18 -8 68 -14l53 -6zM721 1509h-55l-203 222h-4l-203 -222h-55l217 383h86z" />
    <glyph glyph-name="Hbar" unicode="&#x126;" horiz-adv-x="1509" 
d="M1425 0h-518l6 72l84 10q72 8 72 37v493h-629v-497q0 -25 72 -33l84 -10l6 -72h-518l6 72l84 10q72 8 72 37v788h-242l6 84h236v174q0 15 -14 21t-58 12l-84 10l-6 72h518l-6 -72l-84 -10q-72 -8 -72 -37v-170h629v174q0 15 -14 22q-13 6 -58 11l-84 10l-6 72h518l-6 -72
l-84 -10q-71 -7 -71 -37v-170h239l6 -84h-245v-792q0 -15 13 -21q14 -6 58 -12l84 -10zM440 698h629v209h-629v-209z" />
    <glyph glyph-name="hbar" unicode="&#x127;" horiz-adv-x="1087" 
d="M1065 0h-440l6 72l53 6q70 5 70 39v428q0 146 -46 204t-143 58q-109 0 -227 -86v-606q0 -33 78 -37l69 -6l7 -72h-455l6 72l57 6q70 6 70 39v954h-178l6 84h172v29q0 39 -23 47l-137 57l6 51l322 88v-272h223l6 -84h-229v-268h10q175 145 328 145q105 0 168 -63
q78 -78 78 -230v-538q0 -18 16 -25q18 -8 68 -14l53 -6z" />
    <glyph glyph-name="Imacron" unicode="&#x12a;" horiz-adv-x="737" 
d="M649 0h-559l6 72l105 10q71 7 71 37v1046q0 15 -13 21q-14 6 -58 12l-105 10l-6 72h559l-6 -72l-104 -10q-72 -8 -72 -37v-1046q0 -25 72 -33l104 -10zM629 1470h-516l6 84h504z" />
    <glyph glyph-name="imacron" unicode="&#x12b;" horiz-adv-x="557" 
d="M506 0h-445l7 72l57 6q70 6 70 39v518q0 93 -16 123q-15 28 -73 43l-49 12l2 55l303 80v-833q0 -33 78 -37l60 -6zM539 1108h-516l6 84h503z" />
    <glyph glyph-name="Ibreve" unicode="&#x12c;" horiz-adv-x="737" 
d="M649 0h-559l6 72l105 10q71 7 71 37v1046q0 15 -13 21q-14 6 -58 12l-105 10l-6 72h559l-6 -72l-104 -10q-72 -8 -72 -37v-1046q0 -25 72 -33l104 -10zM649 1790q-21 -100 -25 -115q-13 -47 -34 -103q-23 -61 -49 -93q-28 -35 -72 -58q-45 -24 -100 -24q-56 0 -101 24
q-42 22 -71 58q-28 34 -50 93q-17 46 -33 103q-8 30 -26 115h45q79 -174 125 -225q52 -58 111 -58q38 0 71 21q35 22 63 66q27 42 46 78q15 28 45 95q2 8 3 9l3 6l4 8h45z" />
    <glyph glyph-name="ibreve" unicode="&#x12d;" horiz-adv-x="557" 
d="M506 0h-445l7 72l57 6q70 6 70 39v518q0 93 -16 123q-15 28 -73 43l-49 12l2 55l303 80v-833q0 -33 78 -37l60 -6zM559 1427q-20 -95 -25 -114q-14 -50 -34 -104q-23 -61 -49 -93q-27 -33 -72 -57q-47 -25 -100 -25q-54 0 -101 25q-45 24 -72 57q-26 32 -49 93
q-16 43 -33 104q-9 33 -26 114h45q79 -174 125 -225q51 -57 111 -57q40 0 71 20q34 21 63 67q27 42 46 78q15 28 45 95q2 7 3 8l3 6l4 8h45z" />
    <glyph glyph-name="Iogonek" unicode="&#x12e;" horiz-adv-x="737" 
d="M467 -444q-82 0 -135 50t-53 138q0 74 61 147q63 76 137 109h-387l6 72l105 10q71 7 71 37v1046q0 15 -13 21q-14 6 -58 12l-105 10l-6 72h559l-6 -72l-104 -10q-72 -8 -72 -37v-1046q0 -25 72 -33l104 -10l6 -72q-99 -16 -163 -74q-62 -56 -62 -137q0 -49 27 -81t75 -32
q64 0 105 41l20 -24q-6 -53 -58 -95q-53 -42 -126 -42z" />
    <glyph glyph-name="iogonek" unicode="&#x12f;" horiz-adv-x="557" 
d="M319 -444q-85 0 -142 45q-56 44 -56 133q0 84 65 155q66 72 152 111h-277l7 72l57 6q70 6 70 39v518q0 93 -16 123q-15 28 -73 43l-49 12l2 55l303 80v-833q0 -33 78 -37l60 -6l6 -72q-106 -16 -172 -75t-66 -148q0 -46 30 -73q31 -28 81 -28q63 0 104 41l21 -24
q-6 -53 -59 -95t-126 -42zM369 1245q0 -51 -29 -86t-82 -35t-82 35t-29 86t29 86t82 35t82 -35t29 -86z" />
    <glyph glyph-name="Idotaccent" unicode="&#x130;" horiz-adv-x="737" 
d="M649 0h-559l6 72l105 10q71 7 71 37v1046q0 15 -13 21q-14 6 -58 12l-105 10l-6 72h559l-6 -72l-104 -10q-72 -8 -72 -37v-1046q0 -25 72 -33l104 -10zM489 1606q0 -56 -32 -92q-33 -37 -88 -37t-88 37q-33 38 -33 92q0 53 33 91t88 38t88 -38q32 -36 32 -91z" />
    <glyph glyph-name="dotlessi" unicode="&#x131;" horiz-adv-x="557" 
d="M506 0h-445l7 72l57 6q70 6 70 39v518q0 93 -16 123q-15 28 -73 43l-49 12l2 55l303 80v-833q0 -33 78 -37l60 -6z" />
    <glyph glyph-name="Jcircumflex" unicode="&#x134;" horiz-adv-x="831" 
d="M786 1280l-6 -72l-102 -10q-72 -8 -72 -37v-626q0 -278 -100 -421q-101 -145 -287 -145q-89 0 -148 38t-59 93q0 43 28 69t75 26q54 0 100 -43q35 -34 57 -111h2q49 16 76 49q26 32 44 130t18 276v669q0 15 -15 22q-13 6 -57 11l-125 10l-6 72h577zM748 1407h-56
l-203 221h-4l-202 -221h-56l217 383h86z" />
    <glyph glyph-name="jcircumflex" unicode="&#x135;" horiz-adv-x="526" 
d="M356 -49q-15 -217 -123 -351q-109 -135 -221 -135q-64 0 -107 32q-42 31 -42 91q0 43 34 73q35 30 74 30q95 0 146 -115q71 30 71 246v813q0 95 -15 123t-73 43l-49 12l2 55l303 80v-997zM522 1044h-55l-203 222h-4l-203 -222h-55l217 383h86z" />
    <glyph glyph-name="Kcommaaccent" unicode="&#x136;" horiz-adv-x="1308" 
d="M1300 0h-479l6 72l70 14q30 6 -4 57l-330 482l-123 -117v-393q0 -25 72 -33l84 -10l6 -72h-518l6 72l84 10q72 8 72 37v1046q0 15 -14 21t-58 12l-84 10l-6 72h518l-6 -72l-84 -10q-72 -8 -72 -37v-538l377 366q181 176 84 205q-2 0 -10 1.5t-14 2.5l-84 10l-7 72h519
l-7 -72l-69 -10q-46 -7 -93 -36q-45 -28 -116 -99l-326 -320l416 -571q41 -56 61 -70q21 -16 64 -22l59 -8zM846 -266q0 -98 -70 -171q-71 -74 -164 -108l-39 33q59 22 99 65q41 44 41 103q0 32 -14 58t-32 40q-19 15 -39 24q-17 8 -34 13l-12 4q0 46 30 73q31 28 86 28
q61 0 105 -50q43 -49 43 -112z" />
    <glyph glyph-name="kcommaaccent" unicode="&#x137;" horiz-adv-x="1007" 
d="M993 0h-293l-110 184l-170 256l-82 -75v-250q0 -17 15 -24q13 -7 63 -13l49 -6l6 -72h-434l6 72l57 6q70 8 70 39v1067q0 39 -23 47l-137 57l6 51l322 88v-958l141 131q133 122 154 162q8 18 8 29q0 42 -80 53l-31 4l-6 70h443l-6 -70l-31 -6q-54 -8 -111 -48
q-57 -41 -178 -151l-100 -92l274 -381q63 -85 105 -90l67 -8zM676 -266q0 -98 -70 -171q-71 -74 -164 -108l-39 33q59 22 99 65q41 44 41 103q0 32 -14 58t-32 40q-19 15 -39 24q-12 5 -32 13l-14 4q0 46 30 73q31 28 86 28q61 0 105 -50q43 -49 43 -112z" />
    <glyph glyph-name="Lacute" unicode="&#x139;" horiz-adv-x="1175" 
d="M1102 410l-45 -410h-973l6 72l84 10q72 8 72 37v1046q0 15 -14 21t-58 12l-84 10l-6 72h537l-7 -72l-102 -10q-72 -8 -72 -37v-1081h64q187 0 273 8q79 7 112 27q31 19 47 67l59 228h107zM696 1790l-346 -383h-49l186 383h209z" />
    <glyph glyph-name="lacute" unicode="&#x13a;" horiz-adv-x="557" 
d="M506 0h-445l7 72l57 6q70 6 70 39v1067q0 39 -23 47l-137 57l6 51l321 88v-1312q0 -33 78 -37l60 -6zM571 1872l-346 -383h-49l186 383h209z" />
    <glyph glyph-name="Lcommaaccent" unicode="&#x13b;" horiz-adv-x="1175" 
d="M1102 410l-45 -410h-973l6 72l84 10q72 8 72 37v1046q0 15 -14 21t-58 12l-84 10l-6 72h537l-7 -72l-102 -10q-72 -8 -72 -37v-1081h64q187 0 273 8q79 7 112 27q31 19 47 67l59 228h107zM739 -266q0 -99 -69 -171q-71 -74 -164 -108l-39 33q57 21 98 65t41 103
q0 33 -13 58t-33 40t-39 24q-17 8 -34 13l-12 4q0 45 31 73t86 28q60 0 104 -50q43 -49 43 -112z" />
    <glyph glyph-name="lcommaaccent" unicode="&#x13c;" horiz-adv-x="557" 
d="M506 0h-445l7 72l57 6q70 6 70 39v1067q0 39 -23 47l-137 57l6 51l321 88v-1312q0 -33 78 -37l60 -6zM416 -266q0 -98 -70 -171q-71 -74 -164 -108l-39 33q59 22 99 65q41 44 41 103q0 32 -14 58t-32 40q-19 15 -39 24q-17 8 -34 13l-12 4q0 46 30 73q31 28 86 28
q61 0 105 -50q43 -49 43 -112z" />
    <glyph glyph-name="Lcaron" unicode="&#x13d;" horiz-adv-x="1413" 
d="M1102 410l-45 -410h-973l6 72l84 10q72 8 72 37v1046q0 15 -14 21t-58 12l-84 10l-6 72h537l-7 -72l-102 -10q-72 -8 -72 -37v-1081h64q187 0 273 8q79 7 112 27q31 19 47 67l59 228h107zM1354 1118q0 -117 -81 -213q-78 -92 -212 -194l-53 32q70 52 122 123
q54 74 54 146q0 33 -17 64q-16 29 -41 48q-27 20 -48 32q-26 15 -40 21q-16 7 -16 9q0 53 39 89t104 36q69 0 129 -57t60 -136z" />
    <glyph glyph-name="lcaron" unicode="&#x13e;" horiz-adv-x="993" 
d="M506 0h-445l7 72l57 6q70 6 70 39v1067q0 39 -23 47l-137 57l6 51l321 88v-1312q0 -33 78 -37l60 -6zM891 1241q0 -117 -81 -213q-78 -92 -212 -194l-53 32q72 53 123 123q53 73 53 146q0 35 -16 64t-41 48q-24 18 -49 32q-17 9 -40 20q-16 7 -16 10q0 53 39 89t104 36
q69 0 129 -57t60 -136z" />
    <glyph glyph-name="Ldot" unicode="&#x13f;" horiz-adv-x="1433" 
d="M1102 410l-45 -410h-973l6 72l84 10q72 8 72 37v1046q0 15 -14 21t-58 12l-84 10l-6 72h537l-7 -72l-102 -10q-72 -8 -72 -37v-1081h64q187 0 273 8q79 7 112 27q31 19 47 67l59 228h107zM1458 641q0 -55 -39 -96t-96 -41q-58 0 -99 41q-40 40 -40 96q0 55 40 94t99 39
t97 -39q38 -40 38 -94z" />
    <glyph glyph-name="ldotaccent" unicode="&#x140;" horiz-adv-x="929" 
d="M506 0h-445l7 72l57 6q70 6 70 39v1067q0 39 -23 47l-137 57l6 51l321 88v-1312q0 -33 78 -37l60 -6zM877 641q0 -55 -39 -96t-97 -41t-99 41q-40 40 -40 96q0 55 40 94t99 39q61 0 98 -39q38 -40 38 -94z" />
    <glyph glyph-name="Lslash" unicode="&#x141;" horiz-adv-x="1175" 
d="M246 416l-176 -47v88l176 47v633q0 41 -47 49l-109 22l-6 72h537l-7 -72l-127 -22q-47 -8 -47 -49v-582l226 59v-88l-226 -59v-387h64q187 0 273 8q79 7 112 27q31 19 47 67l59 228h107l-45 -410h-973l6 72l109 22q47 8 47 49v273z" />
    <glyph glyph-name="lslash" unicode="&#x142;" horiz-adv-x="557" 
d="M362 461v-318q0 -41 48 -49l110 -22l6 -72h-465l7 72l79 22q48 15 48 49v271l-43 -13q-68 -16 -91 -22l-43 -12v88l177 47v672q0 39 -23 47l-137 57l6 51l321 98v-880l170 47v-88z" />
    <glyph glyph-name="Nacute" unicode="&#x143;" horiz-adv-x="1540" 
d="M1473 1280l-7 -72l-96 -16q-36 -6 -50 -16q-15 -10 -27 -57q-11 -44 -13 -115q-2 -92 -2 -222v-800h-105l-808 1103h-11v-587q0 -130 2 -222q1 -66 14 -115q12 -48 25 -57q14 -10 49 -16l99 -16l6 -72h-469l6 72l96 16q36 6 50 16q15 10 27 57q11 44 13 115q2 92 2 222
v503q0 87 -19 129q-19 43 -69 64l-96 14l-6 72h371l731 -1001h10v503q0 317 -22 365q-16 37 -68 45l-98 16l-7 72h472zM1065 1790l-346 -383h-49l186 383h209z" />
    <glyph glyph-name="nacute" unicode="&#x144;" horiz-adv-x="1120" 
d="M1090 0h-441l6 72l54 6q69 4 69 39v428q0 146 -46 204t-142 58q-110 0 -228 -86v-606q0 -33 78 -37l70 -6l6 -72h-455l7 72l57 6q70 6 70 39v518q0 93 -16 123q-15 28 -73 43l-49 12l2 55l303 80v-145h11q175 145 327 145q105 0 168 -63q78 -78 78 -230v-538
q0 -17 17 -25q18 -8 67 -14l53 -6zM893 1427l-346 -383h-49l186 383h209z" />
    <glyph glyph-name="Ncommaaccent" unicode="&#x145;" horiz-adv-x="1540" 
d="M1473 1280l-7 -72l-96 -16q-36 -6 -50 -16q-15 -10 -27 -57q-11 -44 -13 -115q-2 -92 -2 -222v-800h-105l-808 1103h-11v-587q0 -130 2 -222q1 -66 14 -115q12 -48 25 -57q14 -10 49 -16l99 -16l6 -72h-469l6 72l96 16q36 6 50 16q15 10 27 57q11 44 13 115q2 92 2 222
v503q0 87 -19 129q-19 43 -69 64l-96 14l-6 72h371l731 -1001h10v503q0 317 -22 365q-16 37 -68 45l-98 16l-7 72h472zM922 -266q0 -98 -70 -171q-71 -74 -164 -108l-39 33q59 22 99 65t40 103q0 33 -13 58t-33 40t-39 24q-16 7 -31 13l-15 4q0 45 31 73t86 28q61 0 105 -50
q43 -49 43 -112z" />
    <glyph glyph-name="ncommaaccent" unicode="&#x146;" horiz-adv-x="1120" 
d="M1090 0h-441l6 72l54 6q69 4 69 39v428q0 146 -46 204t-142 58q-110 0 -228 -86v-606q0 -33 78 -37l70 -6l6 -72h-455l7 72l57 6q70 6 70 39v518q0 93 -16 123q-15 28 -73 43l-49 12l2 55l303 80v-145h11q175 145 327 145q105 0 168 -63q78 -78 78 -230v-538
q0 -17 17 -25q18 -8 67 -14l53 -6zM711 -266q0 -98 -70 -171q-71 -74 -164 -108l-39 33q59 22 99 65q41 44 41 103q0 32 -14 58q-13 25 -33 40q-21 16 -38 24t-34 13l-13 4q0 45 31 73t86 28q61 0 105 -50q43 -49 43 -112z" />
    <glyph glyph-name="Ncaron" unicode="&#x147;" horiz-adv-x="1540" 
d="M1473 1280l-7 -72l-96 -16q-36 -6 -50 -16q-15 -10 -27 -57q-11 -44 -13 -115q-2 -92 -2 -222v-800h-105l-808 1103h-11v-587q0 -130 2 -222q1 -66 14 -115q12 -48 25 -57q14 -10 49 -16l99 -16l6 -72h-469l6 72l96 16q36 6 50 16q15 10 27 57q11 44 13 115q2 92 2 222
v503q0 87 -19 129q-19 43 -69 64l-96 14l-6 72h371l731 -1001h10v503q0 317 -22 365q-16 37 -68 45l-98 16l-7 72h472zM1030 1790l-217 -383h-86l-217 383h55l203 -221h4l203 221h55z" />
    <glyph glyph-name="ncaron" unicode="&#x148;" horiz-adv-x="1120" 
d="M1090 0h-441l6 72l54 6q69 4 69 39v428q0 146 -46 204t-142 58q-110 0 -228 -86v-606q0 -33 78 -37l70 -6l6 -72h-455l7 72l57 6q70 6 70 39v518q0 93 -16 123q-15 28 -73 43l-49 12l2 55l303 80v-145h11q175 145 327 145q105 0 168 -63q78 -78 78 -230v-538
q0 -17 17 -25q18 -8 67 -14l53 -6zM805 1427l-217 -383h-86l-217 383h55l203 -221h4l203 221h55z" />
    <glyph glyph-name="Omacron" unicode="&#x14c;" horiz-adv-x="1525" 
d="M1432 645q0 -277 -196 -478q-195 -200 -476 -200q-287 0 -476 186q-190 187 -190 474q0 277 196 479q195 201 476 201q287 0 476 -186q190 -187 190 -476zM1214 623q0 273 -133 439q-134 167 -323 167q-191 0 -319 -155t-128 -423q0 -275 132 -441q132 -167 323 -167
q190 0 319 156t129 424zM1026 1470h-516l6 84h504z" />
    <glyph glyph-name="omacron" unicode="&#x14d;" horiz-adv-x="1060" 
d="M995 485q0 -216 -139 -365q-140 -151 -344 -151q-201 0 -324 140q-122 138 -122 346q0 206 141 350q140 143 344 143q195 0 320 -132q124 -131 124 -331zM809 399q0 272 -109 387q-72 78 -178 78q-116 0 -193 -93q-77 -94 -77 -253q0 -271 110 -387q72 -78 179 -78
q112 0 190 93t78 253zM791 1108h-517l7 84h503z" />
    <glyph glyph-name="Obreve" unicode="&#x14e;" horiz-adv-x="1525" 
d="M1432 645q0 -277 -196 -478q-195 -200 -476 -200q-287 0 -476 186q-190 187 -190 474q0 277 196 479q195 201 476 201q287 0 476 -186q190 -187 190 -476zM1214 623q0 273 -133 439q-134 167 -323 167q-191 0 -319 -155t-128 -423q0 -275 132 -441q132 -167 323 -167
q190 0 319 156t129 424zM1049 1790q-18 -85 -26 -115q-13 -47 -34 -103q-23 -61 -49 -93q-28 -35 -72 -58q-45 -24 -100 -24t-100 24q-44 23 -72 58q-26 32 -49 93q-21 56 -34 103q-8 30 -26 115h45q79 -174 125 -225q52 -58 111 -58q39 0 72 21t62 66q27 42 46 78
q15 28 45 95q2 8 3 9l3 6l5 8h45z" />
    <glyph glyph-name="obreve" unicode="&#x14f;" horiz-adv-x="1060" 
d="M995 485q0 -216 -139 -365q-140 -151 -344 -151q-201 0 -324 140q-122 138 -122 346q0 206 141 350q140 143 344 143q195 0 320 -132q124 -131 124 -331zM809 399q0 272 -109 387q-72 78 -178 78q-116 0 -193 -93q-77 -94 -77 -253q0 -271 110 -387q72 -78 179 -78
q112 0 190 93t78 253zM811 1427q-17 -81 -26 -114q-17 -61 -33 -104q-22 -59 -50 -93t-71 -57q-47 -25 -101 -25q-53 0 -100 25q-45 24 -72 57q-26 32 -49 93q-20 54 -34 104q-5 19 -25 114h45q79 -174 125 -225q51 -57 110 -57q41 0 72 20q34 21 63 67q27 42 46 78
q15 28 45 95q2 7 3 8l3 6l4 8h45z" />
    <glyph glyph-name="Ohungarumlaut" unicode="&#x150;" horiz-adv-x="1525" 
d="M1432 645q0 -277 -196 -478q-195 -200 -476 -200q-287 0 -476 186q-190 187 -190 474q0 277 196 479q195 201 476 201q287 0 476 -186q190 -187 190 -476zM1214 623q0 273 -133 439q-134 167 -323 167q-191 0 -319 -155t-128 -423q0 -275 132 -441q132 -167 323 -167
q190 0 319 156t129 424zM1196 1790l-315 -383h-45l176 383h184zM885 1790l-316 -383h-45l176 383h185z" />
    <glyph glyph-name="ohungarumlaut" unicode="&#x151;" horiz-adv-x="1060" 
d="M995 485q0 -216 -139 -365q-140 -151 -344 -151q-201 0 -324 140q-122 138 -122 346q0 206 141 350q140 143 344 143q195 0 320 -132q124 -131 124 -331zM809 399q0 272 -109 387q-72 78 -178 78q-116 0 -193 -93q-77 -94 -77 -253q0 -271 110 -387q72 -78 179 -78
q112 0 190 93t78 253zM952 1427l-315 -383h-45l176 383h184zM641 1427l-315 -383h-45l176 383h184z" />
    <glyph glyph-name="OE" unicode="&#x152;" horiz-adv-x="1933" 
d="M1843 371l-39 -371h-950q-337 0 -549 173q-211 172 -211 441q0 290 201 479t569 189l942 -2v-381h-90l-49 199q-7 32 -18 47q-9 13 -30 29q-17 13 -72 18q-53 5 -117 6q-88 2 -195 2h-88v-510h74q127 0 159 7q34 7 45 38l48 137h73l-43 -440h-71l-17 131q-5 31 -37 40
q-33 9 -161 9h-70v-532h67q217 0 311 8q86 7 119 27q30 18 46 67l51 189h102zM967 84v1092l-148 30q-249 0 -390 -151q-140 -150 -140 -387q0 -266 162 -425t454 -159h62z" />
    <glyph glyph-name="oe" unicode="&#x153;" horiz-adv-x="1687" 
d="M893 152q-144 -183 -375 -183q-203 0 -328 142q-124 140 -118 348t145 348q140 141 340 141q239 0 363 -188q139 188 372 188q146 0 233 -84t87 -223q0 -57 -13 -111l-608 9v-23q0 -177 90 -288t228 -111q154 0 250 108l40 -22q-58 -114 -154 -173q-99 -61 -218 -61
q-217 0 -334 183zM815 393q5 275 -108 393q-72 78 -179 78q-116 0 -192 -90t-78 -250q-4 -270 111 -393q72 -78 178 -78q113 0 189 90q78 91 79 250zM1423 604q8 125 -41 196q-50 72 -135 72q-88 0 -160 -72t-90 -196h426z" />
    <glyph glyph-name="Racute" unicode="&#x154;" horiz-adv-x="1239" 
d="M791 610l262 -405q53 -73 74 -91q27 -22 59 -28l63 -14l8 -72h-329l-78 141l-246 430l-164 -6v-450q0 -25 72 -33l100 -10l6 -72h-534l6 72l84 10q72 8 72 37v1046q0 15 -14 21t-58 12l-84 10l-6 72h530q236 0 353 -84q116 -83 116 -231q0 -129 -78 -217
q-82 -92 -214 -138zM870 926q0 141 -75 209q-76 69 -224 61l-131 -4v-537l146 -12q132 10 209 81q75 69 75 202zM911 1790l-346 -383h-49l186 383h209z" />
    <glyph glyph-name="racute" unicode="&#x155;" horiz-adv-x="788" 
d="M774 834q0 -50 -28 -83q-27 -32 -78 -32q-62 0 -105 67q-127 -74 -201 -219v-452q0 -33 78 -37l80 -6l6 -72h-465l7 72l57 6q70 6 70 39v518q0 93 -16 123q-15 28 -73 43l-49 12l2 55l303 80v-262h11q88 143 148 203q59 59 130 59q56 0 90 -32q33 -32 33 -82zM786 1427
l-346 -383h-49l187 383h208z" />
    <glyph glyph-name="Rcommaaccent" unicode="&#x156;" horiz-adv-x="1239" 
d="M791 610l262 -405q53 -73 74 -91q27 -22 59 -28l63 -14l8 -72h-329l-78 141l-246 430l-164 -6v-450q0 -25 72 -33l100 -10l6 -72h-534l6 72l84 10q72 8 72 37v1046q0 15 -14 21t-58 12l-84 10l-6 72h530q236 0 353 -84q116 -83 116 -231q0 -129 -78 -217
q-82 -92 -214 -138zM870 926q0 141 -75 209q-76 69 -224 61l-131 -4v-537l146 -12q132 10 209 81q75 69 75 202zM831 -266q0 -99 -69 -171q-71 -74 -164 -108l-39 33q57 21 98 65t41 103q0 33 -13 58t-33 40t-39 24q-16 7 -31 13l-15 4q0 45 31 73t86 28q60 0 104 -50
q43 -49 43 -112z" />
    <glyph glyph-name="rcommaaccent" unicode="&#x157;" horiz-adv-x="788" 
d="M774 834q0 -50 -28 -83q-27 -32 -78 -32q-62 0 -105 67q-127 -74 -201 -219v-452q0 -33 78 -37l80 -6l6 -72h-465l7 72l57 6q70 6 70 39v518q0 93 -16 123q-15 28 -73 43l-49 12l2 55l303 80v-262h11q88 143 148 203q59 59 130 59q56 0 90 -32q33 -32 33 -82zM412 -266
q0 -98 -70 -171q-71 -74 -164 -108l-39 33q59 22 99 65q41 44 41 103q0 32 -14 58q-13 25 -33 40q-21 16 -38 24t-34 13l-13 4q0 45 31 73t86 28q61 0 105 -50q43 -49 43 -112z" />
    <glyph glyph-name="Rcaron" unicode="&#x158;" horiz-adv-x="1239" 
d="M791 610l262 -405q53 -73 74 -91q27 -22 59 -28l63 -14l8 -72h-329l-78 141l-246 430l-164 -6v-450q0 -25 72 -33l100 -10l6 -72h-534l6 72l84 10q72 8 72 37v1046q0 15 -14 21t-58 12l-84 10l-6 72h530q236 0 353 -84q116 -83 116 -231q0 -129 -78 -217
q-82 -92 -214 -138zM870 926q0 141 -75 209q-76 69 -224 61l-131 -4v-537l146 -12q132 10 209 81q75 69 75 202zM879 1790l-217 -383h-87l-217 383h56l202 -221h5l202 221h56z" />
    <glyph glyph-name="rcaron" unicode="&#x159;" horiz-adv-x="788" 
d="M774 834q0 -50 -28 -83q-27 -32 -78 -32q-62 0 -105 67q-127 -74 -201 -219v-452q0 -33 78 -37l80 -6l6 -72h-465l7 72l57 6q70 6 70 39v518q0 93 -16 123q-15 28 -73 43l-49 12l2 55l303 80v-262h11q88 143 148 203q59 59 130 59q56 0 90 -32q33 -32 33 -82zM682 1427
l-217 -383h-86l-217 383h55l203 -221h4l203 221h55z" />
    <glyph glyph-name="Sacute" unicode="&#x15a;" horiz-adv-x="1058" 
d="M967 350q0 -151 -131 -265t-349 -116q-172 -1 -362 62l-29 364h86l92 -280q132 -64 250 -60q124 1 196 70q71 68 71 160q0 50 -19 96q-18 43 -42 69q-23 25 -74 54q-49 28 -81 41q-11 4 -45.5 17.5t-54.5 21.5q-67 27 -108 45q-46 20 -94 52q-51 34 -82 69q-28 32 -50 89
q-20 51 -20 119q0 142 108 245q109 104 318 106q113 1 246 -23l106 29v-408h-86l-63 262q-114 50 -232 50q-107 0 -168 -58q-59 -56 -59 -139q0 -37 8 -71q7 -31 35 -60q30 -31 39 -43q12 -15 63 -39q58 -27 62 -29q3 -1 12 -4.5t26.5 -10.5t36.5 -15q17 -6 25 -11
q82 -32 113 -46q40 -18 98 -54q54 -33 85 -71q31 -37 51 -92q22 -60 22 -126zM862 1790l-346 -383h-49l186 383h209z" />
    <glyph glyph-name="sacute" unicode="&#x15b;" horiz-adv-x="831" 
d="M748 266q0 -123 -98 -210t-261 -87q-165 0 -276 43l-13 271h103l47 -181q80 -57 164 -57q68 0 127 46t59 118q0 30 -14 52q-15 24 -30 39q-16 16 -53 35q-27 14 -58 26l-70 28q-65 25 -102 44q-44 23 -82 53q-44 35 -65 81q-22 49 -22 111q0 108 89 191t239 83
q115 0 205 -34l63 26l13 -291h-101l-41 170q-67 51 -155 51q-69 0 -115 -37q-47 -38 -47 -98q0 -63 48 -98t171 -84q61 -23 101 -44q38 -19 84 -54q47 -35 68 -83q22 -50 22 -110zM725 1427l-346 -383h-49l186 383h209z" />
    <glyph glyph-name="Scircumflex" unicode="&#x15c;" horiz-adv-x="1058" 
d="M967 350q0 -151 -131 -265t-349 -116q-172 -1 -362 62l-29 364h86l92 -280q132 -64 250 -60q124 1 196 70q71 68 71 160q0 50 -19 96q-18 43 -42 69q-23 25 -74 54q-49 28 -81 41q-11 4 -45.5 17.5t-54.5 21.5q-67 27 -108 45q-46 20 -94 52q-51 34 -82 69q-28 32 -50 89
q-20 51 -20 119q0 142 108 245q109 104 318 106q113 1 246 -23l106 29v-408h-86l-63 262q-114 50 -232 50q-107 0 -168 -58q-59 -56 -59 -139q0 -37 8 -71q7 -31 35 -60q30 -31 39 -43q12 -15 63 -39q58 -27 62 -29q3 -1 12 -4.5t26.5 -10.5t36.5 -15q17 -6 25 -11
q82 -32 113 -46q40 -18 98 -54q54 -33 85 -71q31 -37 51 -92q22 -60 22 -126zM788 1407h-55l-203 221h-4l-202 -221h-56l217 383h86z" />
    <glyph glyph-name="scircumflex" unicode="&#x15d;" horiz-adv-x="831" 
d="M748 266q0 -123 -98 -210t-261 -87q-165 0 -276 43l-13 271h103l47 -181q80 -57 164 -57q68 0 127 46t59 118q0 30 -14 52q-15 24 -30 39q-16 16 -53 35q-27 14 -58 26l-70 28q-65 25 -102 44q-44 23 -82 53q-44 35 -65 81q-22 49 -22 111q0 108 89 191t239 83
q115 0 205 -34l63 26l13 -291h-101l-41 170q-67 51 -155 51q-69 0 -115 -37q-47 -38 -47 -98q0 -63 48 -98t171 -84q61 -23 101 -44q38 -19 84 -54q47 -35 68 -83q22 -50 22 -110zM698 1044h-55l-203 222h-4l-203 -222h-55l217 383h86z" />
    <glyph glyph-name="Scedilla" unicode="&#x15e;" horiz-adv-x="1058" 
d="M768 -303q0 -102 -115 -169q-114 -66 -315 -81l-19 49q322 39 322 176q0 49 -45 79t-129 30q-61 0 -127 -12v41l152 159h-5q-172 -1 -362 62l-29 364h86l92 -280q132 -64 250 -60q124 1 196 70q71 68 71 160q0 50 -19 96q-18 43 -42 69q-23 25 -74 54q-49 28 -81 41
q-11 4 -45.5 17.5t-54.5 21.5q-67 27 -108 45q-46 20 -94 52q-51 34 -82 69q-28 32 -50 89q-20 51 -20 119q0 142 108 245q109 104 318 106q113 1 246 -23l106 29v-408h-86l-63 262q-114 50 -232 50q-107 0 -168 -58q-59 -56 -59 -139q0 -37 8 -71q7 -31 35 -60
q30 -31 39 -43q12 -15 63 -39q58 -27 62 -29q3 -1 12 -4.5t26.5 -10.5t36.5 -15q17 -6 25 -11q82 -32 113 -46q40 -18 98 -54q54 -33 85 -71q31 -37 51 -92q22 -60 22 -126q0 -133 -102 -238q-104 -107 -275 -135l-90 -94q125 0 196 -49q72 -50 72 -137z" />
    <glyph glyph-name="scedilla" unicode="&#x15f;" horiz-adv-x="831" 
d="M655 -303q0 -103 -114 -169t-316 -81l-18 49q321 39 321 176q0 49 -45 79t-129 30q-64 0 -127 -12v41l152 159q-156 5 -266 43l-13 271h103l47 -181q80 -57 164 -57q68 0 127 46t59 118q0 30 -14 52q-15 24 -30 39q-16 16 -53 35q-27 14 -58 26l-70 28q-65 25 -102 44
q-44 23 -82 53q-44 35 -65 81q-22 49 -22 111q0 108 89 191t239 83q112 0 205 -35l63 27l13 -291h-101l-41 170q-67 51 -155 51q-69 0 -115 -37q-47 -38 -47 -98q0 -63 48 -98t171 -84q61 -23 101 -44q38 -19 84 -54q47 -35 68 -83q22 -50 22 -110q0 -104 -72 -185
q-73 -82 -199 -104l-90 -94q126 0 197 -49t71 -137z" />
    <glyph glyph-name="Scaron" unicode="&#x160;" horiz-adv-x="1058" 
d="M967 350q0 -151 -131 -265t-349 -116q-172 -1 -362 62l-29 364h86l92 -280q132 -64 250 -60q124 1 196 70q71 68 71 160q0 50 -19 96q-18 43 -42 69q-23 25 -74 54q-49 28 -81 41q-11 4 -45.5 17.5t-54.5 21.5q-67 27 -108 45q-46 20 -94 52q-51 34 -82 69q-28 32 -50 89
q-20 51 -20 119q0 142 108 245q109 104 318 106q113 1 246 -23l106 29v-408h-86l-63 262q-114 50 -232 50q-107 0 -168 -58q-59 -56 -59 -139q0 -37 8 -71q7 -31 35 -60q30 -31 39 -43q12 -15 63 -39q58 -27 62 -29q3 -1 12 -4.5t26.5 -10.5t36.5 -15q17 -6 25 -11
q82 -32 113 -46q40 -18 98 -54q54 -33 85 -71q31 -37 51 -92q22 -60 22 -126zM788 1769l-217 -383h-86l-217 383h56l202 -221h4l203 221h55z" />
    <glyph glyph-name="scaron" unicode="&#x161;" horiz-adv-x="831" 
d="M748 266q0 -123 -98 -210t-261 -87q-165 0 -276 43l-13 271h103l47 -181q80 -57 164 -57q68 0 127 46t59 118q0 30 -14 52q-15 24 -30 39q-16 16 -53 35q-27 14 -58 26l-70 28q-65 25 -102 44q-44 23 -82 53q-44 35 -65 81q-22 49 -22 111q0 108 89 191t239 83
q115 0 205 -34l63 26l13 -291h-101l-41 170q-67 51 -155 51q-69 0 -115 -37q-47 -38 -47 -98q0 -63 48 -98t171 -84q61 -23 101 -44q38 -19 84 -54q47 -35 68 -83q22 -50 22 -110zM676 1427l-217 -383h-86l-217 383h55l203 -221h4l203 221h55z" />
    <glyph glyph-name="Tcommaaccent" unicode="&#x162;" horiz-adv-x="1267" 
d="M1196 879h-98l-47 198q-16 53 -34 73q-20 22 -84 35q-65 13 -198 15h-4v-1085q0 -25 72 -33l123 -10l6 -72h-596l6 72l123 10q72 8 72 37v1081h-5q-195 0 -247 -17q-55 -18 -76 -85l-57 -219h-103l35 401h1112v-401zM768 -266q0 -98 -70 -171q-71 -75 -163 -108l-39 33
q57 21 98 65t41 103q0 33 -13 58t-33 40q-19 15 -39 24q-17 8 -34 13l-12 4q0 45 31 73t86 28q60 0 104 -50q43 -49 43 -112z" />
    <glyph glyph-name="tcommaaccent" unicode="&#x163;" horiz-adv-x="729" 
d="M692 102q-55 -61 -132 -97t-148 -36q-112 0 -178 71q-66 70 -64 218l14 551l-166 10l2 62l134 110l133 113l65 -12l-2 -174h336l-14 -103h-320l-16 -512q-6 -201 176 -201q77 0 170 52zM541 -264q0 -98 -70 -171q-71 -74 -164 -108l-39 33q59 22 99 65q41 44 41 103
q0 32 -14 58q-13 25 -33 40q-21 16 -38 24q-12 5 -32 13l-15 4q0 45 31 73t86 28q61 0 105 -50q43 -49 43 -112z" />
    <glyph glyph-name="Tcaron" unicode="&#x164;" horiz-adv-x="1267" 
d="M1196 879h-98l-47 198q-16 53 -34 73q-20 22 -84 35q-65 13 -198 15h-4v-1085q0 -25 72 -33l123 -10l6 -72h-596l6 72l123 10q72 8 72 37v1081h-5q-195 0 -247 -17q-55 -18 -76 -85l-57 -219h-103l35 401h1112v-401zM893 1790l-217 -383h-86l-217 383h55l203 -221h4
l203 221h55z" />
    <glyph glyph-name="tcaron" unicode="&#x165;" horiz-adv-x="757" 
d="M692 102q-55 -61 -132 -97t-148 -36q-112 0 -178 71q-66 70 -64 218l14 551l-166 10l2 62l134 110l133 113l65 -12l-2 -174h336l-14 -103h-320l-16 -512q-6 -201 176 -201q77 0 170 52zM721 1292q0 -94 -65 -171q-64 -76 -169 -154l-43 26q55 38 99 98q43 58 43 115
q0 26 -14 51q-15 27 -32 40q-21 16 -38 26q-6 3 -31 16l-14 7q0 42 30 71q31 29 84 29q54 0 102 -45t48 -109z" />
    <glyph glyph-name="Umacron" unicode="&#x16a;" horiz-adv-x="1462" 
d="M1413 1280l-6 -72l-96 -16q-36 -6 -50 -16q-15 -10 -27 -57q-11 -44 -13 -115q-2 -92 -2 -222v-364q0 -206 -133 -328q-131 -121 -361 -121q-233 0 -361 116t-128 343v737q0 15 -14 21t-58 12l-84 10l-6 72h518l-6 -72l-84 -10q-72 -8 -72 -37v-688q0 -389 367 -389
q160 0 250 94t90 260v344q0 314 -23 365q-17 38 -67 45l-99 16l-6 72h471zM1032 1470h-516l6 84h504z" />
    <glyph glyph-name="umacron" unicode="&#x16b;" horiz-adv-x="1083" 
d="M1069 57l-6 -51l-322 -37v146h-10q-176 -146 -328 -146q-103 0 -167 64q-78 78 -78 229l6 539q0 8 -2 16q-1 5 -5 9q-3 3 -12 5l-15 3q-1 0 -25 2q-7 1 -17 2.5t-14 1.5l-49 6l-7 72h324l-16 -545q0 -146 46 -204t142 -58q109 0 227 86v606q0 17 -15 24q-17 9 -62 13
l-80 6l-9 72h334v-773q0 -39 23 -47zM760 1108h-516l6 84h504z" />
    <glyph glyph-name="Ubreve" unicode="&#x16c;" horiz-adv-x="1462" 
d="M1413 1280l-6 -72l-96 -16q-36 -6 -50 -16q-15 -10 -27 -57q-11 -44 -13 -115q-2 -92 -2 -222v-364q0 -206 -133 -328q-131 -121 -361 -121q-233 0 -361 116t-128 343v737q0 15 -14 21t-58 12l-84 10l-6 72h518l-6 -72l-84 -10q-72 -8 -72 -37v-688q0 -389 367 -389
q160 0 250 94t90 260v344q0 314 -23 365q-17 38 -67 45l-99 16l-6 72h471zM1053 1790q-18 -85 -26 -115q-13 -47 -34 -103q-23 -61 -49 -93q-28 -35 -72 -58q-45 -24 -100 -24t-100 24q-44 23 -72 58q-26 32 -49 93q-21 56 -34 103q-4 15 -25 115h45q79 -174 125 -225
q52 -58 110 -58q39 0 72 21t62 66q27 42 46 78q15 28 45 95q2 8 3 9l4 6l4 8h45z" />
    <glyph glyph-name="ubreve" unicode="&#x16d;" horiz-adv-x="1083" 
d="M1069 57l-6 -51l-322 -37v146h-10q-176 -146 -328 -146q-103 0 -167 64q-78 78 -78 229l6 539q0 8 -2 16q-1 5 -5 9q-3 3 -12 5l-15 3q-1 0 -25 2q-7 1 -17 2.5t-14 1.5l-49 6l-7 72h324l-16 -545q0 -146 46 -204t142 -58q109 0 227 86v606q0 17 -15 24q-17 9 -62 13
l-80 6l-9 72h334v-773q0 -39 23 -47zM780 1427q-20 -95 -25 -114q-14 -50 -34 -104q-23 -61 -49 -93q-27 -33 -72 -57q-47 -25 -100 -25q-54 0 -101 25q-43 23 -71 57q-26 32 -49 93q-20 54 -34 104q-9 33 -26 114h45q79 -174 125 -225q51 -57 111 -57q40 0 71 20
q34 21 63 67q27 42 46 78q15 28 45 95q2 7 3 8l3 6l4 8h45z" />
    <glyph glyph-name="Uring" unicode="&#x16e;" horiz-adv-x="1462" 
d="M1413 1280l-6 -72l-96 -16q-36 -6 -50 -16q-15 -10 -27 -57q-11 -44 -13 -115q-2 -92 -2 -222v-364q0 -206 -133 -328q-131 -121 -361 -121q-233 0 -361 116t-128 343v737q0 15 -14 21t-58 12l-84 10l-6 72h518l-6 -72l-84 -10q-72 -8 -72 -37v-688q0 -389 367 -389
q160 0 250 94t90 260v344q0 314 -23 365q-17 38 -67 45l-99 16l-6 72h471zM946 1606q0 -78 -50 -131q-51 -54 -132 -54t-132 54q-50 53 -50 131t50 131t132 53t132 -53t50 -131zM885 1606q0 53 -33 91t-88 38t-88 -38t-33 -91q0 -54 33 -92q33 -37 88 -37t88 37q33 38 33 92
z" />
    <glyph glyph-name="uring" unicode="&#x16f;" horiz-adv-x="1083" 
d="M1069 57l-6 -51l-322 -37v146h-10q-176 -146 -328 -146q-103 0 -167 64q-78 78 -78 229l6 539q0 8 -2 16q-1 5 -5 9q-3 3 -12 5l-15 3q-1 0 -25 2q-7 1 -17 2.5t-14 1.5l-49 6l-7 72h324l-16 -545q0 -146 46 -204t142 -58q109 0 227 86v606q0 17 -15 24q-17 9 -62 13
l-80 6l-9 72h334v-773q0 -39 23 -47zM682 1243q0 -78 -50 -131t-132 -53t-132 53q-51 54 -51 131t51 131q50 53 132 53t132 -53t50 -131zM621 1243q0 53 -33 91t-88 38t-88 -38t-33 -91t33 -91t88 -38t88 38t33 91z" />
    <glyph glyph-name="Uhungarumlaut" unicode="&#x170;" horiz-adv-x="1462" 
d="M1413 1280l-6 -72l-96 -16q-36 -6 -50 -16q-15 -10 -27 -57q-11 -44 -13 -115q-2 -92 -2 -222v-364q0 -206 -133 -328q-131 -121 -361 -121q-233 0 -361 116t-128 343v737q0 15 -14 21t-58 12l-84 10l-6 72h518l-6 -72l-84 -10q-72 -8 -72 -37v-688q0 -389 367 -389
q160 0 250 94t90 260v344q0 314 -23 365q-17 38 -67 45l-99 16l-6 72h471zM1194 1790l-315 -383h-45l176 383h184zM883 1790l-316 -383h-45l176 383h185z" />
    <glyph glyph-name="uhungarumlaut" unicode="&#x171;" horiz-adv-x="1083" 
d="M1069 57l-6 -51l-322 -37v146h-10q-176 -146 -328 -146q-103 0 -167 64q-78 78 -78 229l6 539q0 8 -2 16q-1 5 -5 9q-3 3 -12 5l-15 3q-1 0 -25 2q-7 1 -17 2.5t-14 1.5l-49 6l-7 72h324l-16 -545q0 -146 46 -204t142 -58q109 0 227 86v606q0 17 -15 24q-17 9 -62 13
l-80 6l-9 72h334v-773q0 -39 23 -47zM631 1427l-316 -383h-45l176 383h185zM942 1427l-315 -383h-45l176 383h184z" />
    <glyph glyph-name="Uogonek" unicode="&#x172;" horiz-adv-x="1462" 
d="M893 -444q-82 0 -135 50t-53 138q0 124 151 238q-67 -13 -131 -13q-233 0 -361 116t-128 343v737q0 15 -14 21t-58 12l-84 10l-6 72h518l-6 -72l-84 -10q-72 -8 -72 -37v-688q0 -389 367 -389q160 0 250 94t90 260v344q0 314 -23 365q-17 38 -67 45l-99 16l-6 72h471
l-6 -72l-96 -16q-36 -6 -50 -16q-15 -10 -27 -57q-11 -44 -13 -115q-2 -92 -2 -222v-364q0 -255 -211 -391q-71 -46 -115 -113q-43 -65 -43 -125q0 -49 27 -81t75 -32q64 0 105 41l20 -24q-6 -53 -58 -95q-53 -42 -126 -42z" />
    <glyph glyph-name="uogonek" unicode="&#x173;" horiz-adv-x="1083" 
d="M879 -444q-92 0 -144 43q-53 44 -53 125q0 182 221 262l-162 -17v146h-10q-176 -146 -328 -146q-103 0 -167 64q-78 78 -78 229l6 539q0 8 -2 16q-1 5 -5 9q-3 3 -12 5l-15 3q-1 0 -25 2q-7 1 -17 2.5t-14 1.5l-49 6l-7 72h324l-16 -545q0 -146 46 -204t142 -58
q109 0 227 86v606q0 17 -15 24q-17 9 -62 13l-80 6l-9 72h334v-773q0 -39 23 -47l137 -41l-6 -51q-108 -38 -171 -98q-65 -62 -65 -139q0 -93 111 -93q63 0 104 41l21 -24q-6 -53 -58 -95q-53 -42 -126 -42z" />
    <glyph glyph-name="Wcircumflex" unicode="&#x174;" horiz-adv-x="1894" 
d="M1921 1280l-6 -72l-45 -14q-50 -16 -73 -40q-23 -22 -57 -102q-37 -84 -98 -270l-256 -784h-122l-289 862h-6l-310 -862h-124l-385 1139q-15 42 -64 49l-113 22l-6 72h559l-6 -72l-102 -16q-47 -8 -47 -41q0 -25 47 -172l229 -721h10l267 727l-52 152q-15 42 -65 49
l-107 22l-6 72h551l-6 -72l-106 -16q-24 -5 -33 -14q-10 -10 -9 -37q2 -30 10 -62q7 -26 32 -100l231 -723l10 2l164 524q56 184 72 267q15 78 -1 105q-15 26 -71 38l-82 16l-6 72h471zM1247 1407h-55l-203 221h-4l-203 -221h-55l217 383h86z" />
    <glyph glyph-name="wcircumflex" unicode="&#x175;" horiz-adv-x="1425" 
d="M1458 918l-6 -70l-43 -10q-53 -8 -77 -35t-54 -121l-227 -700h-99l-227 593l-238 -593h-98l-274 772q-16 41 -35 59q-18 17 -60 23l-45 8l-6 74h434l-6 -72l-47 -8q-75 -10 -51 -78l195 -563l186 487l-25 70q-16 42 -35 57q-20 16 -69 23l-47 12l-6 72h442l-6 -70
l-47 -10q-75 -6 -51 -78l202 -570l150 492q24 78 13 113q-12 37 -75 45l-41 8l-6 70h379zM979 1044h-55l-203 222h-4l-203 -222h-55l217 383h86z" />
    <glyph glyph-name="Ycircumflex" unicode="&#x176;" horiz-adv-x="1232" 
d="M1241 1280l-6 -72l-29 -8q-59 -17 -102 -49q-42 -31 -88 -102l-289 -488v-446q0 -25 72 -33l123 -10l6 -72h-598l6 72l125 10q71 7 71 37v413l-368 586q-43 59 -109 74l-65 16l-6 72h524l-6 -72l-82 -12q-26 -5 -34 -17q-9 -14 -5 -39q5 -28 22 -65q13 -29 54 -96
l205 -338h10l229 403q45 73 40 109q-4 34 -58 45l-49 10l-7 72h414zM928 1407h-56l-202 221h-4l-203 -221h-55l217 383h86z" />
    <glyph glyph-name="ycircumflex" unicode="&#x177;" horiz-adv-x="940" 
d="M991 918l-6 -70l-53 -14q-44 -6 -69 -34q-22 -25 -58 -118l-240 -631l-102 -313q-46 -143 -99 -208t-137 -65q-64 0 -101 31q-36 30 -36 82q0 47 26 78t74 31q78 0 121 -66q36 17 80 135l86 240v4l-364 754q-21 43 -38 56q-18 14 -67 21l-43 13l-8 74h451l-7 -72l-51 -8
q-75 -7 -45 -74l246 -543l168 475q24 73 14 102q-11 30 -65 36l-56 14l-6 70h385zM770 1044h-55l-203 222h-4l-203 -222h-55l217 383h86z" />
    <glyph glyph-name="Ydieresis" unicode="&#x178;" horiz-adv-x="1232" 
d="M1241 1280l-6 -72l-29 -8q-59 -17 -102 -49q-42 -31 -88 -102l-289 -488v-446q0 -25 72 -33l123 -10l6 -72h-598l6 72l125 10q71 7 71 37v413l-368 586q-43 59 -109 74l-65 16l-6 72h524l-6 -72l-82 -12q-26 -5 -34 -17q-9 -14 -5 -39q5 -28 22 -65q13 -29 54 -96
l205 -338h10l229 403q45 73 40 109q-4 34 -58 45l-49 10l-7 72h414zM983 1585q0 -53 -33 -91t-88 -38t-88 38t-33 91q0 54 33 91q33 38 88 38t88 -38q33 -37 33 -91zM573 1585q0 -55 -32 -91q-33 -38 -88 -38t-88 38t-33 91q0 54 33 91q33 38 88 38t88 -38q32 -36 32 -91z
" />
    <glyph glyph-name="Zacute" unicode="&#x179;" horiz-adv-x="1169" 
d="M1126 385l-43 -385h-1003v74l799 1116v10h-238q-170 0 -248 -15q-76 -15 -101 -40q-23 -23 -46 -88l-41 -170h-88v393h987v-76l-797 -1116l-2 -10l248 2q181 0 263 13q85 13 111 35q24 20 46 77l49 180h104zM897 1790l-346 -383h-49l186 383h209z" />
    <glyph glyph-name="zacute" unicode="&#x17a;" horiz-adv-x="950" 
d="M850 850l-578 -774h82q212 0 280 23q70 24 109 104l72 147h98l-84 -350h-768v68l582 774h-51q-211 0 -275 -23q-63 -22 -79 -104l-39 -148h-103v351h754v-68zM788 1427l-346 -383h-49l187 383h208z" />
    <glyph glyph-name="Zdotaccent" unicode="&#x17b;" horiz-adv-x="1169" 
d="M1126 385l-43 -385h-1003v74l799 1116v10h-238q-170 0 -248 -15q-76 -15 -101 -40q-23 -23 -46 -88l-41 -170h-88v393h987v-76l-797 -1116l-2 -10l248 2q181 0 263 13q85 13 111 35q24 20 46 77l49 180h104zM715 1606q0 -54 -33 -92q-33 -37 -88 -37t-88 37
q-33 38 -33 92q0 53 33 91t88 38t88 -38t33 -91z" />
    <glyph glyph-name="zdotaccent" unicode="&#x17c;" horiz-adv-x="950" 
d="M850 850l-578 -774h82q212 0 280 23q70 24 109 104l72 147h98l-84 -350h-768v68l582 774h-51q-211 0 -275 -23q-63 -22 -79 -104l-39 -148h-103v351h754v-68zM596 1243q0 -53 -33 -91t-88 -38t-88 38t-33 91t33 91t88 38t88 -38t33 -91z" />
    <glyph glyph-name="Zcaron" unicode="&#x17d;" horiz-adv-x="1169" 
d="M1126 385l-43 -385h-1003v74l799 1116v10h-238q-170 0 -248 -15q-76 -15 -101 -40q-23 -23 -46 -88l-41 -170h-88v393h987v-76l-797 -1116l-2 -10l248 2q181 0 263 13q85 13 111 35q24 20 46 77l49 180h104zM844 1769l-217 -383h-86l-217 383h55l203 -221h4l202 221h56z
" />
    <glyph glyph-name="zcaron" unicode="&#x17e;" horiz-adv-x="950" 
d="M850 850l-578 -774h82q212 0 280 23q70 24 109 104l72 147h98l-84 -350h-768v68l582 774h-51q-211 0 -275 -23q-63 -22 -79 -104l-39 -148h-103v351h754v-68zM725 1427l-217 -383h-86l-217 383h55l203 -221h4l203 221h55z" />
    <glyph glyph-name="florin" unicode="&#x192;" 
d="M1061 1149q0 -50 -29 -85q-28 -34 -74 -34q-53 0 -87 40t-40 108l-122 -23q-34 -58 -95 -360h242l8 -99h-262q-45 -229 -97 -390q-49 -151 -132 -240q-99 -99 -242 -99q-67 0 -114 36q-46 36 -46 93q0 49 29 81t74 32q53 0 85 -41t38 -102l118 47q47 93 97 387l28 188
l-178 8l6 60l195 47q61 263 168 375q51 53 121 82q72 30 135 30q77 0 126 -41q48 -40 48 -100z" />
    <glyph glyph-name="Aringacute" unicode="&#x1fa;" horiz-adv-x="1228" 
d="M537 1241q-51 21 -77 67q-28 48 -28 101q0 78 50 131t132 53t132 -53q51 -54 51 -131q0 -107 -82 -158l364 -1108q15 -42 66 -49l110 -22l7 -72h-557l6 72l100 16q27 6 42 14q13 7 13 35q0 27 -9 60q-3 13 -32 104l-51 160h-422l-49 -158q-33 -90 -40 -123q-9 -40 0 -63
t44 -29l82 -16l6 -72h-428l6 72l58 14q47 11 74 39q29 31 64 108q30 65 101 265zM748 547l-170 555h-13l-184 -555h367zM735 1409q0 53 -33 91t-88 38t-88 -38q-32 -36 -32 -91t32 -91q33 -38 88 -38t88 38t33 91zM928 2015l-346 -383h-50l187 383h209z" />
    <glyph glyph-name="aringacute" unicode="&#x1fb;" horiz-adv-x="909" 
d="M627 1243q0 -78 -50 -131t-133 -53q-82 0 -132 53t-50 131t50 131t132 53q83 0 133 -53t50 -131zM918 104q-107 -137 -201 -137q-129 0 -137 150h-11q-134 -148 -254 -148q-97 0 -172 70q-73 69 -73 170q0 126 121 205q122 80 391 143v18q0 158 -51 220q-49 59 -148 59
q-51 0 -100 -16q-52 -17 -52 -31q0 -2 12 -17q8 -10 23 -38q13 -24 13 -47q0 -41 -30 -70q-31 -29 -79 -29q-46 0 -77 28q-30 27 -30 68q0 76 135 162q134 86 255 86q181 0 244 -90q63 -91 53 -332l-15 -348q-5 -80 47 -80q37 0 101 50zM565 1243q0 53 -33 91t-88 38
t-88 -38q-32 -36 -32 -91t32 -91q33 -38 88 -38t88 38t33 91zM567 184l11 305q-190 -47 -263 -105t-73 -132q0 -68 43 -111t104 -43q81 0 178 86zM737 1901l-346 -383h-49l186 383h209z" />
    <glyph glyph-name="AEacute" unicode="&#x1fc;" horiz-adv-x="1644" 
d="M1579 371l-39 -371h-956l6 72l110 22q48 8 48 49v318h-386l-63 -127q-46 -94 -59 -125q-19 -45 -23 -71q-5 -27 5 -37q8 -8 32 -13l80 -16l6 -72h-442l6 72l59 14q56 17 83 36q29 21 83 104q54 84 150 272l286 569q57 110 -55 131l-55 10l-6 72h1093v-381h-90l-49 199
q-7 29 -19 47q-10 15 -29 29q-17 13 -72 18q-53 5 -118 6q-88 2 -194 2h-43v-510h28q128 0 160 7q34 7 45 38l47 137h74l-43 -440h-72l-16 131q-5 31 -37 40q-33 9 -162 9h-24v-532h22q217 0 311 8q85 7 118 27q30 18 46 67l52 189h102zM748 547v643h-21l-321 -643h342z
M1319 1790l-346 -383h-49l186 383h209z" />
    <glyph glyph-name="aeacute" unicode="&#x1fd;" horiz-adv-x="1452" 
d="M639 170q-145 -201 -324 -201q-97 0 -172 70q-73 69 -73 170q0 126 121 205q122 80 391 143l2 27q12 141 -45 206q-57 64 -156 64q-51 0 -100 -16q-52 -17 -52 -31q0 -2 12 -17q8 -10 23 -38q13 -24 13 -47q0 -41 -30 -70q-31 -29 -79 -29q-46 0 -77 28q-30 27 -30 68
q0 76 135 162q134 86 255 86q225 0 272 -137q139 135 326 135q145 0 232 -84t87 -223q0 -61 -12 -111l-608 9v-23q0 -177 90 -288t227 -111q154 0 250 108l41 -22q-57 -113 -155 -173q-99 -61 -218 -61q-109 0 -201 55q-89 53 -145 146zM578 487q-189 -46 -263 -104
q-73 -57 -73 -131q0 -70 43 -112t110 -42q116 0 217 119q-39 101 -39 211q0 27 5 59zM1182 604q8 125 -41 196q-49 72 -135 72q-88 0 -160 -72t-90 -196h426zM1079 1427l-346 -383h-49l186 383h209z" />
    <glyph glyph-name="Oslashacute" unicode="&#x1fe;" horiz-adv-x="1525" 
d="M1380 651q0 -280 -177 -481t-472 -201q-164 0 -299 66l-108 -187h-95l131 228q-131 86 -204 229q-74 145 -74 322q0 280 177 481t472 201q163 0 305 -70l99 170h96l-123 -211q129 -89 201 -229q71 -139 71 -318zM973 1128q-118 95 -262 95q-197 0 -320 -150t-123 -401
q0 -290 166 -469zM1194 608q0 282 -160 463q-537 -924 -538 -924q116 -88 256 -88q196 0 319 149q123 148 123 400zM1034 1790l-346 -383h-49l186 383h209z" />
    <glyph glyph-name="oslashacute" unicode="&#x1ff;" horiz-adv-x="1060" 
d="M1012 1225l-211 -365q86 -67 134 -171q48 -105 48 -230q0 -207 -132 -348q-133 -142 -329 -142q-109 0 -207 49l-161 -282h-82l184 319q-184 139 -184 404q0 207 132 348t328 141q111 0 209 -49l189 326h82zM676 786q-79 74 -187 74q-111 0 -181 -88t-70 -250
q0 -207 92 -338zM815 395q0 203 -90 332l-346 -600q81 -70 184 -70q108 0 180 90t72 248zM823 1427l-346 -383h-49l186 383h209z" />
    <glyph glyph-name="Scommaaccent" unicode="&#x218;" horiz-adv-x="1058" 
d="M967 350q0 -151 -131 -265t-349 -116q-172 -1 -362 62l-29 364h86l92 -280q132 -64 250 -60q124 1 196 70q71 68 71 160q0 50 -19 96q-18 43 -42 69q-23 25 -74 54q-49 28 -81 41q-11 4 -45.5 17.5t-54.5 21.5q-67 27 -108 45q-46 20 -94 52q-51 34 -82 69q-28 32 -50 89
q-20 51 -20 119q0 142 108 245q109 104 318 106q113 1 246 -23l106 29v-408h-86l-63 262q-114 50 -232 50q-107 0 -168 -58q-59 -56 -59 -139q0 -37 8 -71q7 -31 35 -60q30 -31 39 -43q12 -15 63 -39q58 -27 62 -29q3 -1 12 -4.5t26.5 -10.5t36.5 -15q17 -6 25 -11
q82 -32 113 -46q40 -18 98 -54q54 -33 85 -71q31 -37 51 -92q22 -60 22 -126zM680 -266q0 -98 -70 -171q-71 -74 -164 -108l-38 33q57 21 98 65t41 103q0 33 -13 58t-33 40q-19 15 -39 24q-12 5 -32 13l-14 4q0 46 30 73q31 28 86 28q61 0 105 -50q43 -49 43 -112z" />
    <glyph glyph-name="scommaaccent" unicode="&#x219;" horiz-adv-x="831" 
d="M748 266q0 -123 -98 -210t-261 -87q-165 0 -276 43l-13 271h103l47 -181q80 -57 164 -57q68 0 127 46t59 118q0 30 -14 52q-15 24 -30 39q-16 16 -53 35q-27 14 -58 26l-70 28q-65 25 -102 44q-44 23 -82 53q-44 35 -65 81q-22 49 -22 111q0 108 89 191t239 83
q115 0 205 -34l63 26l13 -291h-101l-41 170q-67 51 -155 51q-69 0 -115 -37q-47 -38 -47 -98q0 -63 48 -98t171 -84q61 -23 101 -44q38 -19 84 -54q47 -35 68 -83q22 -50 22 -110zM541 -266q0 -98 -70 -171q-71 -74 -164 -108l-39 33q59 22 99 65q41 44 41 103q0 32 -14 58
q-13 25 -33 40q-21 16 -38 24q-12 5 -32 13l-15 4q0 45 31 73t86 28q61 0 105 -50q43 -49 43 -112z" />
    <glyph glyph-name="uni021A" unicode="&#x21a;" horiz-adv-x="1267" 
d="M1196 879h-98l-47 198q-16 53 -34 73q-20 22 -84 35q-65 13 -198 15h-4v-1085q0 -25 72 -33l123 -10l6 -72h-596l6 72l123 10q72 8 72 37v1081h-5q-195 0 -247 -17q-55 -18 -76 -85l-57 -219h-103l35 401h1112v-401zM768 -266q0 -98 -70 -171q-71 -75 -163 -108l-39 33
q57 21 98 65t41 103q0 33 -13 58t-33 40q-19 15 -39 24q-17 8 -34 13l-12 4q0 45 31 73t86 28q60 0 104 -50q43 -49 43 -112z" />
    <glyph glyph-name="uni021B" unicode="&#x21b;" horiz-adv-x="729" 
d="M692 102q-55 -61 -132 -97t-148 -36q-112 0 -178 71q-66 70 -64 218l14 551l-166 10l2 62l134 110l133 113l65 -12l-2 -174h336l-14 -103h-320l-16 -512q-6 -201 176 -201q77 0 170 52zM541 -264q0 -98 -70 -171q-71 -74 -164 -108l-39 33q59 22 99 65q41 44 41 103
q0 32 -14 58q-13 25 -33 40q-21 16 -38 24q-12 5 -32 13l-15 4q0 45 31 73t86 28q61 0 105 -50q43 -49 43 -112z" />
    <glyph glyph-name="dotlessj" unicode="&#x237;" horiz-adv-x="526" 
d="M356 -49q-15 -217 -123 -351q-109 -135 -221 -135q-64 0 -107 32q-42 31 -42 91q0 43 34 73q35 30 74 30q95 0 146 -115q71 30 71 246v813q0 95 -15 123t-73 43l-49 12l2 55l303 80v-997z" />
    <glyph glyph-name="circumflex" unicode="&#x2c6;" horiz-adv-x="819" 
d="M670 1044h-56l-202 222h-4l-203 -222h-55l217 383h86z" />
    <glyph glyph-name="caron" unicode="&#x2c7;" horiz-adv-x="819" 
d="M670 1427l-217 -383h-86l-217 383h55l203 -221h4l202 221h56z" />
    <glyph glyph-name="breve" unicode="&#x2d8;" horiz-adv-x="819" 
d="M690 1427q-20 -95 -25 -114q-14 -50 -34 -104q-23 -61 -49 -93q-27 -33 -72 -57q-47 -25 -100 -25q-54 0 -101 25q-43 23 -71 57t-50 93q-16 43 -33 104q-9 33 -26 114h45q79 -174 125 -225q51 -57 111 -57q40 0 71 20q34 21 63 67q27 42 46 78q15 28 45 95q2 7 3 8l3 6
l4 8h45z" />
    <glyph glyph-name="dotaccent" unicode="&#x2d9;" horiz-adv-x="819" 
d="M530 1243q0 -55 -32 -91q-33 -38 -88 -38t-88 38t-33 91t33 91t88 38t88 -38q32 -36 32 -91z" />
    <glyph glyph-name="ring" unicode="&#x2da;" horiz-adv-x="819" 
d="M592 1243q0 -78 -50 -131t-132 -53t-132 53q-51 54 -51 131t51 131q50 53 132 53t132 -53t50 -131zM530 1243q0 55 -32 91q-33 38 -88 38t-88 -38t-33 -91t33 -91t88 -38t88 38q32 36 32 91z" />
    <glyph glyph-name="ogonek" unicode="&#x2db;" horiz-adv-x="819" 
d="M442 -444q-82 0 -135 50t-53 138q0 100 90 184q92 86 213 142h47q-91 -60 -148 -136t-57 -145q0 -49 27 -81t76 -32q63 0 104 41l21 -24q-6 -53 -59 -95q-52 -42 -126 -42z" />
    <glyph glyph-name="tilde" unicode="&#x2dc;" horiz-adv-x="819" 
d="M745 1317q-41 -252 -200 -252q-73 0 -177 75q-102 74 -137 74q-29 0 -51 -28q-23 -30 -53 -105h-53q40 252 200 252q57 0 119 -38q73 -45 112 -74q49 -37 83 -37q29 0 51 28q23 30 53 105h53z" />
    <glyph glyph-name="hungarumlaut" unicode="&#x2dd;" horiz-adv-x="819" 
d="M831 1427l-315 -383h-45l176 383h184zM520 1427l-315 -383h-45l176 383h184z" />
    <glyph glyph-name="Wgrave" unicode="&#x1e80;" horiz-adv-x="1894" 
d="M1921 1280l-6 -72l-45 -14q-50 -16 -73 -40q-23 -22 -57 -102q-37 -84 -98 -270l-256 -784h-122l-289 862h-6l-310 -862h-124l-385 1139q-15 42 -64 49l-113 22l-6 72h559l-6 -72l-102 -16q-47 -8 -47 -41q0 -25 47 -172l229 -721h10l267 727l-52 152q-15 42 -65 49
l-107 22l-6 72h551l-6 -72l-106 -16q-24 -5 -33 -14q-10 -10 -9 -37q2 -30 10 -62q7 -26 32 -100l231 -723l10 2l164 524q56 184 72 267q15 78 -1 105q-15 26 -71 38l-82 16l-6 72h471zM1112 1407h-45l-346 383h201z" />
    <glyph glyph-name="wgrave" unicode="&#x1e81;" horiz-adv-x="1425" 
d="M1458 918l-6 -70l-43 -10q-53 -8 -77 -35t-54 -121l-227 -700h-99l-227 593l-238 -593h-98l-274 772q-16 41 -35 59q-18 17 -60 23l-45 8l-6 74h434l-6 -72l-47 -8q-75 -10 -51 -78l195 -563l186 487l-25 70q-16 42 -35 57q-20 16 -69 23l-47 12l-6 72h442l-6 -70
l-47 -10q-75 -6 -51 -78l202 -570l150 492q24 78 13 113q-12 37 -75 45l-41 8l-6 70h379zM829 1044h-45l-346 383h201z" />
    <glyph glyph-name="Wacute" unicode="&#x1e82;" horiz-adv-x="1894" 
d="M1921 1280l-6 -72l-45 -14q-50 -16 -73 -40q-23 -22 -57 -102q-37 -84 -98 -270l-256 -784h-122l-289 862h-6l-310 -862h-124l-385 1139q-15 42 -64 49l-113 22l-6 72h559l-6 -72l-102 -16q-47 -8 -47 -41q0 -25 47 -172l229 -721h10l267 727l-52 152q-15 42 -65 49
l-107 22l-6 72h551l-6 -72l-106 -16q-24 -5 -33 -14q-10 -10 -9 -37q2 -30 10 -62q7 -26 32 -100l231 -723l10 2l164 524q56 184 72 267q15 78 -1 105q-15 26 -71 38l-82 16l-6 72h471zM1280 1790l-346 -383h-49l186 383h209z" />
    <glyph glyph-name="wacute" unicode="&#x1e83;" horiz-adv-x="1425" 
d="M1458 918l-6 -70l-43 -10q-53 -8 -77 -35t-54 -121l-227 -700h-99l-227 593l-238 -593h-98l-274 772q-16 41 -35 59q-18 17 -60 23l-45 8l-6 74h434l-6 -72l-47 -8q-75 -10 -51 -78l195 -563l186 487l-25 70q-16 42 -35 57q-20 16 -69 23l-47 12l-6 72h442l-6 -70
l-47 -10q-75 -6 -51 -78l202 -570l150 492q24 78 13 113q-12 37 -75 45l-41 8l-6 70h379zM1057 1427l-346 -383h-49l186 383h209z" />
    <glyph glyph-name="Wdieresis" unicode="&#x1e84;" horiz-adv-x="1894" 
d="M1921 1280l-6 -72l-45 -14q-50 -16 -73 -40q-23 -22 -57 -102q-37 -84 -98 -270l-256 -784h-122l-289 862h-6l-310 -862h-124l-385 1139q-15 42 -64 49l-113 22l-6 72h559l-6 -72l-102 -16q-47 -8 -47 -41q0 -25 47 -172l229 -721h10l267 727l-52 152q-15 42 -65 49
l-107 22l-6 72h551l-6 -72l-106 -16q-24 -5 -33 -14q-10 -10 -9 -37q2 -30 10 -62q7 -26 32 -100l231 -723l10 2l164 524q56 184 72 267q15 78 -1 105q-15 26 -71 38l-82 16l-6 72h471zM1317 1606q0 -54 -33 -92q-33 -37 -88 -37t-88 37t-33 92q0 53 33 91t88 38t88 -38
t33 -91zM907 1606q0 -54 -33 -92q-33 -37 -88 -37t-88 37q-32 36 -32 92q0 55 32 91q33 38 88 38t88 -38t33 -91z" />
    <glyph glyph-name="wdieresis" unicode="&#x1e85;" horiz-adv-x="1425" 
d="M1458 918l-6 -70l-43 -10q-53 -8 -77 -35t-54 -121l-227 -700h-99l-227 593l-238 -593h-98l-274 772q-16 41 -35 59q-18 17 -60 23l-45 8l-6 74h434l-6 -72l-47 -8q-75 -10 -51 -78l195 -563l186 487l-25 70q-16 42 -35 57q-20 16 -69 23l-47 12l-6 72h442l-6 -70
l-47 -10q-75 -6 -51 -78l202 -570l150 492q24 78 13 113q-12 37 -75 45l-41 8l-6 70h379zM1038 1243q0 -55 -32 -91q-33 -38 -88 -38q-56 0 -89 38q-32 36 -32 91t32 91q33 38 89 38q55 0 88 -38q32 -36 32 -91zM629 1243q0 -53 -33 -91t-88 -38t-88 38t-33 91t33 91t88 38
t88 -38t33 -91z" />
    <glyph glyph-name="thinspace" unicode="&#x2009;" horiz-adv-x="155" 
 />
    <glyph glyph-name="endash" unicode="&#x2013;" horiz-adv-x="962" 
d="M911 426h-856l6 109h844z" />
    <glyph glyph-name="emdash" unicode="&#x2014;" horiz-adv-x="1925" 
d="M1874 426h-1819l6 109h1807z" />
    <glyph glyph-name="quoteleft" unicode="&#x2018;" horiz-adv-x="475" 
d="M399 891q0 -53 -39 -89t-104 -36q-70 0 -129 56t-59 136q0 118 80 213t212 195l54 -33q-72 -53 -123 -123q-53 -73 -53 -145q0 -36 16 -65t41 -48q21 -16 48 -31q26 -15 40 -21q16 -7 16 -9z" />
    <glyph glyph-name="quoteright" unicode="&#x2019;" horiz-adv-x="475" 
d="M416 1157q0 -117 -81 -213q-78 -92 -212 -194l-53 32q72 53 123 123q53 73 53 146q0 33 -17 64t-40 48q-27 20 -48 32q-13 7 -41 20q-16 7 -16 10q0 53 39 89t104 36q69 0 129 -57t60 -136z" />
    <glyph glyph-name="quotesinglbase" unicode="&#x201a;" horiz-adv-x="475" 
d="M416 47q0 -117 -81 -213q-78 -92 -212 -194l-53 32q72 53 123 123q53 73 53 146q0 33 -17 64t-40 48q-27 20 -48 32q-13 7 -41 20q-16 7 -16 10q0 53 39 89t104 36q69 0 129 -57t60 -136z" />
    <glyph glyph-name="quotedblleft" unicode="&#x201c;" horiz-adv-x="888" 
d="M842 891q0 -53 -39 -89t-105 -36q-70 0 -129 56t-59 136q0 117 81 213q80 95 212 195l53 -33q-72 -53 -123 -123q-53 -73 -53 -145q0 -36 16 -65t41 -48q21 -16 48 -31q26 -15 40 -21q17 -8 17 -9zM399 891q0 -53 -39 -89t-104 -36q-70 0 -129 56t-59 136q0 118 80 213
t212 195l54 -33q-72 -53 -123 -123q-53 -73 -53 -145q0 -36 16 -65t41 -48q21 -16 48 -31q26 -15 40 -21q16 -7 16 -9z" />
    <glyph glyph-name="quotedblright" unicode="&#x201d;" horiz-adv-x="888" 
d="M860 1157q0 -117 -81 -213q-78 -92 -212 -194l-53 32q72 53 123 123q53 73 53 146q0 35 -16 64q-17 31 -40 48q-27 20 -48 32q-13 7 -41 20q-17 8 -17 10q0 53 39 89t105 36q69 0 129 -57q59 -56 59 -136zM416 1157q0 -117 -81 -213q-78 -92 -212 -194l-53 32
q72 53 123 123q53 73 53 146q0 33 -17 64t-40 48q-27 20 -48 32q-13 7 -41 20q-16 7 -16 10q0 53 39 89t104 36q69 0 129 -57t60 -136z" />
    <glyph glyph-name="quotedblbase" unicode="&#x201e;" horiz-adv-x="888" 
d="M860 47q0 -117 -81 -213q-78 -92 -212 -194l-53 32q72 53 123 123q53 73 53 146q0 35 -16 64q-17 31 -40 48q-27 20 -48 32q-13 7 -41 20q-17 8 -17 10q0 53 39 89t105 36q69 0 129 -57q59 -56 59 -136zM416 47q0 -117 -81 -213q-78 -92 -212 -194l-53 32q72 53 123 123
q53 73 53 146q0 33 -17 64t-40 48q-27 20 -48 32q-13 7 -41 20q-16 7 -16 10q0 53 39 89t104 36q69 0 129 -57t60 -136z" />
    <glyph glyph-name="dagger" unicode="&#x2020;" horiz-adv-x="962" 
d="M901 885l-8 -84h-369v-1120h-82v1120h-366l-8 84h374v395h82v-395h377z" />
    <glyph glyph-name="daggerdbl" unicode="&#x2021;" horiz-adv-x="962" 
d="M901 43h-377v-362h-82v362h-374l8 84h366v704h-366l-8 84h374v365h82v-365h377l-8 -84h-369v-704h369z" />
    <glyph glyph-name="bullet" unicode="&#x2022;" horiz-adv-x="931" 
d="M860 475q0 -43 -41 -146q-40 -100 -74 -134q-31 -31 -133 -73t-147 -42q-44 0 -146 42q-101 42 -131 73q-29 32 -73 135q-43 101 -43 145q0 46 43 147q44 103 73 132t134 72q102 42 145 42q44 0 146 -42t132 -72q32 -32 73 -132q42 -102 42 -147z" />
    <glyph glyph-name="ellipsis" unicode="&#x2026;" horiz-adv-x="1425" 
d="M1327 106q0 -56 -39 -96q-39 -41 -96 -41q-58 0 -99 41q-40 40 -40 96t40 95q41 39 99 39q60 0 97 -39q38 -40 38 -95zM852 106q0 -56 -39 -96q-39 -41 -96 -41q-59 0 -100 41q-39 39 -39 96t39 95q41 39 100 39t97 -39q38 -40 38 -95zM377 106q0 -56 -39 -96
q-39 -41 -96 -41q-59 0 -100 41q-40 40 -40 96t40 95t100 39t97 -39q38 -40 38 -95z" />
    <glyph glyph-name="perthousand" unicode="&#x2030;" horiz-adv-x="2306" 
d="M715 987q0 -140 -93 -239t-247 -99q-151 0 -246 99q-94 98 -94 239q0 144 93 243t247 99q155 0 247 -98q93 -99 93 -244zM1339 1309l-1038 -1340h-111l1039 1340h110zM2271 291q0 -144 -93 -243t-247 -99q-155 0 -247 98q-93 99 -93 244q0 140 93 239t247 99
q151 0 246 -99q94 -98 94 -239zM1493 291q0 -144 -93 -243t-247 -99q-155 0 -247 98q-93 99 -93 244q0 140 93 239t247 99q151 0 246 -99q94 -98 94 -239zM614 987q0 107 -65 178q-66 72 -174 72t-174 -72t-66 -178q0 -101 66 -173q67 -73 174 -73t174 73q65 71 65 173z
M2171 291q0 101 -66 173q-67 73 -174 73t-174 -73q-65 -71 -65 -173q0 -107 65 -178q66 -72 174 -72t174 72t66 178zM1393 291q0 101 -66 173q-67 73 -174 73t-174 -73q-66 -72 -66 -173q0 -106 66 -178t174 -72t174 72t66 178z" />
    <glyph glyph-name="guilsinglleft" unicode="&#x2039;" horiz-adv-x="634" 
d="M543 135l-21 -41l-444 312v94l444 311l21 -41l-293 -317z" />
    <glyph glyph-name="guilsinglright" unicode="&#x203a;" horiz-adv-x="634" 
d="M563 406l-444 -312l-21 41l293 318l-293 317l21 41l444 -311v-94z" />
    <glyph glyph-name="fraction" unicode="&#x2044;" horiz-adv-x="1075" 
d="M1075 1307l-956 -1340h-119l958 1340h117z" />
    <glyph glyph-name="zerosuperior" unicode="&#x2070;" horiz-adv-x="675" 
d="M338 543q-133 0 -217 99t-84 292q0 188 86 300t219 112q132 0 215 -102q82 -101 82 -292q0 -185 -82 -297t-219 -112zM346 592q65 0 97 73t32 257q0 199 -34 286q-34 88 -105 88q-67 0 -100 -73t-33 -258q0 -373 143 -373z" />
    <glyph glyph-name="foursuperior" unicode="&#x2074;" horiz-adv-x="675" 
d="M377 559v221h-348l-9 56l400 507h102v-495h137l-8 -68h-129v-221h-145zM98 848h279v344h-6z" />
    <glyph glyph-name="fivesuperior" unicode="&#x2075;" horiz-adv-x="675" 
d="M260 539q-108 0 -163 32q-56 32 -56 88q0 33 21 53q20 19 55 19q50 0 80 -34q30 -35 36 -85q32 -16 74 -16q65 0 112 41q46 40 46 111q0 168 -381 217l94 368h416l-4 -129h-373l-33 -129q406 -51 406 -268q0 -107 -98 -187q-99 -81 -232 -81z" />
    <glyph glyph-name="sixsuperior" unicode="&#x2076;" horiz-adv-x="675" 
d="M342 541q-134 0 -216 87q-83 88 -83 222q0 198 156 338q156 139 389 166l14 -45q-161 -33 -259 -122q-97 -88 -132 -208l4 -4q94 67 193 67q98 0 164 -66q67 -67 67 -169q0 -117 -89 -192q-87 -74 -208 -74zM356 590q62 0 97 51q34 50 34 133q0 88 -44 141
q-45 54 -111 54q-73 0 -119 -43q-8 -30 -8 -86q0 -98 42 -174t109 -76z" />
    <glyph glyph-name="sevensuperior" unicode="&#x2077;" horiz-adv-x="675" 
d="M152 549l378 661v4h-151q-147 0 -182 -6q-36 -6 -52 -30l-41 -74h-51l31 229h563l6 -51l-383 -733h-118z" />
    <glyph glyph-name="eightsuperior" unicode="&#x2078;" horiz-adv-x="675" 
d="M326 541q-118 0 -201 54q-82 54 -82 144q0 64 48 115t132 78v2q-79 38 -121 80q-43 43 -43 116q0 84 76 153t211 69q114 0 190 -55q74 -53 74 -142q0 -121 -164 -174v-2q90 -40 140 -89q49 -48 49 -126q0 -92 -84 -158q-83 -65 -225 -65zM391 999q78 57 78 142
q0 64 -41 113t-109 49q-57 0 -95 -35t-38 -82q0 -32 16 -61t39 -46q30 -22 58 -37q16 -8 68 -32q14 -5 24 -11zM354 590q68 0 110 36t42 85q0 18 -3 33q-3 14 -14 30q-7 10 -17 26q-6 10 -27 23q-18 11 -27 20q-6 6 -35 19q-22 10 -34 17l-7 3.5t-14 6.5t-17 7
q-29 13 -37 15q-92 -66 -92 -159q-2 -70 47 -116t125 -46z" />
    <glyph glyph-name="ninesuperior" unicode="&#x2079;" horiz-adv-x="675" 
d="M88 535l-14 47q160 33 258 121q98 87 131 210l-2 2q-89 -65 -193 -65q-100 0 -165 65q-66 66 -66 166q0 119 88 195t209 76q132 0 214 -88q83 -89 83 -222q0 -200 -155 -340q-153 -138 -388 -167zM344 920q59 0 119 45q8 26 8 86q0 97 -42 174q-41 75 -112 75
q-59 0 -94 -51q-35 -52 -35 -133q0 -85 44 -141q43 -55 112 -55z" />
    <glyph glyph-name="plussuperior" unicode="&#x207a;" horiz-adv-x="675" 
d="M604 913h-223v-227h-66v227h-223l2 66h221v225h66v-225h219z" />
    <glyph glyph-name="minussuperior" unicode="&#x207b;" horiz-adv-x="675" 
d="M614 911h-512l2 68h506z" />
    <glyph glyph-name="zeroinferior" unicode="&#x2080;" horiz-adv-x="675" 
d="M338 -309q-133 0 -217 99t-84 292q0 188 86 300t219 112q132 0 215 -102q82 -101 82 -292q0 -185 -82 -297t-219 -112zM346 -260q65 0 97 73t32 257q0 199 -34 286q-34 88 -105 88q-67 0 -100 -73t-33 -258q0 -373 143 -373z" />
    <glyph glyph-name="oneinferior" unicode="&#x2081;" horiz-adv-x="675" 
d="M111 -293l4 57l131 17q30 6 30 29v561l-174 12l4 41l326 78v-692q0 -23 31 -29l108 -17l4 -57h-464z" />
    <glyph glyph-name="twoinferior" unicode="&#x2082;" horiz-adv-x="675" 
d="M47 -293l-8 72q22 21 86 78q13 12 32 28.5t31 27t20 18.5q36 34 68 66q48 48 62 66q17 22 43 60q24 35 32 62q9 30 9 61q0 64 -42 102q-41 37 -110 37q-96 0 -196 -86l-21 29q124 172 295 172q110 0 178 -60t68 -149q0 -33 -9 -63q-8 -26 -35 -63q-13 -18 -45 -57
q-18 -22 -69 -67q-40 -36 -75 -64q-7 -6 -20.5 -16t-35 -27t-39.5 -31q-57 -45 -100 -79v-8h96q183 0 225 7q46 8 64 42l29 51h59l-47 -209h-545z" />
    <glyph glyph-name="threeinferior" unicode="&#x2083;" horiz-adv-x="675" 
d="M242 -324q-91 0 -145 30t-54 79q0 29 23 50q24 22 53 22q47 0 77 -36q29 -34 35 -83q8 -2 39 -2q72 0 122 48t50 120q0 71 -47 109t-114 38q-53 0 -103 -24l-22 39q6 3 40 23q6 4 20 12.5t20 11.5t36 21q24 14 35 24q4 4 14 11.5t15 11.5q16 13 25 25q2 3 9 11t10 13
q8 12 13 27q4 12 4 28q0 46 -38 75t-99 29q-88 0 -188 -76l-27 33q137 154 305 154q89 0 156 -44q65 -43 65 -110q0 -41 -17 -71t-65 -64q-38 -27 -72 -47q-8 -4 -20.5 -11t-36 -19t-41.5 -21v-4q99 38 194 -12q93 -49 93 -154q0 -107 -108 -187q-109 -80 -256 -80z" />
    <glyph glyph-name="fourinferior" unicode="&#x2084;" horiz-adv-x="675" 
d="M377 -293v221h-348l-9 56l400 508h102v-496h137l-8 -68h-129v-221h-145zM98 -4h279v344h-6z" />
    <glyph glyph-name="fiveinferior" unicode="&#x2085;" horiz-adv-x="675" 
d="M260 -313q-108 0 -163 32q-56 32 -56 88q0 33 21 53q20 19 55 19q50 0 80 -34q30 -35 36 -85q32 -16 74 -16q65 0 112 41q46 40 46 111q0 168 -381 217l94 368h416l-4 -129h-373l-33 -129q406 -51 406 -268q0 -107 -98 -187q-99 -81 -232 -81z" />
    <glyph glyph-name="sixinferior" unicode="&#x2086;" horiz-adv-x="675" 
d="M342 -311q-134 0 -216 87q-83 88 -83 222q0 198 156 338q156 139 389 166l14 -45q-161 -33 -259 -122q-97 -88 -132 -208l4 -4q94 67 193 67q98 0 164 -66q67 -67 67 -169q0 -117 -89 -192q-87 -74 -208 -74zM356 -262q62 0 97 51q34 50 34 133q0 88 -44 141
q-45 54 -111 54q-73 0 -119 -43q-8 -30 -8 -86q0 -98 42 -174t109 -76z" />
    <glyph glyph-name="seveninferior" unicode="&#x2087;" horiz-adv-x="675" 
d="M152 -303l378 661v4h-151q-147 0 -182 -6q-36 -6 -52 -30l-41 -74h-51l31 229h563l6 -51l-383 -733h-118z" />
    <glyph glyph-name="eightinferior" unicode="&#x2088;" horiz-adv-x="675" 
d="M326 -311q-118 0 -201 54q-82 54 -82 144q0 64 48 115t132 78v2q-79 38 -121 80q-43 43 -43 117q0 83 76 152t211 69q114 0 190 -55q74 -53 74 -142q0 -121 -164 -174v-2q90 -40 140 -89q49 -48 49 -126q0 -92 -84 -158q-83 -65 -225 -65zM391 147q78 57 78 142
q0 64 -41 113t-109 49q-57 0 -95 -35t-38 -82q0 -32 16 -61t39 -46q30 -22 58 -37q16 -8 68 -32q8 -2 13 -5q8 -5 11 -6zM354 -262q68 0 110 36t42 85q0 18 -3 33q-3 14 -14 30q-7 10 -17 26q-6 10 -27 23q-18 11 -27 20q-6 6 -35 19q-22 10 -34 17l-7 3.5t-14 6.5t-17 7
q-29 13 -37 15q-92 -66 -92 -159q-2 -70 47 -116t125 -46z" />
    <glyph glyph-name="nineinferior" unicode="&#x2089;" horiz-adv-x="675" 
d="M88 -317l-14 47q158 33 258 122q98 88 131 209l-2 2q-89 -65 -193 -65q-100 0 -165 65q-66 66 -66 166q0 119 88 195t209 76q132 0 214 -88q83 -89 83 -222q0 -200 -155 -340q-153 -138 -388 -167zM344 68q59 0 119 45q8 26 8 86q0 97 -42 174q-42 76 -112 76
q-59 0 -94 -52t-35 -133q0 -85 44 -141q43 -55 112 -55z" />
    <glyph glyph-name="Euro" unicode="&#x20ac;" horiz-adv-x="1073" 
d="M1038 223q-129 -254 -383 -254q-178 0 -304 128q-125 127 -163 339h-137l6 84h119q-2 36 -2 80q0 35 4 86h-127l6 84h131q44 232 190 375t345 143q127 0 219 -50t92 -120q0 -46 -27 -74t-73 -28q-52 0 -87 44q-34 43 -46 105q-51 33 -115 33q-135 0 -221 -115
q-87 -115 -109 -313h408l6 -84h-420v-45q0 -65 6 -121h408l6 -84h-399q38 -163 128 -247q91 -85 218 -85q152 0 280 142z" />
    <glyph glyph-name="trademark" unicode="&#x2122;" horiz-adv-x="1878" 
d="M1833 518h-334l2 55l62 15q17 5 21 27q4 24 3 100l-8 475h-20l-220 -647h-102l-174 653h-21l-12 -399q-4 -132 -1 -171q3 -34 24 -42l65 -11l2 -55h-270l4 55l61 11q16 2 23 15q8 14 15 59q9 53 10 139l12 385q0 25 -25 30l-71 13l-5 55h300l139 -569h20l185 569h303
l-4 -55l-70 -13q-29 -6 -29 -30l8 -467q1 -121 41 -127l62 -15zM754 1280v-279h-62l-12 39q-38 115 -72 148t-137 33h-2v-607q0 -22 25 -28l90 -13l2 -55h-371l4 55l90 13q27 6 27 28v607h-2q-86 0 -126 -36q-39 -34 -77 -145l-14 -39h-56l15 279h678z" />
    <glyph glyph-name="minus" unicode="&#x2212;" horiz-adv-x="995" 
d="M913 426h-829l6 109h817z" />
    <glyph glyph-name="uni2215" unicode="&#x2215;" horiz-adv-x="1075" 
d="M1075 1307l-956 -1340h-119l958 1340h117z" />
    <glyph glyph-name="approxequal" unicode="&#x2248;" horiz-adv-x="983" 
d="M315 666q-33 0 -49 -4q-17 -4 -45 -32q-27 -27 -45 -83h-94q21 108 81 168q59 59 146 59q57 0 185 -67q130 -68 174 -68q33 0 49 4q17 4 45 32q27 27 45 83h94q-21 -108 -81 -168t-146 -60q-70 0 -198 68t-161 68zM315 319q-33 0 -49 -4q-19 -5 -45 -31q-27 -27 -45 -83
h-94q21 108 81 168q59 59 146 59q55 0 185 -68q128 -67 174 -67q33 0 49 4q17 4 45 32q27 27 45 83h94q-21 -108 -81 -168t-146 -60q-70 0 -198 68q-127 67 -161 67z" />
    <glyph glyph-name="notequal" unicode="&#x2260;" horiz-adv-x="983" 
d="M291 -47l84 295h-291l6 108h316l69 248h-385l-6 109h422l78 274h106l-78 -274h287l-6 -109h-311l-70 -248h381l6 -108h-418l-84 -295h-106z" />
    <glyph glyph-name="lessequal" unicode="&#x2264;" horiz-adv-x="983" 
d="M262 553l635 -264l-23 -99l-808 340v66l808 340l23 -98l-635 -265v-20zM918 12h-852l6 109h839z" />
    <glyph glyph-name="greaterequal" unicode="&#x2265;" horiz-adv-x="983" 
d="M721 553v20l-635 265l23 98l809 -340v-66l-809 -340l-23 99zM918 12h-852l6 109h839z" />
    <glyph glyph-name="pcircle" unicode="&#x24df;" horiz-adv-x="1503" 
d="M1421 639q0 -279 -195 -474q-196 -196 -474 -196t-474 196t-196 474q0 277 196 475q195 197 474 197t474 -197q195 -196 195 -475zM1343 639q0 245 -173 424q-172 178 -418 178q-247 0 -419 -178q-173 -179 -173 -424t173 -423q173 -177 419 -177q245 0 418 177
q173 178 173 423zM1069 807q0 -109 -82 -181q-84 -73 -192 -73q-39 0 -88 6v-172q0 -26 26 -27l80 -12l2 -63h-319l2 63l61 12q27 6 27 27v514q0 21 -27 27l-61 14l-2 62h295q137 0 208 -54q70 -53 70 -143zM946 784q0 72 -47 111t-129 39h-63v-305q43 -8 81 -8q72 0 115 45
q43 44 43 118z" />
    <glyph glyph-name="commaaccent" unicode="&#xf6c3;" horiz-adv-x="819" 
d="M541 -266q0 -98 -70 -171q-71 -74 -164 -108l-39 33q59 22 99 65q41 44 41 103q0 32 -14 58q-13 25 -33 40q-21 16 -38 24q-12 5 -32 13l-15 4q0 45 31 73t86 28q61 0 105 -50q43 -49 43 -112z" />
    <glyph glyph-name="J.alt" horiz-adv-x="970" 
d="M969 1280l-6 -72l-127 -22q-48 -8 -48 -49v-709q0 -236 -116 -348q-118 -113 -303 -113q-180 0 -274 67q-93 66 -93 163q0 60 34 95q34 36 83 36q43 0 75 -26q31 -25 31 -69q0 -57 -39 -100q18 -30 68 -57t113 -27q117 0 172 79t55 245v764q0 41 -47 49l-150 22l-6 72
h578z" />
    <glyph glyph-name="Jcircumflex.alt" horiz-adv-x="970" 
d="M969 1280l-6 -72l-127 -22q-48 -8 -48 -49v-709q0 -236 -116 -348q-118 -113 -303 -113q-180 0 -274 67q-93 66 -93 163q0 60 34 95q34 36 83 36q43 0 75 -26q31 -25 31 -69q0 -57 -39 -100q18 -30 68 -57t113 -27q117 0 172 79t55 245v764q0 41 -47 49l-150 22l-6 72
h578zM944 1407h-55l-203 221h-4l-203 -221h-55l217 383h86z" />
    <glyph glyph-name="dot" horiz-adv-x="475" 
d="M377 467q0 -55 -39 -96t-96 -41q-59 0 -100 41q-40 40 -40 96q0 55 40 94q41 39 100 39q60 0 97 -39q38 -40 38 -94z" />
    <glyph glyph-name="a.smallcap" horiz-adv-x="980" 
d="M977 0h-432l4 72l63 10q29 5 34 8q9 5 11 23q2 20 -4 40q-7 24 -24 74l-31 95h-324l-26 -82q-29 -91 -25 -119q5 -32 43 -39l53 -10l5 -72h-334l4 72l39 8q57 11 83 53q27 44 93 232l176 503v41l184 56l281 -844q5 -13 12 -20t17 -9q2 0 5.5 -1t10.5 -2.5t12 -2.5l66 -14
zM575 389l-126 408h-21l-133 -408h74h134h72z" />
    <glyph glyph-name="b.smallcap" horiz-adv-x="999" 
d="M915 252q0 -252 -405 -252h-412l4 72l74 16q35 8 35 35v692q0 27 -35 35l-74 16l-4 72h426q357 0 357 -209q0 -93 -71 -156q-70 -62 -177 -79v-9q138 -15 209 -76q73 -63 73 -157zM725 244q0 102 -71 152t-187 50h-78v-358l107 -18h24q96 0 151 44q54 44 54 130zM686 682
q0 88 -55 137t-162 49h-80v-356l105 2q93 1 143 51q49 49 49 117z" />
    <glyph glyph-name="c.smallcap" horiz-adv-x="1089" 
d="M967 309l-31 -309l-90 18q-106 -41 -240 -41q-234 0 -381 126t-147 354q0 227 150 364q151 137 382 137q114 0 219 -32l132 28v-333h-91l-53 208q-92 50 -203 50q-153 0 -246 -110q-94 -111 -94 -290q0 -197 94 -311q93 -113 259 -113q100 0 172 39l71 215h97z" />
    <glyph glyph-name="d.smallcap" horiz-adv-x="1112" 
d="M1034 485q0 -207 -148 -346t-415 -139h-373l4 72l74 16q35 8 35 35v692q0 27 -35 35l-74 16l-4 72l375 4q255 2 408 -126t153 -331zM842 449q0 194 -104 303q-104 108 -302 108h-47v-758l107 -22q164 0 255 100t91 269z" />
    <glyph glyph-name="e.smallcap" horiz-adv-x="1038" 
d="M930 295l-29 -295h-803l4 72l74 16q35 8 35 35v692q0 27 -35 35l-74 16l-4 72h807v-305h-92l-33 131q-17 70 -65 85q-49 15 -242 15h-84v-358h60q72 0 102 8q29 8 37 35l35 102h71l-32 -348h-70l-14 96q-5 28 -28 35q-26 8 -108 8h-53v-368h82q145 0 200 7q59 8 84 25
q26 18 44 68l32 121h99z" />
    <glyph glyph-name="f.smallcap" horiz-adv-x="983" 
d="M885 633h-90l-33 131q-21 70 -69 85t-240 15h-64v-370h68q77 0 104 7q29 7 39 36l35 100h72l-35 -348h-68l-14 96q-4 27 -29 36q-24 9 -106 9h-66v-307q0 -29 33 -35l106 -16l4 -72h-434l4 72l74 16q35 8 35 35v692q0 27 -35 35l-74 16l-4 72h787v-305z" />
    <glyph glyph-name="g.smallcap" horiz-adv-x="1134" 
d="M1061 422l-4 -72l-78 -16q-35 -6 -35 -37v-180l92 -11l4 -47q-200 -82 -436 -82q-235 0 -381 131q-145 130 -145 349q0 229 151 365t381 136q111 0 213 -32l129 28v-329h-98l-51 204q-83 50 -197 50q-148 0 -240 -111q-92 -112 -92 -289q0 -197 90 -311q89 -113 246 -113
q93 0 162 33v209q0 31 -37 37l-84 16l-4 72h414z" />
    <glyph glyph-name="h.smallcap" horiz-adv-x="1200" 
d="M1104 0h-406l7 72l73 16q35 8 35 35v321h-426v-321q0 -27 33 -35l76 -16l4 -72h-404l4 72l74 16q35 8 35 35v692q0 27 -35 35l-74 16l-4 72h404l-4 -72l-76 -16q-33 -8 -33 -35v-299h426v299q0 27 -35 35l-73 16l-7 72h406l-4 -72l-76 -16q-35 -8 -35 -35v-692
q0 -27 35 -35l76 -16z" />
    <glyph glyph-name="i.smallcap" horiz-adv-x="634" 
d="M535 0h-435l4 72l91 16q34 6 34 35v692q0 29 -34 35l-91 16l-4 72h435l-5 -72l-88 -16q-34 -6 -34 -35v-692q0 -29 34 -35l88 -16z" />
    <glyph glyph-name="j.smallcap" horiz-adv-x="671" 
d="M610 938l-4 -72l-82 -16q-35 -8 -35 -35v-403q0 -435 -309 -435q-71 0 -121 35q-49 34 -49 84q0 38 24 59t60 21q44 0 82 -35q33 -28 45 -98h2q50 27 69 89q19 61 19 216v467q0 29 -35 35l-104 16l-4 72h442z" />
    <glyph glyph-name="j.smallcap.alt" horiz-adv-x="774" 
d="M764 938l-4 -72l-88 -16q-35 -6 -35 -35v-489q0 -179 -89 -265t-243 -86q-134 0 -207 56q-71 55 -71 131q0 51 28 80q29 30 70 30q37 0 63 -22q27 -22 27 -60q0 -51 -33 -84q43 -55 123 -55q156 0 156 244v520q0 29 -35 35l-107 16l-4 72h449z" />
    <glyph glyph-name="k.smallcap" horiz-adv-x="1052" 
d="M1032 0h-387l4 72l41 14q5 1 11 4q4 2 4 6q0 1 -3 7l-10 16l-215 330l-88 -84v-242q0 -27 33 -35l76 -16l4 -72h-404l4 72l74 16q35 8 35 35v692q0 27 -35 35l-74 16l-4 72h404l-4 -72l-76 -16q-33 -8 -33 -35v-360l213 217l24 23q13 13 21 23l18 18q10 10 16 18t12 14
t10 14l7 13q2 4 4 12q1 4 1 12q0 35 -45 43l-25 4l-4 72h389l-4 -72l-37 -8q-114 -24 -190 -100l-201 -197l293 -422q7 -10 19 -24q10 -12 21 -16q5 -2 10.5 -4.5t7.5 -3.5q9 -4 21 -5q8 -1 17 -4l41 -10z" />
    <glyph glyph-name="l.smallcap" horiz-adv-x="940" 
d="M860 319l-33 -319h-729l4 72l74 16q35 8 35 35v692q0 27 -35 35l-74 16l-4 72h412l-4 -72l-84 -16q-33 -6 -33 -35v-735h31q135 0 185 7q53 7 78 26q24 18 42 67l39 139h96z" />
    <glyph glyph-name="m.smallcap" horiz-adv-x="1355" 
d="M1311 0h-424l4 72l80 16q25 5 29 47q5 51 1 219l-10 471h-20l-287 -794h-141l-244 807h-20l-15 -478q-6 -205 -3 -236t28 -36l86 -16l4 -72h-328l4 72l80 16q21 4 28 13t15 68t12 191l17 455q0 29 -31 37l-88 14l-6 72h369l208 -696h21l256 696h356l-4 -72l-90 -16
q-33 -6 -33 -37l11 -459q1 -120 9 -177q7 -56 15 -71q6 -13 27 -18l80 -16z" />
    <glyph glyph-name="n.smallcap" horiz-adv-x="1183" 
d="M1133 938l-5 -72l-71 -14q-25 -6 -38 -23q-12 -16 -19 -78q-7 -59 -7 -198v-565h-133l-567 788h-21v-391q0 -130 8 -197q8 -65 18 -80q12 -17 36 -22l76 -14l4 -72h-348l4 72l69 14q27 6 40 23q12 17 18 77q6 62 6 199v350q0 85 -53 109l-70 22l-4 72h303l526 -729h21
v344q0 138 -6 198q-6 59 -18 77t-38 24l-76 14l-6 72h351z" />
    <glyph glyph-name="o.smallcap" horiz-adv-x="1157" 
d="M1079 473q0 -210 -147 -354t-357 -144q-217 0 -358 135q-139 133 -139 349q0 211 147 355t357 144q221 0 359 -135t138 -350zM885 457q0 199 -88 309q-89 111 -222 111q-130 0 -216 -103q-85 -101 -85 -297q0 -199 88 -309q88 -111 220 -111t218 103q85 101 85 297z" />
    <glyph glyph-name="p.smallcap" horiz-adv-x="974" 
d="M903 664q0 -141 -116 -224q-115 -82 -279 -82q-52 0 -119 7v-242q0 -29 33 -35l98 -16l4 -72h-426l4 72l74 16q35 8 35 35v692q0 27 -35 35l-74 16l-4 72h418q184 0 285 -79q102 -79 102 -195zM711 635q0 107 -66 167t-180 60h-76v-418q46 -14 123 -14q90 0 144 55
q55 57 55 150z" />
    <glyph glyph-name="q.smallcap" horiz-adv-x="1157" 
d="M1163 -238q-87 -32 -215 -32q-152 0 -245 57t-166 190q-204 11 -331 144q-128 134 -128 338q0 211 147 355t357 144q221 0 359 -135t138 -350q0 -166 -95 -294q-94 -127 -247 -177q66 -114 167 -150q104 -37 251 -22zM885 457q0 199 -88 309q-89 111 -222 111
q-130 0 -216 -103q-85 -101 -85 -297q0 -199 88 -309q88 -111 220 -111t218 103q85 101 85 297z" />
    <glyph glyph-name="r.smallcap" horiz-adv-x="1032" 
d="M1010 0h-252l-70 113l-176 276l-125 2v-268q0 -27 35 -35l76 -16l4 -72h-406l4 72l76 16q33 8 33 35v692q0 27 -33 35l-76 16l-4 72h459q187 0 283 -70q94 -69 94 -182q0 -195 -246 -264l193 -281q34 -50 86 -61l41 -8zM737 653q0 213 -245 207l-105 -2v-389l137 -14
q213 21 213 198z" />
    <glyph glyph-name="s.smallcap" horiz-adv-x="876" 
d="M788 264q0 -119 -102 -203t-278 -84q-148 0 -299 43l-17 289h82l72 -215q84 -35 190 -35q97 0 147 44t50 110q0 35 -15 62q-17 31 -30 44q-16 16 -58 36q-40 19 -63 27q-4 1 -17.5 5.5t-29 10t-31.5 10.5q-143 46 -216 107t-73 175q0 111 91 189q91 77 260 79
q112 0 213 -20l81 23v-314h-77l-60 197q-86 33 -180 33q-87 0 -133 -38q-45 -37 -45 -96q0 -51 36 -88t73 -52q35 -14 122 -42q156 -52 231 -114q76 -63 76 -183z" />
    <glyph glyph-name="t.smallcap" horiz-adv-x="1009" 
d="M946 616h-90l-33 132q-17 70 -56 90t-157 20h-16v-735q0 -29 35 -35l98 -16l4 -72h-450l4 72l96 16q35 6 35 35v735h-13q-121 0 -159 -17q-43 -19 -60 -83l-39 -142h-94l27 322h868v-322z" />
    <glyph glyph-name="u.smallcap" horiz-adv-x="1114" 
d="M1069 938l-4 -72l-72 -14q-25 -6 -38 -23q-10 -14 -18 -78q-7 -59 -7 -198v-242q0 -156 -100 -248t-267 -92q-173 0 -273 86t-100 252v506q0 28 -34 35l-74 16l-6 72h405l-4 -72l-76 -16q-34 -7 -34 -35v-450q0 -146 66 -215q67 -70 183 -70q119 0 182 67q62 66 62 199
v207q0 138 -6 198q-6 61 -17 77q-12 18 -38 24l-76 14l-4 72h350z" />
    <glyph glyph-name="v.smallcap" horiz-adv-x="987" 
d="M991 938l-4 -74l-39 -8q-58 -12 -82 -52q-25 -43 -92 -231l-203 -575h-176l-284 819q-5 12 -14 20q-7 6 -14 8q-1 0 -5 1t-10.5 2t-12.5 2l-67 14l-4 74h432l-4 -74l-64 -10q-29 -5 -36 -13q-7 -9 -4 -27q2 -12 20 -66q0 -2 4 -13l2 -4q1 -4 2 -7t2.5 -7t1.5 -6l190 -566
h25l150 457q49 156 41 205q-8 47 -62 53l-39 4l-4 74h350z" />
    <glyph glyph-name="w.smallcap" horiz-adv-x="1486" 
d="M1507 938l-4 -74l-35 -10q-54 -16 -86 -63q-33 -49 -90 -218l-196 -575h-150l-186 596h-21l-204 -596h-152l-283 819q-8 25 -55 33l-72 14l-4 74h441l-4 -74l-68 -10q-24 -5 -29 -8q-8 -5 -9 -22q-1 -16 5 -41q3 -12 23 -72l176 -518h20l172 518l-32 106q-8 25 -58 33
l-67 14l-7 74h453l-6 -74l-66 -10q-18 -1 -24 -11q-6 -8 -4 -41q1 -29 20 -91l162 -518h20l121 380q37 114 49 180q10 59 3 77t-37 24l-49 10l-5 74h338z" />
    <glyph glyph-name="x.smallcap" horiz-adv-x="1050" 
d="M1024 0h-438l4 72l55 8q44 6 33 37q-4 15 -60 98l-126 184h-5l-147 -204q-34 -41 -41 -65q-8 -25 3 -34q11 -10 42 -16l47 -8l4 -72h-366l4 72l61 14q70 15 131 94l221 277l-245 338q-35 47 -76 55l-72 16l-4 72h440l-6 -72l-53 -8q-20 -5 -26 -10q-7 -5 -5 -22
q1 -13 16 -39q12 -22 42 -64l110 -166h4l136 186q45 67 44 86q-2 21 -49 29l-47 8l-4 72h369l-4 -72l-64 -14q-65 -15 -131 -94l-209 -256l265 -365q31 -42 73 -49l70 -16z" />
    <glyph glyph-name="y.smallcap" horiz-adv-x="915" 
d="M932 938l-4 -74l-25 -8q-32 -12 -46 -20q-18 -10 -46 -40q-30 -31 -59 -81l-201 -332v-260q0 -29 35 -35l98 -16l4 -72h-452l4 72l98 16q35 6 35 35v250l-264 424q-27 40 -76 55l-47 12l-4 74h413l-4 -74l-55 -8q-72 -10 12 -160l141 -252h21l156 271q77 131 -7 143
l-41 6l-4 74h318z" />
    <glyph glyph-name="z.smallcap" horiz-adv-x="966" 
d="M899 307l-33 -307h-776v76l586 778v4h-193q-149 0 -192 -21q-44 -21 -68 -98l-30 -118h-87v317h775v-78l-590 -778v-4l198 2q119 0 170 11q57 12 75 32q19 20 34 67l35 117h96z" />
    <glyph glyph-name="fi.smallcap" horiz-adv-x="1617" 
d="M1518 0h-435l4 72l91 16q34 6 34 35v692q0 29 -34 35l-91 16l-4 72h435l-5 -72l-88 -16q-34 -6 -34 -35v-692q0 -29 34 -35l88 -16zM885 633h-90l-33 131q-21 70 -69 85t-240 15h-64v-370h68q77 0 104 7q29 7 39 36l35 100h72l-35 -348h-68l-14 96q-4 27 -29 36
q-24 9 -106 9h-66v-307q0 -29 33 -35l106 -16l4 -72h-434l4 72l74 16q35 8 35 35v692q0 27 -35 35l-74 16l-4 72h787v-305z" />
    <glyph glyph-name="fl.smallcap" horiz-adv-x="1923" 
d="M1843 319l-33 -319h-729l4 72l74 16q35 8 35 35v692q0 27 -35 35l-74 16l-4 72h412l-4 -72l-84 -16q-33 -6 -33 -35v-735h31q135 0 185 7q53 7 78 26q24 18 42 67l39 139h96zM885 633h-90l-33 131q-21 70 -69 85t-240 15h-64v-370h68q77 0 104 7q29 7 39 36l35 100h72
l-35 -348h-68l-14 96q-4 27 -29 36q-24 9 -106 9h-66v-307q0 -29 33 -35l106 -16l4 -72h-434l4 72l74 16q35 8 35 35v692q0 27 -35 35l-74 16l-4 72h787v-305z" />
    <glyph glyph-name="ff.smallcap" horiz-adv-x="1966" 
d="M885 633h-90l-33 131q-21 70 -69 85t-240 15h-64v-370h68q77 0 104 7q29 7 39 36l35 100h72l-35 -348h-68l-14 96q-4 27 -29 36q-24 9 -106 9h-66v-307q0 -29 33 -35l106 -16l4 -72h-434l4 72l74 16q35 8 35 35v692q0 27 -35 35l-74 16l-4 72h787v-305zM1868 633h-90
l-33 131q-21 70 -69 85t-240 15h-64v-370h68q77 0 104 7q28 7 39 36l35 100h72l-35 -348h-68l-14 96q-4 27 -29 36q-24 9 -106 9h-66v-307q0 -29 33 -35l106 -16l5 -72h-435l4 72l74 16q35 8 35 35v692q0 27 -35 35l-74 16l-4 72h787v-305z" />
    <glyph glyph-name="ffi.smallcap" horiz-adv-x="2600" 
d="M885 633h-90l-33 131q-21 70 -69 85t-240 15h-64v-370h68q77 0 104 7q29 7 39 36l35 100h72l-35 -348h-68l-14 96q-4 27 -29 36q-24 9 -106 9h-66v-307q0 -29 33 -35l106 -16l4 -72h-434l4 72l74 16q35 8 35 35v692q0 27 -35 35l-74 16l-4 72h787v-305zM1868 633h-90
l-33 131q-21 70 -69 85t-240 15h-64v-370h68q77 0 104 7q28 7 39 36l35 100h72l-35 -348h-68l-14 96q-4 27 -29 36q-24 9 -106 9h-66v-307q0 -29 33 -35l106 -16l5 -72h-435l4 72l74 16q35 8 35 35v692q0 27 -35 35l-74 16l-4 72h787v-305zM2501 0h-435l5 72l90 16
q34 6 34 35v692q0 29 -34 35l-90 16l-5 72h435l-4 -72l-89 -16q-34 -6 -34 -35v-692q0 -29 34 -35l89 -16z" />
    <glyph glyph-name="ffl.smallcap" horiz-adv-x="2906" 
d="M885 633h-90l-33 131q-21 70 -69 85t-240 15h-64v-370h68q77 0 104 7q29 7 39 36l35 100h72l-35 -348h-68l-14 96q-4 27 -29 36q-24 9 -106 9h-66v-307q0 -29 33 -35l106 -16l4 -72h-434l4 72l74 16q35 8 35 35v692q0 27 -35 35l-74 16l-4 72h787v-305zM1868 633h-90
l-33 131q-21 70 -69 85t-240 15h-64v-370h68q77 0 104 7q28 7 39 36l35 100h72l-35 -348h-68l-14 96q-4 27 -29 36q-24 9 -106 9h-66v-307q0 -29 33 -35l106 -16l5 -72h-435l4 72l74 16q35 8 35 35v692q0 27 -35 35l-74 16l-4 72h787v-305zM2826 319l-33 -319h-729l4 72
l74 16q35 8 35 35v692q0 27 -35 35l-74 16l-4 72h412l-4 -72l-84 -16q-33 -6 -33 -35v-735h31q135 0 185 7q53 7 78 26q24 18 42 67l39 139h96z" />
    <glyph glyph-name="germandbls.smallcap" horiz-adv-x="1753" 
d="M1665 264q0 -119 -102 -203t-279 -84q-148 0 -299 43l-16 289h82l71 -215q84 -35 191 -35q96 0 146 44t50 110q0 37 -14 62q-16 29 -31 44q-16 17 -57 36q-38 18 -64 27q-1 0 -28 9.5t-49 16.5q-143 46 -216 107t-73 175q0 111 91 189q91 77 259 79q112 0 213 -20l82 23
v-314h-78l-59 197q-85 33 -180 33q-88 0 -134 -38q-45 -37 -45 -96q0 -51 36 -88q35 -36 74 -52q35 -14 122 -42q154 -51 230 -114q77 -63 77 -183zM788 264q0 -119 -102 -203t-278 -84q-148 0 -299 43l-17 289h82l72 -215q84 -35 190 -35q97 0 147 44t50 110q0 35 -15 62
q-17 31 -30 44q-16 16 -58 36q-40 19 -63 27q-4 1 -17.5 5.5t-29 10t-31.5 10.5q-143 46 -216 107t-73 175q0 111 91 189q91 77 260 79q112 0 213 -20l81 23v-314h-77l-60 197q-86 33 -180 33q-87 0 -133 -38q-45 -37 -45 -96q0 -51 36 -88t73 -52q35 -14 122 -42
q156 -52 231 -114q76 -63 76 -183z" />
    <glyph glyph-name="agrave.smallcap" horiz-adv-x="980" 
d="M977 0h-432l4 72l63 10q29 5 34 8q9 5 11 23q2 20 -4 40q-7 24 -24 74l-31 95h-324l-26 -82q-29 -91 -25 -119q5 -32 43 -39l53 -10l5 -72h-334l4 72l39 8q57 11 83 53q27 44 93 232l176 503v41l184 56l281 -844q5 -13 12 -20t17 -9q2 0 5.5 -1t10.5 -2.5t12 -2.5l66 -14
zM575 389l-126 408h-21l-133 -408h74h134h72zM518 1044h-45l-346 383h201z" />
    <glyph glyph-name="aacute.smallcap" horiz-adv-x="980" 
d="M977 0h-432l4 72l63 10q29 5 34 8q9 5 11 23q2 20 -4 40q-7 24 -24 74l-31 95h-324l-26 -82q-29 -91 -25 -119q5 -32 43 -39l53 -10l5 -72h-334l4 72l39 8q57 11 83 53q27 44 93 232l176 503v41l184 56l281 -844q5 -13 12 -20t17 -9q2 0 5.5 -1t10.5 -2.5t12 -2.5l66 -14
zM575 389l-126 408h-21l-133 -408h74h134h72zM795 1427l-346 -383h-50l187 383h209z" />
    <glyph glyph-name="acircumflex.smallcap" horiz-adv-x="980" 
d="M977 0h-432l4 72l63 10q29 5 34 8q9 5 11 23q2 20 -4 40q-7 24 -24 74l-31 95h-324l-26 -82q-29 -91 -25 -119q5 -32 43 -39l53 -10l5 -72h-334l4 72l39 8q57 11 83 53q27 44 93 232l176 503v41l184 56l281 -844q5 -13 12 -20t17 -9q2 0 5.5 -1t10.5 -2.5t12 -2.5l66 -14
zM575 389l-126 408h-21l-133 -408h74h134h72zM739 1044h-55l-203 222h-4l-203 -222h-55l217 383h86z" />
    <glyph glyph-name="atilde.smallcap" horiz-adv-x="980" 
d="M977 0h-432l4 72l63 10q29 5 34 8q9 5 11 23q2 20 -4 40q-7 24 -24 74l-31 95h-324l-26 -82q-29 -91 -25 -119q5 -32 43 -39l53 -10l5 -72h-334l4 72l39 8q57 11 83 53q27 44 93 232l176 503v41l184 56l281 -844q5 -13 12 -20t17 -9q2 0 5.5 -1t10.5 -2.5t12 -2.5l66 -14
zM575 389l-126 408h-21l-133 -408h74h134h72zM825 1317q-41 -252 -200 -252q-75 0 -178 75q-102 74 -136 74q-29 0 -51 -28q-23 -30 -53 -105h-53q40 252 200 252q57 0 119 -38q73 -45 112 -74q49 -37 83 -37q29 0 51 28q23 30 53 105h53z" />
    <glyph glyph-name="adieresis.smallcap" horiz-adv-x="980" 
d="M977 0h-432l4 72l63 10q29 5 34 8q9 5 11 23q2 20 -4 40q-7 24 -24 74l-31 95h-324l-26 -82q-29 -91 -25 -119q5 -32 43 -39l53 -10l5 -72h-334l4 72l39 8q57 11 83 53q27 44 93 232l176 503v41l184 56l281 -844q5 -13 12 -20t17 -9q2 0 5.5 -1t10.5 -2.5t12 -2.5l66 -14
zM575 389l-126 408h-21l-133 -408h74h134h72zM805 1243q0 -53 -33 -91t-88 -38t-88 38t-33 91t33 91t88 38t88 -38t33 -91zM395 1243q0 -53 -33 -91t-88 -38t-88 38q-32 36 -32 91t32 91q33 38 88 38t88 -38t33 -91z" />
    <glyph glyph-name="aring.smallcap" horiz-adv-x="919" 
d="M365 899q-97 47 -97 166q0 78 50 131t133 53q82 0 132 -53t50 -131q0 -102 -76 -154l262 -790q5 -13 12 -20t17 -9q15 -3 29 -6l65 -14l4 -72h-432l4 72l64 10q27 5 33 8q11 5 12 23q2 20 -4 40q-2 7 -25 74l-31 95h-323l-27 -82q-29 -89 -24 -119q5 -32 43 -39l53 -10
l4 -72h-334l4 72l39 8q56 11 82 53t94 232zM571 1065q0 55 -32 91q-33 38 -88 38q-56 0 -89 -38q-32 -36 -32 -91t32 -91q33 -38 89 -38q55 0 88 38q32 36 32 91zM545 389l-127 408h-21l-133 -408h72h136h73z" />
    <glyph glyph-name="aringacute.smallcap" horiz-adv-x="919" 
d="M365 899q-97 47 -97 166q0 78 50 131t133 53q82 0 132 -53t50 -131q0 -102 -76 -154l262 -790q5 -13 12 -20t17 -9q15 -3 29 -6l65 -14l4 -72h-432l4 72l64 10q27 5 33 8q11 5 12 23q2 20 -4 40q-2 7 -25 74l-31 95h-323l-27 -82q-29 -89 -24 -119q5 -32 43 -39l53 -10
l4 -72h-334l4 72l39 8q56 11 82 53t94 232zM571 1065q0 55 -32 91q-33 38 -88 38q-56 0 -89 -38q-32 -36 -32 -91t32 -91q33 -38 89 -38q55 0 88 38q32 36 32 91zM545 389l-127 408h-21l-133 -408h72h136h73zM754 1667l-346 -383h-50l187 383h209z" />
    <glyph glyph-name="amacron.smallcap" horiz-adv-x="980" 
d="M977 0h-432l4 72l63 10q29 5 34 8q9 5 11 23q2 20 -4 40q-7 24 -24 74l-31 95h-324l-26 -82q-29 -91 -25 -119q5 -32 43 -39l53 -10l5 -72h-334l4 72l39 8q57 11 83 53q27 44 93 232l176 503v41l184 56l281 -844q5 -13 12 -20t17 -9q2 0 5.5 -1t10.5 -2.5t12 -2.5l66 -14
zM575 389l-126 408h-21l-133 -408h74h134h72zM766 1108h-516l6 84h504z" />
    <glyph glyph-name="abreve.smallcap" horiz-adv-x="980" 
d="M977 0h-432l4 72l63 10q29 5 34 8q9 5 11 23q2 20 -4 40q-7 24 -24 74l-31 95h-324l-26 -82q-29 -91 -25 -119q5 -32 43 -39l53 -10l5 -72h-334l4 72l39 8q57 11 83 53q27 44 93 232l176 503v41l184 56l281 -844q5 -13 12 -20t17 -9q2 0 5.5 -1t10.5 -2.5t12 -2.5l66 -14
zM575 389l-126 408h-21l-133 -408h74h134h72zM780 1427q-20 -95 -25 -114q-14 -50 -34 -104q-23 -61 -49 -93q-27 -33 -72 -57q-47 -25 -100 -25q-54 0 -101 25q-43 23 -71 57q-26 32 -49 93q-20 54 -34 104q-9 33 -26 114h45q79 -174 125 -225q51 -57 111 -57q40 0 71 20
q34 21 63 67q27 42 46 78q15 28 45 95q2 7 3 8l3 6l4 8h45z" />
    <glyph glyph-name="aogonek.smallcap" horiz-adv-x="980" 
d="M793 -444q-88 0 -140 48q-53 48 -53 130q0 89 71 162q69 70 165 104h-291l4 72l63 10q29 5 34 8q9 5 11 23q2 20 -4 40q-7 24 -24 74l-31 95h-324l-26 -82q-29 -91 -25 -119q5 -32 43 -39l53 -10l5 -72h-334l4 72l39 8q57 11 83 53q27 44 93 232l176 503v41l184 56
l281 -844q5 -13 12 -20t17 -9q2 0 5.5 -1t10.5 -2.5t12 -2.5l66 -14l4 -72q-86 -17 -161 -84q-75 -68 -75 -137q0 -103 111 -103q63 0 104 41l21 -24q-6 -53 -58 -95q-53 -42 -126 -42zM575 389l-126 408h-21l-133 -408h74h134h72z" />
    <glyph glyph-name="ae.smallcap" horiz-adv-x="1388" 
d="M1280 293l-31 -293h-743l4 72l78 16q33 6 33 35v211h-285l-41 -78q-27 -50 -39 -81q-13 -33 -14 -51q-2 -20 6 -28q7 -7 26 -12l54 -12l4 -72h-342l6 72l41 10q58 15 99 62t132 221l207 403q38 75 -43 90l-45 8l-6 72h872v-303h-84l-34 133q-17 68 -66 83t-244 15h-39
v-360h27q79 0 101 7q25 8 32 34l35 102h68l-35 -344h-62l-14 96q-5 27 -26 35q-22 8 -103 8h-23v-372h33q207 0 259 15t73 83l37 123h92zM621 401v469h-13l-239 -469h252z" />
    <glyph glyph-name="aeacute.smallcap" horiz-adv-x="1388" 
d="M1280 293l-31 -293h-743l4 72l78 16q33 6 33 35v211h-285l-41 -78q-27 -50 -39 -81q-13 -33 -14 -51q-2 -20 6 -28q7 -7 26 -12l54 -12l4 -72h-342l6 72l41 10q58 15 99 62t132 221l207 403q38 75 -43 90l-45 8l-6 72h872v-303h-84l-34 133q-17 68 -66 83t-244 15h-39
v-360h27q79 0 101 7q25 8 32 34l35 102h68l-35 -344h-62l-14 96q-5 27 -26 35q-22 8 -103 8h-23v-372h33q207 0 259 15t73 83l37 123h92zM621 401v469h-13l-239 -469h252zM1090 1427l-347 -383h-49l187 383h209z" />
    <glyph glyph-name="ccedilla.smallcap" horiz-adv-x="1089" 
d="M557 -20q-214 12 -347 137q-132 125 -132 340q0 227 150 364q151 137 382 137q114 0 219 -32l132 28v-333h-91l-53 208q-92 50 -203 50q-153 0 -246 -110q-94 -111 -94 -290q0 -197 94 -311q93 -113 259 -113q100 0 172 39l71 215h97l-31 -309l-90 18q-85 -32 -199 -38
l-92 -97q126 0 197 -49t71 -137q0 -103 -114 -169t-316 -81l-18 49q321 39 321 176q0 49 -45 79t-129 30q-64 0 -127 -12v41z" />
    <glyph glyph-name="cacute.smallcap" horiz-adv-x="1089" 
d="M967 309l-31 -309l-90 18q-106 -41 -240 -41q-234 0 -381 126t-147 354q0 227 150 364q151 137 382 137q114 0 219 -32l132 28v-333h-91l-53 208q-92 50 -203 50q-153 0 -246 -110q-94 -111 -94 -290q0 -197 94 -311q93 -113 259 -113q100 0 172 39l71 215h97zM895 1427
l-346 -383h-49l186 383h209z" />
    <glyph glyph-name="ccircumflex.smallcap" horiz-adv-x="1089" 
d="M967 309l-31 -309l-90 18q-106 -41 -240 -41q-234 0 -381 126t-147 354q0 227 150 364q151 137 382 137q114 0 219 -32l132 28v-333h-91l-53 208q-92 50 -203 50q-153 0 -246 -110q-94 -111 -94 -290q0 -197 94 -311q93 -113 259 -113q100 0 172 39l71 215h97zM846 1044
h-55l-203 222h-4l-203 -222h-55l217 383h86z" />
    <glyph glyph-name="cdotaccent.smallcap" horiz-adv-x="1089" 
d="M967 309l-31 -309l-90 18q-106 -41 -240 -41q-234 0 -381 126t-147 354q0 227 150 364q151 137 382 137q114 0 219 -32l132 28v-333h-91l-53 208q-92 50 -203 50q-153 0 -246 -110q-94 -111 -94 -290q0 -197 94 -311q93 -113 259 -113q100 0 172 39l71 215h97zM717 1243
q0 -53 -33 -91t-88 -38t-88 38t-33 91t33 91t88 38t88 -38t33 -91z" />
    <glyph glyph-name="ccaron.smallcap" horiz-adv-x="1089" 
d="M967 309l-31 -309l-90 18q-106 -41 -240 -41q-234 0 -381 126t-147 354q0 227 150 364q151 137 382 137q114 0 219 -32l132 28v-333h-91l-53 208q-92 50 -203 50q-153 0 -246 -110q-94 -111 -94 -290q0 -197 94 -311q93 -113 259 -113q100 0 172 39l71 215h97zM866 1427
l-217 -383h-86l-217 383h55l203 -221h4l203 221h55z" />
    <glyph glyph-name="dcaron.smallcap" horiz-adv-x="1112" 
d="M788 1427l-217 -383h-86l-217 383h56l202 -221h4l203 221h55zM1034 485q0 -207 -148 -346t-415 -139h-373l4 72l74 16q35 8 35 35v692q0 27 -35 35l-74 16l-4 72l375 4q255 2 408 -126t153 -331zM842 449q0 194 -104 303q-104 108 -302 108h-47v-758l107 -22
q164 0 255 100t91 269z" />
    <glyph glyph-name="eth.smallcap" horiz-adv-x="1153" 
d="M252 436h-164l6 84h158v295q0 27 -35 35l-74 16l-4 72l375 4q255 2 408 -126t153 -331q0 -207 -148 -346t-415 -139h-373l4 72l74 16q35 8 35 35v313zM430 520h213l6 -84h-219v-334l107 -22q164 0 255 100t91 269q0 194 -104 303q-103 108 -302 108h-47v-340z" />
    <glyph glyph-name="dcroat.smallcap" horiz-adv-x="1153" 
d="M252 436h-164l6 84h158v295q0 27 -35 35l-74 16l-4 72l375 4q255 2 408 -126t153 -331q0 -207 -148 -346t-415 -139h-373l4 72l74 16q35 8 35 35v313zM430 520h213l6 -84h-219v-334l107 -22q164 0 255 100t91 269q0 194 -104 303q-103 108 -302 108h-47v-340z" />
    <glyph glyph-name="egrave.smallcap" horiz-adv-x="1038" 
d="M930 295l-29 -295h-803l4 72l74 16q35 8 35 35v692q0 27 -35 35l-74 16l-4 72h807v-305h-92l-33 131q-17 70 -65 85q-49 15 -242 15h-84v-358h60q72 0 102 8q29 8 37 35l35 102h71l-32 -348h-70l-14 96q-5 28 -28 35q-26 8 -108 8h-53v-368h82q145 0 200 7q59 8 84 25
q26 18 44 68l32 121h99zM606 1044h-45l-346 383h201z" />
    <glyph glyph-name="eacute.smallcap" horiz-adv-x="1038" 
d="M930 295l-29 -295h-803l4 72l74 16q35 8 35 35v692q0 27 -35 35l-74 16l-4 72h807v-305h-92l-33 131q-17 70 -65 85q-49 15 -242 15h-84v-358h60q72 0 102 8q29 8 37 35l35 102h71l-32 -348h-70l-14 96q-5 28 -28 35q-26 8 -108 8h-53v-368h82q145 0 200 7q59 8 84 25
q26 18 44 68l32 121h99zM819 1427l-346 -383h-49l186 383h209z" />
    <glyph glyph-name="ecircumflex.smallcap" horiz-adv-x="1038" 
d="M930 295l-29 -295h-803l4 72l74 16q35 8 35 35v692q0 27 -35 35l-74 16l-4 72h807v-305h-92l-33 131q-17 70 -65 85q-49 15 -242 15h-84v-358h60q72 0 102 8q29 8 37 35l35 102h71l-32 -348h-70l-14 96q-5 28 -28 35q-26 8 -108 8h-53v-368h82q145 0 200 7q59 8 84 25
q26 18 44 68l32 121h99zM770 1044h-55l-203 222h-4l-203 -222h-55l217 383h86z" />
    <glyph glyph-name="edieresis.smallcap" horiz-adv-x="1038" 
d="M930 295l-29 -295h-803l4 72l74 16q35 8 35 35v692q0 27 -35 35l-74 16l-4 72h807v-305h-92l-33 131q-17 70 -65 85q-49 15 -242 15h-84v-358h60q72 0 102 8q29 8 37 35l35 102h71l-32 -348h-70l-14 96q-5 28 -28 35q-26 8 -108 8h-53v-368h82q145 0 200 7q59 8 84 25
q26 18 44 68l32 121h99zM827 1243q0 -55 -32 -91q-33 -38 -88 -38q-56 0 -89 38q-32 36 -32 91t32 91q33 38 89 38q55 0 88 -38q32 -36 32 -91zM418 1243q0 -53 -33 -91t-88 -38t-88 38t-33 91t33 91t88 38t88 -38t33 -91z" />
    <glyph glyph-name="emacron.smallcap" horiz-adv-x="1038" 
d="M930 295l-29 -295h-803l4 72l74 16q35 8 35 35v692q0 27 -35 35l-74 16l-4 72h807v-305h-92l-33 131q-17 70 -65 85q-49 15 -242 15h-84v-358h60q72 0 102 8q29 8 37 35l35 102h71l-32 -348h-70l-14 96q-5 28 -28 35q-26 8 -108 8h-53v-368h82q145 0 200 7q59 8 84 25
q26 18 44 68l32 121h99zM799 1108h-516l6 84h504z" />
    <glyph glyph-name="ebreve.smallcap" horiz-adv-x="1038" 
d="M930 295l-29 -295h-803l4 72l74 16q35 8 35 35v692q0 27 -35 35l-74 16l-4 72h807v-305h-92l-33 131q-17 70 -65 85q-49 15 -242 15h-84v-358h60q72 0 102 8q29 8 37 35l35 102h71l-32 -348h-70l-14 96q-5 28 -28 35q-26 8 -108 8h-53v-368h82q145 0 200 7q59 8 84 25
q26 18 44 68l32 121h99zM825 1427q-20 -95 -25 -114q-14 -50 -34 -104q-23 -61 -49 -93q-27 -33 -72 -57q-47 -25 -100 -25q-54 0 -101 25q-43 23 -71 57q-26 32 -49 93q-20 54 -34 104q-9 33 -26 114h45q79 -174 125 -225q51 -57 111 -57q40 0 71 20q34 21 63 67
q27 42 46 78q15 28 45 95q2 7 3 8l3 6l4 8h45z" />
    <glyph glyph-name="edotaccent.smallcap" horiz-adv-x="1038" 
d="M930 295l-29 -295h-803l4 72l74 16q35 8 35 35v692q0 27 -35 35l-74 16l-4 72h807v-305h-92l-33 131q-17 70 -65 85q-49 15 -242 15h-84v-358h60q72 0 102 8q29 8 37 35l35 102h71l-32 -348h-70l-14 96q-5 28 -28 35q-26 8 -108 8h-53v-368h82q145 0 200 7q59 8 84 25
q26 18 44 68l32 121h99zM659 1243q0 -55 -32 -91q-33 -38 -88 -38t-88 38t-33 91t33 91t88 38t88 -38q32 -36 32 -91z" />
    <glyph glyph-name="eogonek.smallcap" horiz-adv-x="1038" 
d="M715 -444q-82 0 -135 50q-54 51 -54 138q0 134 179 256h-607l4 72l74 16q35 8 35 35v692q0 27 -35 35l-74 16l-4 72h807v-305h-92l-33 131q-17 70 -65 85q-49 15 -242 15h-84v-358h60q72 0 102 8q29 8 37 35l35 102h71l-32 -348h-70l-14 96q-5 28 -28 35q-26 8 -108 8
h-53v-368h82q145 0 200 7q59 8 84 25q26 18 44 68l32 121h99l-29 -295h-115q-114 -105 -114 -211q0 -51 26 -81q27 -32 76 -32q64 0 105 41l20 -24q-6 -53 -58 -95q-53 -42 -126 -42z" />
    <glyph glyph-name="ecaron.smallcap" horiz-adv-x="1038" 
d="M930 295l-29 -295h-803l4 72l74 16q35 8 35 35v692q0 27 -35 35l-74 16l-4 72h807v-305h-92l-33 131q-17 70 -65 85q-49 15 -242 15h-84v-358h60q72 0 102 8q29 8 37 35l35 102h71l-32 -348h-70l-14 96q-5 28 -28 35q-26 8 -108 8h-53v-368h82q145 0 200 7q59 8 84 25
q26 18 44 68l32 121h99zM799 1427l-217 -383h-86l-217 383h55l203 -221h4l202 221h56z" />
    <glyph glyph-name="gcircumflex.smallcap" horiz-adv-x="1134" 
d="M1061 422l-4 -72l-78 -16q-35 -6 -35 -37v-180l92 -11l4 -47q-200 -82 -436 -82q-235 0 -381 131q-145 130 -145 349q0 229 151 365t381 136q111 0 213 -32l129 28v-329h-98l-51 204q-83 50 -197 50q-148 0 -240 -111q-92 -112 -92 -289q0 -197 90 -311q89 -113 246 -113
q93 0 162 33v209q0 31 -37 37l-84 16l-4 72h414zM850 1044h-55l-203 222h-4l-203 -222h-55l217 383h86z" />
    <glyph glyph-name="gbreve.smallcap" horiz-adv-x="1134" 
d="M1061 422l-4 -72l-78 -16q-35 -6 -35 -37v-180l92 -11l4 -47q-200 -82 -436 -82q-235 0 -381 131q-145 130 -145 349q0 229 151 365t381 136q111 0 213 -32l129 28v-329h-98l-51 204q-83 50 -197 50q-148 0 -240 -111q-92 -112 -92 -289q0 -197 90 -311q89 -113 246 -113
q93 0 162 33v209q0 31 -37 37l-84 16l-4 72h414zM870 1427q-20 -95 -25 -114q-14 -50 -34 -104q-23 -61 -49 -93q-27 -33 -72 -57q-47 -25 -100 -25q-54 0 -101 25q-43 23 -71 57q-26 32 -49 93q-20 54 -34 104q-9 33 -26 114h45q79 -174 125 -225q51 -57 111 -57
q41 0 72 20q32 20 62 67q27 42 46 78q15 28 45 95q2 7 3 8l3 6l4 8h45z" />
    <glyph glyph-name="gdotaccent.smallcap" horiz-adv-x="1134" 
d="M1061 422l-4 -72l-78 -16q-35 -6 -35 -37v-180l92 -11l4 -47q-200 -82 -436 -82q-235 0 -381 131q-145 130 -145 349q0 229 151 365t381 136q111 0 213 -32l129 28v-329h-98l-51 204q-83 50 -197 50q-148 0 -240 -111q-92 -112 -92 -289q0 -197 90 -311q89 -113 246 -113
q93 0 162 33v209q0 31 -37 37l-84 16l-4 72h414zM711 1243q0 -53 -33 -91t-88 -38t-88 38t-33 91t33 91t88 38t88 -38t33 -91z" />
    <glyph glyph-name="gcommaaccent.smallcap" horiz-adv-x="1134" 
d="M1061 422l-4 -72l-78 -16q-35 -6 -35 -37v-180l92 -11l4 -47q-200 -82 -436 -82q-235 0 -381 131q-145 130 -145 349q0 229 151 365t381 136q111 0 213 -32l129 28v-329h-98l-51 204q-83 50 -197 50q-148 0 -240 -111q-92 -112 -92 -289q0 -197 90 -311q89 -113 246 -113
q93 0 162 33v209q0 31 -37 37l-84 16l-4 72h414zM760 -262q0 -98 -70 -171q-71 -74 -164 -108l-39 33q59 22 99 65q41 44 41 103q0 32 -14 58t-32 40q-19 15 -39 24q-17 8 -34 13l-12 4q0 46 30 73q31 28 86 28q61 0 105 -50q43 -49 43 -112z" />
    <glyph glyph-name="hcircumflex.smallcap" horiz-adv-x="1200" 
d="M1104 0h-406l7 72l73 16q35 8 35 35v321h-426v-321q0 -27 33 -35l76 -16l4 -72h-404l4 72l74 16q35 8 35 35v692q0 27 -35 35l-74 16l-4 72h404l-4 -72l-76 -16q-33 -8 -33 -35v-299h426v299q0 27 -35 35l-73 16l-7 72h406l-4 -72l-76 -16q-35 -8 -35 -35v-692
q0 -27 35 -35l76 -16zM860 1057h-55l-203 221h-4l-203 -221h-55l217 383h86z" />
    <glyph glyph-name="hbar.smallcap" horiz-adv-x="1200" 
d="M1104 0h-406l7 72l73 16q35 8 35 35v321h-426v-321q0 -27 33 -35l76 -16l4 -72h-404l4 72l74 16q35 8 35 35v516h-174l6 68h168v108q0 27 -35 35l-74 16l-4 72h404l-4 -72l-76 -16q-33 -8 -33 -35v-108h426v108q0 27 -35 35l-73 16l-7 72h406l-4 -72l-76 -16
q-35 -8 -35 -35v-108h178l7 -68h-185v-516q0 -27 35 -35l76 -16zM387 516h426v123h-426v-123z" />
    <glyph glyph-name="igrave.smallcap" horiz-adv-x="634" 
d="M535 0h-435l4 72l91 16q34 6 34 35v692q0 29 -34 35l-91 16l-4 72h435l-5 -72l-88 -16q-34 -6 -34 -35v-692q0 -29 34 -35l88 -16zM373 1044h-45l-346 383h200z" />
    <glyph glyph-name="iacute.smallcap" horiz-adv-x="634" 
d="M535 0h-435l4 72l91 16q34 6 34 35v692q0 29 -34 35l-91 16l-4 72h435l-5 -72l-88 -16q-34 -6 -34 -35v-692q0 -29 34 -35l88 -16zM655 1427l-346 -383h-49l186 383h209z" />
    <glyph glyph-name="icircumflex.smallcap" horiz-adv-x="634" 
d="M535 0h-435l4 72l91 16q34 6 34 35v692q0 29 -34 35l-91 16l-4 72h435l-5 -72l-88 -16q-34 -6 -34 -35v-692q0 -29 34 -35l88 -16zM575 1044h-55l-203 222h-4l-202 -222h-56l217 383h86z" />
    <glyph glyph-name="idieresis.smallcap" horiz-adv-x="634" 
d="M535 0h-435l4 72l91 16q34 6 34 35v692q0 29 -34 35l-91 16l-4 72h435l-5 -72l-88 -16q-34 -6 -34 -35v-692q0 -29 34 -35l88 -16zM643 1243q0 -53 -33 -91t-88 -38t-88 38t-33 91t33 91t88 38t88 -38t33 -91zM233 1243q0 -55 -32 -91q-33 -38 -88 -38t-88 38t-33 91
t33 91t88 38t88 -38q32 -36 32 -91z" />
    <glyph glyph-name="imacron.smallcap" horiz-adv-x="634" 
d="M535 0h-435l4 72l91 16q34 6 34 35v692q0 29 -34 35l-91 16l-4 72h435l-5 -72l-88 -16q-34 -6 -34 -35v-692q0 -29 34 -35l88 -16zM578 1108h-517l7 84h503z" />
    <glyph glyph-name="ibreve.smallcap" horiz-adv-x="634" 
d="M535 0h-435l4 72l91 16q34 6 34 35v692q0 29 -34 35l-91 16l-4 72h435l-5 -72l-88 -16q-34 -6 -34 -35v-692q0 -29 34 -35l88 -16zM598 1427q-17 -81 -26 -114q-17 -61 -33 -104q-22 -59 -50 -93t-71 -57q-47 -25 -101 -25q-53 0 -100 25q-45 24 -72 57q-26 32 -49 93
q-20 54 -34 104q-5 19 -25 114h45q79 -174 125 -225q51 -57 110 -57q41 0 72 20q34 21 63 67q27 42 46 78q15 28 45 95q2 7 3 8l3 6l4 8h45z" />
    <glyph glyph-name="iogonek.smallcap" horiz-adv-x="634" 
d="M352 -444q-82 0 -135 50t-53 138q0 75 56 143q59 71 134 113h-254l4 72l91 16q34 6 34 35v692q0 29 -34 35l-91 16l-4 72h435l-5 -72l-88 -16q-34 -6 -34 -35v-692q0 -29 34 -35l88 -16l5 -72q-87 -17 -156 -81q-70 -65 -70 -130q0 -49 27 -81t76 -32q63 0 104 41l21 -24
q-6 -53 -59 -95q-52 -42 -126 -42z" />
    <glyph glyph-name="idotaccent.smallcap" horiz-adv-x="634" 
d="M535 0h-435l4 72l91 16q34 6 34 35v692q0 29 -34 35l-91 16l-4 72h435l-5 -72l-88 -16q-34 -6 -34 -35v-692q0 -29 34 -35l88 -16zM438 1243q0 -55 -32 -91q-33 -38 -89 -38q-55 0 -88 38q-32 36 -32 91t32 91q33 38 88 38q56 0 89 -38q32 -36 32 -91z" />
    <glyph glyph-name="dotlessi.smallcap" horiz-adv-x="634" 
d="M535 0h-435l4 72l91 16q34 6 34 35v692q0 29 -34 35l-91 16l-4 72h435l-5 -72l-88 -16q-34 -6 -34 -35v-692q0 -29 34 -35l88 -16z" />
    <glyph glyph-name="jcircumflex.smallcap" horiz-adv-x="671" 
d="M610 938l-4 -72l-82 -16q-35 -8 -35 -35v-403q0 -435 -309 -435q-71 0 -121 35q-49 34 -49 84q0 38 24 59t60 21q44 0 82 -35q33 -28 45 -98h2q50 27 69 89q19 61 19 216v467q0 29 -35 35l-104 16l-4 72h442zM657 1044h-55l-203 222h-4l-202 -222h-56l217 383h86z" />
    <glyph glyph-name="jcircumflex.smallcap.alt" horiz-adv-x="774" 
d="M797 1044h-56l-202 222h-4l-203 -222h-56l218 383h86zM764 938l-4 -72l-88 -16q-35 -6 -35 -35v-489q0 -179 -89 -265t-243 -86q-134 0 -207 56q-71 55 -71 131q0 51 28 80q29 30 70 30q37 0 63 -22q27 -22 27 -60q0 -51 -33 -84q43 -55 123 -55q156 0 156 244v520
q0 29 -35 35l-107 16l-4 72h449z" />
    <glyph glyph-name="dotlessj.smallcap" horiz-adv-x="671" 
d="M610 938l-4 -72l-82 -16q-35 -8 -35 -35v-403q0 -435 -309 -435q-71 0 -121 35q-49 34 -49 84q0 38 24 59t60 21q44 0 82 -35q33 -28 45 -98h2q50 27 69 89q19 61 19 216v467q0 29 -35 35l-104 16l-4 72h442z" />
    <glyph glyph-name="kcommaaccent.smallcap" horiz-adv-x="1052" 
d="M1032 0h-387l4 72l41 14q5 1 11 4q4 2 4 6q0 1 -3 7l-10 16l-215 330l-88 -84v-242q0 -27 33 -35l76 -16l4 -72h-404l4 72l74 16q35 8 35 35v692q0 27 -35 35l-74 16l-4 72h404l-4 -72l-76 -16q-33 -8 -33 -35v-360l213 217l24 23q13 13 21 23l18 18q10 10 16 18t12 14
t10 14l7 13q2 4 4 12q1 4 1 12q0 35 -45 43l-25 4l-4 72h389l-4 -72l-37 -8q-114 -24 -190 -100l-201 -197l293 -422q7 -10 19 -24q10 -12 21 -16q5 -2 10.5 -4.5t7.5 -3.5q9 -4 21 -5q8 -1 17 -4l41 -10zM698 -266q0 -99 -69 -171q-71 -74 -164 -108l-39 33q57 21 98 65
t41 103q0 33 -13 58t-33 40q-19 15 -39 24q-17 8 -34 13l-12 4q0 45 31 73t86 28q60 0 104 -50q43 -49 43 -112z" />
    <glyph glyph-name="lacute.smallcap" horiz-adv-x="940" 
d="M860 319l-33 -319h-729l4 72l74 16q35 8 35 35v692q0 27 -35 35l-74 16l-4 72h412l-4 -72l-84 -16q-33 -6 -33 -35v-735h31q135 0 185 7q53 7 78 26q24 18 42 67l39 139h96zM594 1378l-346 -383h-49l186 383h209z" />
    <glyph glyph-name="lcommaaccent.smallcap" horiz-adv-x="940" 
d="M860 319l-33 -319h-729l4 72l74 16q35 8 35 35v692q0 27 -35 35l-74 16l-4 72h412l-4 -72l-84 -16q-33 -6 -33 -35v-735h31q135 0 185 7q53 7 78 26q24 18 42 67l39 139h96zM621 -266q0 -98 -70 -171q-71 -74 -164 -108l-39 33q57 21 98 65t41 103q0 33 -13 58t-33 40
q-19 15 -39 24q-19 9 -33 13l-13 4q0 45 31 73t86 28q61 0 105 -50q43 -49 43 -112z" />
    <glyph glyph-name="lcaron.smallcap" horiz-adv-x="1380" 
d="M860 319l-33 -319h-729l4 72l74 16q35 8 35 35v692q0 27 -35 35l-74 16l-4 72h412l-4 -72l-84 -16q-33 -6 -33 -35v-735h31q135 0 185 7q53 7 78 26q24 18 42 67l39 139h96zM1311 778q0 -117 -81 -213q-78 -92 -212 -194l-53 32q70 52 122 123q54 74 54 146q0 33 -17 64
t-40 48q-27 20 -48 32q-22 12 -41 21q-16 7 -16 9q0 53 39 89t104 36q69 0 129 -57t60 -136z" />
    <glyph glyph-name="ldotaccent.smallcap" horiz-adv-x="1228" 
d="M860 319l-33 -319h-729l4 72l74 16q35 8 35 35v692q0 27 -35 35l-74 16l-4 72h412l-4 -72l-84 -16q-33 -6 -33 -35v-735h31q135 0 185 7q53 7 78 26q24 18 42 67l39 139h96zM1204 618q0 -56 -39 -96q-39 -41 -96 -41q-58 0 -99 41q-40 40 -40 96t40 95t99 39t97 -39
q38 -40 38 -95z" />
    <glyph glyph-name="lslash.smallcap" horiz-adv-x="980" 
d="M252 381l-168 -45l2 90l166 45v344q0 27 -35 35l-74 16l-4 72h412l-4 -72l-84 -16q-33 -6 -33 -35v-297l170 47v-90q-170 -45 -170 -47v-348h31q135 0 185 7q53 7 78 26q24 18 42 67l39 139h96l-33 -319h-729l4 72l74 16q35 8 35 35v258z" />
    <glyph glyph-name="ntilde.smallcap" horiz-adv-x="1183" 
d="M1133 938l-5 -72l-71 -14q-25 -6 -38 -23q-12 -16 -19 -78q-7 -59 -7 -198v-565h-133l-567 788h-21v-391q0 -130 8 -197q8 -65 18 -80q12 -17 36 -22l76 -14l4 -72h-348l4 72l69 14q27 6 40 23q12 17 18 77q6 62 6 199v350q0 85 -53 109l-70 22l-4 72h303l526 -729h21
v344q0 138 -6 198q-6 59 -18 77t-38 24l-76 14l-6 72h351zM946 1317q-40 -252 -201 -252q-73 0 -177 75q-102 74 -136 74q-29 0 -51 -28q-23 -30 -53 -105h-54q40 252 201 252q57 0 119 -38q73 -45 112 -74q49 -37 82 -37q30 0 52 28q23 30 53 105h53z" />
    <glyph glyph-name="nacute.smallcap" horiz-adv-x="1183" 
d="M1133 938l-5 -72l-71 -14q-25 -6 -38 -23q-12 -16 -19 -78q-7 -59 -7 -198v-565h-133l-567 788h-21v-391q0 -130 8 -197q8 -65 18 -80q12 -17 36 -22l76 -14l4 -72h-348l4 72l69 14q27 6 40 23q12 17 18 77q6 62 6 199v350q0 85 -53 109l-70 22l-4 72h303l526 -729h21
v344q0 138 -6 198q-6 59 -18 77t-38 24l-76 14l-6 72h351zM889 1427l-346 -383h-49l186 383h209z" />
    <glyph glyph-name="ncommaaccent.smallcap" horiz-adv-x="1183" 
d="M1133 938l-5 -72l-71 -14q-25 -6 -38 -23q-12 -16 -19 -78q-7 -59 -7 -198v-565h-133l-567 788h-21v-391q0 -130 8 -197q8 -65 18 -80q12 -17 36 -22l76 -14l4 -72h-348l4 72l69 14q27 6 40 23q12 17 18 77q6 62 6 199v350q0 85 -53 109l-70 22l-4 72h303l526 -729h21
v344q0 138 -6 198q-6 59 -18 77t-38 24l-76 14l-6 72h351zM743 -266q0 -99 -69 -171q-71 -74 -164 -108l-39 33q57 21 98 65t41 103q0 33 -13 58t-33 40t-39 24t-33 13l-13 4q0 45 31 73t86 28q60 0 104 -50q43 -49 43 -112z" />
    <glyph glyph-name="ncaron.smallcap" horiz-adv-x="1183" 
d="M1133 938l-5 -72l-71 -14q-25 -6 -38 -23q-12 -16 -19 -78q-7 -59 -7 -198v-565h-133l-567 788h-21v-391q0 -130 8 -197q8 -65 18 -80q12 -17 36 -22l76 -14l4 -72h-348l4 72l69 14q27 6 40 23q12 17 18 77q6 62 6 199v350q0 85 -53 109l-70 22l-4 72h303l526 -729h21
v344q0 138 -6 198q-6 59 -18 77t-38 24l-76 14l-6 72h351zM852 1427l-217 -383h-86l-217 383h55l203 -221h4l203 221h55z" />
    <glyph glyph-name="ograve.smallcap" horiz-adv-x="1157" 
d="M1079 473q0 -210 -147 -354t-357 -144q-217 0 -358 135q-139 133 -139 349q0 211 147 355t357 144q221 0 359 -135t138 -350zM885 457q0 199 -88 309q-89 111 -222 111q-130 0 -216 -103q-85 -101 -85 -297q0 -199 88 -309q88 -111 220 -111t218 103q85 101 85 297z
M643 1044h-45l-346 383h201z" />
    <glyph glyph-name="oacute.smallcap" horiz-adv-x="1157" 
d="M1079 473q0 -210 -147 -354t-357 -144q-217 0 -358 135q-139 133 -139 349q0 211 147 355t357 144q221 0 359 -135t138 -350zM885 457q0 199 -88 309q-89 111 -222 111q-130 0 -216 -103q-85 -101 -85 -297q0 -199 88 -309q88 -111 220 -111t218 103q85 101 85 297z
M924 1427l-346 -383h-50l187 383h209z" />
    <glyph glyph-name="ocircumflex.smallcap" horiz-adv-x="1157" 
d="M1079 473q0 -210 -147 -354t-357 -144q-217 0 -358 135q-139 133 -139 349q0 211 147 355t357 144q221 0 359 -135t138 -350zM885 457q0 199 -88 309q-89 111 -222 111q-130 0 -216 -103q-85 -101 -85 -297q0 -199 88 -309q88 -111 220 -111t218 103q85 101 85 297z
M852 1044h-55l-203 222h-4l-203 -222h-55l217 383h86z" />
    <glyph glyph-name="otilde.smallcap" horiz-adv-x="1157" 
d="M1079 473q0 -210 -147 -354t-357 -144q-217 0 -358 135q-139 133 -139 349q0 211 147 355t357 144q221 0 359 -135t138 -350zM885 457q0 199 -88 309q-89 111 -222 111q-130 0 -216 -103q-85 -101 -85 -297q0 -199 88 -309q88 -111 220 -111t218 103q85 101 85 297z
M905 1317q-41 -252 -200 -252q-75 0 -178 75q-102 74 -136 74q-29 0 -51 -28q-23 -30 -53 -105h-54q41 252 201 252q57 0 119 -38q73 -45 112 -74q49 -37 83 -37q29 0 51 28q23 30 53 105h53z" />
    <glyph glyph-name="odieresis.smallcap" horiz-adv-x="1157" 
d="M1079 473q0 -210 -147 -354t-357 -144q-217 0 -358 135q-139 133 -139 349q0 211 147 355t357 144q221 0 359 -135t138 -350zM885 457q0 199 -88 309q-89 111 -222 111q-130 0 -216 -103q-85 -101 -85 -297q0 -199 88 -309q88 -111 220 -111t218 103q85 101 85 297z
M918 1243q0 -53 -33 -91t-88 -38t-88 38t-33 91t33 91t88 38t88 -38t33 -91zM508 1243q0 -53 -33 -91t-88 -38t-88 38t-33 91t33 91t88 38t88 -38t33 -91z" />
    <glyph glyph-name="omacron.smallcap" horiz-adv-x="1157" 
d="M1079 473q0 -210 -147 -354t-357 -144q-217 0 -358 135q-139 133 -139 349q0 211 147 355t357 144q221 0 359 -135t138 -350zM885 457q0 199 -88 309q-89 111 -222 111q-130 0 -216 -103q-85 -101 -85 -297q0 -199 88 -309q88 -111 220 -111t218 103q85 101 85 297z
M858 1108h-516l6 84h504z" />
    <glyph glyph-name="obreve.smallcap" horiz-adv-x="1157" 
d="M1079 473q0 -210 -147 -354t-357 -144q-217 0 -358 135q-139 133 -139 349q0 211 147 355t357 144q221 0 359 -135t138 -350zM885 457q0 199 -88 309q-89 111 -222 111q-130 0 -216 -103q-85 -101 -85 -297q0 -199 88 -309q88 -111 220 -111t218 103q85 101 85 297z
M879 1427q-17 -81 -26 -114q-14 -50 -34 -104q-23 -61 -49 -93q-27 -33 -72 -57q-47 -25 -100 -25t-100 25q-45 24 -72 57q-26 32 -49 93q-20 54 -34 104q-9 33 -26 114h45q79 -174 125 -225q51 -57 111 -57q41 0 72 20q32 20 62 67q27 42 46 78q15 28 45 95q2 7 3 8l3 6
l5 8h45z" />
    <glyph glyph-name="ohungarumlaut.smallcap" horiz-adv-x="1157" 
d="M1079 473q0 -210 -147 -354t-357 -144q-217 0 -358 135q-139 133 -139 349q0 211 147 355t357 144q221 0 359 -135t138 -350zM885 457q0 199 -88 309q-89 111 -222 111q-130 0 -216 -103q-85 -101 -85 -297q0 -199 88 -309q88 -111 220 -111t218 103q85 101 85 297z
M1024 1427l-315 -383h-45l176 383h184zM713 1427l-316 -383h-45l176 383h185z" />
    <glyph glyph-name="oslash.smallcap" horiz-adv-x="1157" 
d="M1114 473q0 -210 -147 -354t-357 -144q-121 0 -219 43l-74 -129h-73l90 158q-104 61 -163 168q-58 106 -58 244q0 211 147 355t356 144q119 0 224 -43l67 117h74l-84 -147q103 -62 160 -168t57 -244zM782 817q-76 60 -172 60q-130 0 -216 -103q-85 -101 -85 -297t92 -315
zM920 457q0 195 -91 313q-380 -652 -380 -655q73 -58 167 -58q133 0 219 103q85 101 85 297z" />
    <glyph glyph-name="oslashacute.smallcap" horiz-adv-x="1157" 
d="M1114 473q0 -210 -147 -354t-357 -144q-121 0 -219 43l-74 -129h-73l90 158q-104 61 -163 168q-58 106 -58 244q0 211 147 355t356 144q119 0 224 -43l67 117h74l-84 -147q103 -62 160 -168t57 -244zM782 817q-76 60 -172 60q-130 0 -216 -103q-85 -101 -85 -297t92 -315
zM920 457q0 195 -91 313q-380 -652 -380 -655q73 -58 167 -58q133 0 219 103q85 101 85 297zM926 1427l-346 -383h-50l187 383h209z" />
    <glyph glyph-name="oe.smallcap" horiz-adv-x="1521" 
d="M1413 293l-29 -293h-759q-244 0 -396 128q-151 127 -151 327q0 207 148 346t415 139l743 -2v-303h-84l-32 133q-18 68 -67 83q-48 15 -245 15h-69v-360h49q82 0 107 7q29 8 36 34l35 102h66l-33 -344h-64l-14 96q-5 28 -28 35q-26 8 -109 8h-45v-372h65q150 0 206 7
q61 8 87 25q25 17 41 66l35 123h92zM723 74v774l-109 22q-168 0 -263 -105q-95 -106 -95 -273q0 -195 109 -307q108 -111 311 -111h47z" />
    <glyph glyph-name="thorn.smallcap" horiz-adv-x="995" 
d="M918 502q0 -140 -116 -223q-115 -82 -280 -82q-59 0 -119 6v-80q0 -29 33 -35l99 -16l4 -72h-426l4 72l73 16q35 8 35 35v692q0 29 -35 35l-90 16l-4 72h434l-4 -72l-88 -16q-35 -6 -35 -33v-41h127q184 0 285 -79q103 -80 103 -195zM725 473q0 107 -66 167t-180 60h-76
v-417q49 -15 123 -15q87 0 144 55q55 54 55 150z" />
    <glyph glyph-name="racute.smallcap" horiz-adv-x="1032" 
d="M1010 0h-252l-70 113l-176 276l-125 2v-268q0 -27 35 -35l76 -16l4 -72h-406l4 72l76 16q33 8 33 35v692q0 27 -33 35l-76 16l-4 72h459q187 0 283 -70q94 -69 94 -182q0 -195 -246 -264l193 -281q34 -50 86 -61l41 -8zM737 653q0 213 -245 207l-105 -2v-389l137 -14
q213 21 213 198zM770 1427l-346 -383h-49l186 383h209z" />
    <glyph glyph-name="rcommaaccent.smallcap" horiz-adv-x="1032" 
d="M1010 0h-252l-70 113l-176 276l-125 2v-268q0 -27 35 -35l76 -16l4 -72h-406l4 72l76 16q33 8 33 35v692q0 27 -33 35l-76 16l-4 72h459q187 0 283 -70q94 -69 94 -182q0 -195 -246 -264l193 -281q34 -50 86 -61l41 -8zM737 653q0 213 -245 207l-105 -2v-389l137 -14
q213 21 213 198zM711 -266q0 -98 -70 -171q-71 -74 -164 -108l-39 33q59 22 99 65q41 44 41 103q0 32 -14 58q-13 25 -33 40q-21 16 -38 24t-34 13l-13 4q0 45 31 73t86 28q61 0 105 -50q43 -49 43 -112z" />
    <glyph glyph-name="rcaron.smallcap" horiz-adv-x="1032" 
d="M1010 0h-252l-70 113l-176 276l-125 2v-268q0 -27 35 -35l76 -16l4 -72h-406l4 72l76 16q33 8 33 35v692q0 27 -33 35l-76 16l-4 72h459q187 0 283 -70q94 -69 94 -182q0 -195 -246 -264l193 -281q34 -50 86 -61l41 -8zM737 653q0 213 -245 207l-105 -2v-389l137 -14
q213 21 213 198zM756 1427l-217 -383h-86l-217 383h55l203 -221h4l202 221h56z" />
    <glyph glyph-name="sacute.smallcap" horiz-adv-x="876" 
d="M788 264q0 -119 -102 -203t-278 -84q-148 0 -299 43l-17 289h82l72 -215q84 -35 190 -35q97 0 147 44t50 110q0 35 -15 62q-17 31 -30 44q-16 16 -58 36q-40 19 -63 27q-4 1 -17.5 5.5t-29 10t-31.5 10.5q-143 46 -216 107t-73 175q0 111 91 189q91 77 260 79
q112 0 213 -20l81 23v-314h-77l-60 197q-86 33 -180 33q-87 0 -133 -38q-45 -37 -45 -96q0 -51 36 -88t73 -52q35 -14 122 -42q156 -52 231 -114q76 -63 76 -183zM731 1427l-346 -383h-49l186 383h209z" />
    <glyph glyph-name="scircumflex.smallcap" horiz-adv-x="876" 
d="M788 264q0 -119 -102 -203t-278 -84q-148 0 -299 43l-17 289h82l72 -215q84 -35 190 -35q97 0 147 44t50 110q0 35 -15 62q-17 31 -30 44q-16 16 -58 36q-40 19 -63 27q-4 1 -17.5 5.5t-29 10t-31.5 10.5q-143 46 -216 107t-73 175q0 111 91 189q91 77 260 79
q112 0 213 -20l81 23v-314h-77l-60 197q-86 33 -180 33q-87 0 -133 -38q-45 -37 -45 -96q0 -51 36 -88t73 -52q35 -14 122 -42q156 -52 231 -114q76 -63 76 -183zM698 1044h-55l-203 222h-4l-203 -222h-55l217 383h86z" />
    <glyph glyph-name="scedilla.smallcap" horiz-adv-x="876" 
d="M678 -303q0 -102 -115 -169q-114 -66 -315 -81l-19 49q322 39 322 176q0 49 -45 79t-129 30q-61 0 -127 -12v41l160 167h-2q-148 0 -299 43l-17 289h82l72 -215q84 -35 190 -35q97 0 147 44t50 110q0 35 -15 62q-17 31 -30 44q-16 16 -58 36q-40 19 -63 27
q-4 1 -17.5 5.5t-29 10t-31.5 10.5q-143 46 -216 107t-73 175q0 111 91 189q91 77 260 79q112 0 213 -20l81 23v-314h-77l-60 197q-86 33 -180 33q-87 0 -133 -38q-45 -37 -45 -96q0 -51 36 -88t73 -52q35 -14 122 -42q156 -52 231 -114q76 -63 76 -183q0 -99 -74 -176
t-206 -100l-98 -105q125 0 196 -49q72 -50 72 -137z" />
    <glyph glyph-name="scommaaccent.smallcap" horiz-adv-x="876" 
d="M788 264q0 -119 -102 -203t-278 -84q-148 0 -299 43l-17 289h82l72 -215q84 -35 190 -35q97 0 147 44t50 110q0 35 -15 62q-17 31 -30 44q-16 16 -58 36q-40 19 -63 27q-4 1 -17.5 5.5t-29 10t-31.5 10.5q-143 46 -216 107t-73 175q0 111 91 189q91 77 260 79
q112 0 213 -20l81 23v-314h-77l-60 197q-86 33 -180 33q-87 0 -133 -38q-45 -37 -45 -96q0 -51 36 -88t73 -52q35 -14 122 -42q156 -52 231 -114q76 -63 76 -183zM575 -266q0 -99 -69 -171q-71 -74 -164 -108l-39 33q57 21 98 65t41 103q0 33 -13 58t-33 40t-39 24t-33 13
l-13 4q0 45 31 73t86 28q60 0 104 -50q43 -49 43 -112z" />
    <glyph glyph-name="scaron.smallcap" horiz-adv-x="876" 
d="M788 264q0 -119 -102 -203t-278 -84q-148 0 -299 43l-17 289h82l72 -215q84 -35 190 -35q97 0 147 44t50 110q0 35 -15 62q-17 31 -30 44q-16 16 -58 36q-40 19 -63 27q-4 1 -17.5 5.5t-29 10t-31.5 10.5q-143 46 -216 107t-73 175q0 111 91 189q91 77 260 79
q112 0 213 -20l81 23v-314h-77l-60 197q-86 33 -180 33q-87 0 -133 -38q-45 -37 -45 -96q0 -51 36 -88t73 -52q35 -14 122 -42q156 -52 231 -114q76 -63 76 -183zM670 1427l-217 -383h-86l-217 383h55l203 -221h4l202 221h56z" />
    <glyph glyph-name="tcommaaccent.smallcap" horiz-adv-x="1009" 
d="M946 616h-90l-33 132q-17 70 -56 90t-157 20h-16v-735q0 -29 35 -35l98 -16l4 -72h-450l4 72l96 16q35 6 35 35v735h-13q-121 0 -159 -17q-43 -19 -60 -83l-39 -142h-94l27 322h868v-322zM641 -266q0 -98 -70 -171q-71 -75 -163 -108l-39 33q57 21 98 65t41 103
q0 33 -13 58t-33 40t-39 24q-17 8 -34 13l-12 4q0 45 31 73t86 28q60 0 104 -50q43 -49 43 -112z" />
    </font>
</defs>
</svg>
